<svg width="193" height="49" viewBox="0 0 193 49" fill="none" xmlns="http://www.w3.org/2000/svg">
<path d="M41.5711 36.9949V12.9951L33.5272 17.6352V32.3466L20.7855 39.7064L8.04389 32.3466V17.6352L0 12.9951V36.9949L20.7855 48.9948L41.5711 36.9949Z" fill="#745EFF"/>
<path d="M41.5711 12.996L33.5272 8.34766L20.7855 15.7075L8.04389 8.34766L0 12.996L20.7855 24.9959L41.5711 12.996Z" fill="#F8BC26"/>
<path d="M20.7861 10.2835L28.83 5.63519L20.7861 0.995117L12.7422 5.63519L20.7861 10.2835Z" fill="#F8BC26"/>
<path d="M53.8913 17.0107V14.1769H70.777V17.0107H63.9695V35.9951H60.6882V17.0107H53.8913ZM77.9322 36.3254C76.32 36.3254 74.9315 35.9809 73.7667 35.292C72.609 34.596 71.7141 33.6194 71.082 32.3623C70.457 31.0981 70.1445 29.6173 70.1445 27.9198C70.1445 26.2437 70.457 24.7664 71.082 23.488C71.7141 22.2096 72.5948 21.2117 73.7241 20.4944C74.8604 19.7771 76.1886 19.4184 77.7085 19.4184C78.6317 19.4184 79.5266 19.5711 80.3931 19.8765C81.2596 20.1819 82.0373 20.6613 82.7262 21.3147C83.4151 21.9681 83.9585 22.8168 84.3562 23.8609C84.7539 24.8978 84.9528 26.1585 84.9528 27.6428V28.7721H71.945V26.3857H81.8313C81.8313 25.5477 81.6609 24.8055 81.32 24.1592C80.979 23.5058 80.4996 22.9909 79.8817 22.6144C79.271 22.238 78.5536 22.0498 77.7298 22.0498C76.8349 22.0498 76.0536 22.27 75.386 22.7103C74.7255 23.1436 74.2141 23.7117 73.8519 24.4149C73.4968 25.1109 73.3192 25.8673 73.3192 26.684V28.5484C73.3192 29.6421 73.511 30.5725 73.8945 31.3396C74.2852 32.1066 74.8285 32.6926 75.5245 33.0974C76.2205 33.4951 77.0337 33.694 77.9641 33.694C78.5678 33.694 79.1183 33.6088 79.6154 33.4383C80.1126 33.2607 80.5423 32.998 80.9045 32.6499C81.2667 32.3019 81.5437 31.8722 81.7354 31.3609L84.7504 31.9042C84.5089 32.792 84.0756 33.5697 83.4506 34.2373C82.8327 34.8978 82.055 35.4127 81.1175 35.782C80.1871 36.1443 79.1254 36.3254 77.9322 36.3254ZM94.3798 36.3254C92.796 36.3254 91.4324 35.9667 90.2889 35.2494C89.1525 34.5249 88.2789 33.5271 87.6681 32.2558C87.0574 30.9845 86.752 29.5285 86.752 27.8879C86.752 26.2259 87.0645 24.7593 87.6895 23.488C88.3145 22.2096 89.1951 21.2117 90.3315 20.4944C91.4679 19.7771 92.8066 19.4184 94.3478 19.4184C95.5907 19.4184 96.6987 19.6492 97.6717 20.1109C98.6447 20.5654 99.4295 21.2046 100.026 22.0285C100.63 22.8524 100.988 23.8147 101.102 24.9156H98.002C97.8315 24.1485 97.4409 23.488 96.8301 22.934C96.2264 22.3801 95.4167 22.1031 94.4011 22.1031C93.5133 22.1031 92.7356 22.3374 92.068 22.8062C91.4075 23.2678 90.8926 23.9284 90.5233 24.7877C90.1539 25.64 89.9693 26.6485 89.9693 27.8133C89.9693 29.0065 90.1504 30.0363 90.5126 30.9028C90.8748 31.7693 91.3862 32.4404 92.0467 32.9163C92.7143 33.3921 93.4991 33.6301 94.4011 33.6301C95.0048 33.6301 95.5517 33.52 96.0417 33.2998C96.5389 33.0725 96.9544 32.7494 97.2882 32.3303C97.6291 31.9113 97.867 31.407 98.002 30.8176H101.102C100.988 31.8758 100.644 32.8204 100.069 33.6514C99.4934 34.4823 98.7228 35.1357 97.7569 35.6116C96.7981 36.0874 95.6724 36.3254 94.3798 36.3254ZM106.694 26.2792V35.9951H103.509V14.1769H106.651V22.2948H106.854C107.237 21.4142 107.823 20.7146 108.612 20.1961C109.4 19.6776 110.43 19.4184 111.701 19.4184C112.823 19.4184 113.803 19.6492 114.641 20.1109C115.487 20.5725 116.14 21.2615 116.602 22.1776C117.07 23.0867 117.305 24.2231 117.305 25.5867V35.9951H114.119V25.9703C114.119 24.77 113.81 23.8396 113.192 23.1791C112.575 22.5115 111.715 22.1776 110.614 22.1776C109.862 22.1776 109.187 22.3374 108.59 22.657C108.001 22.9767 107.536 23.4454 107.195 24.0633C106.861 24.6741 106.694 25.4127 106.694 26.2792ZM138.933 21.2721H135.609C135.481 20.5619 135.243 19.9369 134.895 19.3971C134.547 18.8573 134.121 18.3992 133.616 18.0228C133.112 17.6464 132.548 17.3623 131.923 17.1705C131.305 16.9788 130.648 16.8829 129.952 16.8829C128.695 16.8829 127.569 17.199 126.575 17.8311C125.587 18.4632 124.806 19.39 124.231 20.6116C123.663 21.8332 123.379 23.3247 123.379 25.086C123.379 26.8616 123.663 28.3602 124.231 29.5818C124.806 30.8034 125.591 31.7267 126.585 32.3517C127.58 32.9767 128.698 33.2892 129.941 33.2892C130.63 33.2892 131.283 33.1968 131.901 33.0122C132.526 32.8204 133.091 32.5399 133.595 32.1705C134.099 31.8012 134.526 31.3502 134.874 30.8176C135.229 30.2778 135.474 29.6599 135.609 28.9639L138.933 28.9745C138.755 30.047 138.411 31.0342 137.899 31.9362C137.395 32.8311 136.745 33.6052 135.95 34.2586C135.161 34.9049 134.259 35.4056 133.244 35.7607C132.228 36.1159 131.12 36.2934 129.92 36.2934C128.031 36.2934 126.347 35.846 124.87 34.9511C123.393 34.0491 122.228 32.76 121.376 31.0839C120.531 29.4078 120.108 27.4085 120.108 25.086C120.108 22.7565 120.534 20.7572 121.386 19.0882C122.239 17.412 123.403 16.1265 124.881 15.2316C126.358 14.3296 128.038 13.8786 129.92 13.8786C131.077 13.8786 132.157 14.0455 133.158 14.3794C134.167 14.7061 135.072 15.189 135.875 15.8282C136.678 16.4603 137.342 17.2345 137.867 18.1507C138.393 19.0597 138.748 20.1002 138.933 21.2721ZM148.509 36.3254C146.975 36.3254 145.636 35.9738 144.492 35.2707C143.349 34.5676 142.461 33.5839 141.829 32.3197C141.197 31.0555 140.881 29.5782 140.881 27.8879C140.881 26.1904 141.197 24.7061 141.829 23.4347C142.461 22.1634 143.349 21.1762 144.492 20.4731C145.636 19.77 146.975 19.4184 148.509 19.4184C150.043 19.4184 151.382 19.77 152.525 20.4731C153.669 21.1762 154.556 22.1634 155.188 23.4347C155.82 24.7061 156.137 26.1904 156.137 27.8879C156.137 29.5782 155.82 31.0555 155.188 32.3197C154.556 33.5839 153.669 34.5676 152.525 35.2707C151.382 35.9738 150.043 36.3254 148.509 36.3254ZM148.519 33.6514C149.514 33.6514 150.338 33.3886 150.991 32.863C151.644 32.3374 152.127 31.6379 152.44 30.7643C152.759 29.8907 152.919 28.9284 152.919 27.8772C152.919 26.8332 152.759 25.8744 152.44 25.0008C152.127 24.1201 151.644 23.4134 150.991 22.8808C150.338 22.3481 149.514 22.0818 148.519 22.0818C147.518 22.0818 146.687 22.3481 146.026 22.8808C145.373 23.4134 144.887 24.1201 144.567 25.0008C144.254 25.8744 144.098 26.8332 144.098 27.8772C144.098 28.9284 144.254 29.8907 144.567 30.7643C144.887 31.6379 145.373 32.3374 146.026 32.863C146.687 33.3886 147.518 33.6514 148.519 33.6514ZM164.818 36.3147C163.497 36.3147 162.318 35.9774 161.281 35.3026C160.251 34.6208 159.441 33.6514 158.852 32.3943C158.27 31.1301 157.978 29.6137 157.978 27.8453C157.978 26.0768 158.273 24.564 158.863 23.3069C159.459 22.0498 160.276 21.0874 161.313 20.4198C162.35 19.7522 163.525 19.4184 164.839 19.4184C165.855 19.4184 166.672 19.5889 167.289 19.9298C167.914 20.2636 168.397 20.6542 168.738 21.1017C169.086 21.5491 169.356 21.9433 169.548 22.2842H169.74V14.1769H172.925V35.9951H169.814V33.449H169.548C169.356 33.797 169.079 34.1947 168.717 34.6421C168.362 35.0896 167.872 35.4802 167.247 35.814C166.622 36.1478 165.812 36.3147 164.818 36.3147ZM165.521 33.5981C166.437 33.5981 167.211 33.3566 167.843 32.8737C168.483 32.3836 168.966 31.7053 169.292 30.8389C169.626 29.9724 169.793 28.9639 169.793 27.8133C169.793 26.6769 169.63 25.6826 169.303 24.8303C168.976 23.9781 168.497 23.314 167.865 22.8382C167.233 22.3623 166.451 22.1244 165.521 22.1244C164.562 22.1244 163.763 22.373 163.124 22.8701C162.485 23.3673 162.002 24.0455 161.675 24.9049C161.355 25.7643 161.196 26.7338 161.196 27.8133C161.196 28.907 161.359 29.8907 161.686 30.7643C162.012 31.6379 162.495 32.3303 163.135 32.8417C163.781 33.346 164.576 33.5981 165.521 33.5981ZM183.524 36.3254C181.912 36.3254 180.523 35.9809 179.358 35.292C178.201 34.596 177.306 33.6194 176.674 32.3623C176.049 31.0981 175.736 29.6173 175.736 27.9198C175.736 26.2437 176.049 24.7664 176.674 23.488C177.306 22.2096 178.187 21.2117 179.316 20.4944C180.452 19.7771 181.78 19.4184 183.3 19.4184C184.224 19.4184 185.118 19.5711 185.985 19.8765C186.851 20.1819 187.629 20.6613 188.318 21.3147C189.007 21.9681 189.55 22.8168 189.948 23.8609C190.346 24.8978 190.545 26.1585 190.545 27.6428V28.7721H177.537V26.3857H187.423C187.423 25.5477 187.253 24.8055 186.912 24.1592C186.571 23.5058 186.091 22.9909 185.474 22.6144C184.863 22.238 184.145 22.0498 183.322 22.0498C182.427 22.0498 181.645 22.27 180.978 22.7103C180.317 23.1436 179.806 23.7117 179.444 24.4149C179.089 25.1109 178.911 25.8673 178.911 26.684V28.5484C178.911 29.6421 179.103 30.5725 179.486 31.3396C179.877 32.1066 180.42 32.6926 181.116 33.0974C181.812 33.4951 182.626 33.694 183.556 33.694C184.16 33.694 184.71 33.6088 185.207 33.4383C185.704 33.2607 186.134 32.998 186.496 32.6499C186.858 32.3019 187.135 31.8722 187.327 31.3609L190.342 31.9042C190.101 32.792 189.667 33.5697 189.042 34.2373C188.425 34.8978 187.647 35.4127 186.709 35.782C185.779 36.1443 184.717 36.3254 183.524 36.3254Z" fill="white"/>
</svg>
