<svg width="193" height="48" viewBox="0 0 193 48" fill="none" xmlns="http://www.w3.org/2000/svg">
<path d="M41.5711 35.9998V12L33.5272 16.6401V31.3515L20.7855 38.7113L8.04389 31.3515V16.6401L0 12V35.9998L20.7855 47.9997L41.5711 35.9998Z" fill="#745EFF"/>
<path d="M41.5711 11.9999L33.5272 7.35156L20.7855 14.7114L8.04389 7.35156L0 11.9999L20.7855 23.9998L41.5711 11.9999Z" fill="#F8BC26"/>
<path d="M20.7861 9.28838L28.83 4.64007L20.7861 0L12.7422 4.64007L20.7861 9.28838Z" fill="#F8BC26"/>
<path d="M53.8913 16.0156V13.1818H70.777V16.0156H63.9695V35H60.6882V16.0156H53.8913ZM77.9322 35.3303C76.32 35.3303 74.9315 34.9858 73.7667 34.2969C72.609 33.6009 71.7141 32.6243 71.082 31.3672C70.457 30.103 70.1445 28.6222 70.1445 26.9247C70.1445 25.2486 70.457 23.7713 71.082 22.4929C71.7141 21.2145 72.5948 20.2166 73.7241 19.4993C74.8604 18.782 76.1886 18.4233 77.7085 18.4233C78.6317 18.4233 79.5266 18.576 80.3931 18.8814C81.2596 19.1868 82.0373 19.6662 82.7262 20.3196C83.4151 20.973 83.9585 21.8217 84.3562 22.8658C84.7539 23.9027 84.9528 25.1634 84.9528 26.6477V27.777H71.945V25.3906H81.8313C81.8313 24.5526 81.6609 23.8104 81.32 23.1641C80.979 22.5107 80.4996 21.9957 79.8817 21.6193C79.271 21.2429 78.5536 21.0547 77.7298 21.0547C76.8349 21.0547 76.0536 21.2749 75.386 21.7152C74.7255 22.1484 74.2141 22.7166 73.8519 23.4197C73.4968 24.1158 73.3192 24.8722 73.3192 25.6889V27.5533C73.3192 28.647 73.511 29.5774 73.8945 30.3445C74.2852 31.1115 74.8285 31.6974 75.5245 32.1023C76.2205 32.5 77.0337 32.6989 77.9641 32.6989C78.5678 32.6989 79.1183 32.6136 79.6154 32.4432C80.1126 32.2656 80.5423 32.0028 80.9045 31.6548C81.2667 31.3068 81.5437 30.8771 81.7354 30.3658L84.7504 30.9091C84.5089 31.7969 84.0756 32.5746 83.4506 33.2422C82.8327 33.9027 82.055 34.4176 81.1175 34.7869C80.1871 35.1491 79.1254 35.3303 77.9322 35.3303ZM94.3798 35.3303C92.796 35.3303 91.4324 34.9716 90.2889 34.2543C89.1525 33.5298 88.2789 32.532 87.6681 31.2607C87.0574 29.9893 86.752 28.5334 86.752 26.8928C86.752 25.2308 87.0645 23.7642 87.6895 22.4929C88.3145 21.2145 89.1951 20.2166 90.3315 19.4993C91.4679 18.782 92.8066 18.4233 94.3478 18.4233C95.5907 18.4233 96.6987 18.6541 97.6717 19.1158C98.6447 19.5703 99.4295 20.2095 100.026 21.0334C100.63 21.8572 100.988 22.8196 101.102 23.9205H98.002C97.8315 23.1534 97.4409 22.4929 96.8301 21.9389C96.2264 21.3849 95.4167 21.108 94.4011 21.108C93.5133 21.108 92.7356 21.3423 92.068 21.8111C91.4075 22.2727 90.8926 22.9332 90.5233 23.7926C90.1539 24.6449 89.9693 25.6534 89.9693 26.8182C89.9693 28.0114 90.1504 29.0412 90.5126 29.9077C90.8748 30.7741 91.3862 31.4453 92.0467 31.9212C92.7143 32.397 93.4991 32.6349 94.4011 32.6349C95.0048 32.6349 95.5517 32.5249 96.0417 32.3047C96.5389 32.0774 96.9544 31.7543 97.2882 31.3352C97.6291 30.9162 97.867 30.4119 98.002 29.8224H101.102C100.988 30.8807 100.644 31.8253 100.069 32.6562C99.4934 33.4872 98.7228 34.1406 97.7569 34.6165C96.7981 35.0923 95.6724 35.3303 94.3798 35.3303ZM106.694 25.2841V35H103.509V13.1818H106.651V21.2997H106.854C107.237 20.419 107.823 19.7195 108.612 19.201C109.4 18.6825 110.43 18.4233 111.701 18.4233C112.823 18.4233 113.803 18.6541 114.641 19.1158C115.487 19.5774 116.14 20.2663 116.602 21.1825C117.07 22.0916 117.305 23.228 117.305 24.5916V35H114.119V24.9751C114.119 23.7749 113.81 22.8445 113.192 22.1839C112.575 21.5163 111.715 21.1825 110.614 21.1825C109.862 21.1825 109.187 21.3423 108.59 21.6619C108.001 21.9815 107.536 22.4503 107.195 23.0682C106.861 23.679 106.694 24.4176 106.694 25.2841ZM138.933 20.277H135.609C135.481 19.5668 135.243 18.9418 134.895 18.402C134.547 17.8622 134.121 17.4041 133.616 17.0277C133.112 16.6513 132.548 16.3672 131.923 16.1754C131.305 15.9837 130.648 15.8878 129.952 15.8878C128.695 15.8878 127.569 16.2038 126.575 16.8359C125.587 17.468 124.806 18.3949 124.231 19.6165C123.663 20.8381 123.379 22.3295 123.379 24.0909C123.379 25.8665 123.663 27.3651 124.231 28.5866C124.806 29.8082 125.591 30.7315 126.585 31.3565C127.58 31.9815 128.698 32.294 129.941 32.294C130.63 32.294 131.283 32.2017 131.901 32.017C132.526 31.8253 133.091 31.5447 133.595 31.1754C134.099 30.8061 134.526 30.3551 134.874 29.8224C135.229 29.2827 135.474 28.6648 135.609 27.9688L138.933 27.9794C138.755 29.0518 138.411 30.0391 137.899 30.9411C137.395 31.8359 136.745 32.6101 135.95 33.2635C135.161 33.9098 134.259 34.4105 133.244 34.7656C132.228 35.1207 131.12 35.2983 129.92 35.2983C128.031 35.2983 126.347 34.8509 124.87 33.956C123.393 33.054 122.228 31.7649 121.376 30.0888C120.531 28.4126 120.108 26.4134 120.108 24.0909C120.108 21.7614 120.534 19.7621 121.386 18.093C122.239 16.4169 123.403 15.1314 124.881 14.2365C126.358 13.3345 128.038 12.8835 129.92 12.8835C131.077 12.8835 132.157 13.0504 133.158 13.3842C134.167 13.7109 135.072 14.1939 135.875 14.8331C136.678 15.4652 137.342 16.2393 137.867 17.1555C138.393 18.0646 138.748 19.1051 138.933 20.277ZM148.509 35.3303C146.975 35.3303 145.636 34.9787 144.492 34.2756C143.349 33.5724 142.461 32.5888 141.829 31.3246C141.197 30.0604 140.881 28.5831 140.881 26.8928C140.881 25.1953 141.197 23.7109 141.829 22.4396C142.461 21.1683 143.349 20.1811 144.492 19.478C145.636 18.7749 146.975 18.4233 148.509 18.4233C150.043 18.4233 151.382 18.7749 152.525 19.478C153.669 20.1811 154.556 21.1683 155.188 22.4396C155.82 23.7109 156.137 25.1953 156.137 26.8928C156.137 28.5831 155.82 30.0604 155.188 31.3246C154.556 32.5888 153.669 33.5724 152.525 34.2756C151.382 34.9787 150.043 35.3303 148.509 35.3303ZM148.519 32.6562C149.514 32.6562 150.338 32.3935 150.991 31.8679C151.644 31.3423 152.127 30.6428 152.44 29.7692C152.759 28.8956 152.919 27.9332 152.919 26.8821C152.919 25.8381 152.759 24.8793 152.44 24.0057C152.127 23.125 151.644 22.4183 150.991 21.8857C150.338 21.353 149.514 21.0866 148.519 21.0866C147.518 21.0866 146.687 21.353 146.026 21.8857C145.373 22.4183 144.887 23.125 144.567 24.0057C144.254 24.8793 144.098 25.8381 144.098 26.8821C144.098 27.9332 144.254 28.8956 144.567 29.7692C144.887 30.6428 145.373 31.3423 146.026 31.8679C146.687 32.3935 147.518 32.6562 148.519 32.6562ZM164.818 35.3196C163.497 35.3196 162.318 34.9822 161.281 34.3075C160.251 33.6257 159.441 32.6562 158.852 31.3991C158.27 30.1349 157.978 28.6186 157.978 26.8501C157.978 25.0817 158.273 23.5689 158.863 22.3118C159.459 21.0547 160.276 20.0923 161.313 19.4247C162.35 18.7571 163.525 18.4233 164.839 18.4233C165.855 18.4233 166.672 18.5938 167.289 18.9347C167.914 19.2685 168.397 19.6591 168.738 20.1065C169.086 20.554 169.356 20.9482 169.548 21.2891H169.74V13.1818H172.925V35H169.814V32.4538H169.548C169.356 32.8018 169.079 33.1996 168.717 33.647C168.362 34.0945 167.872 34.4851 167.247 34.8189C166.622 35.1527 165.812 35.3196 164.818 35.3196ZM165.521 32.603C166.437 32.603 167.211 32.3615 167.843 31.8786C168.483 31.3885 168.966 30.7102 169.292 29.8438C169.626 28.9773 169.793 27.9687 169.793 26.8182C169.793 25.6818 169.63 24.6875 169.303 23.8352C168.976 22.983 168.497 22.3189 167.865 21.843C167.233 21.3672 166.451 21.1293 165.521 21.1293C164.562 21.1293 163.763 21.3778 163.124 21.875C162.485 22.3722 162.002 23.0504 161.675 23.9098C161.355 24.7692 161.196 25.7386 161.196 26.8182C161.196 27.9119 161.359 28.8956 161.686 29.7692C162.012 30.6428 162.495 31.3352 163.135 31.8466C163.781 32.3509 164.576 32.603 165.521 32.603ZM183.524 35.3303C181.912 35.3303 180.523 34.9858 179.358 34.2969C178.201 33.6009 177.306 32.6243 176.674 31.3672C176.049 30.103 175.736 28.6222 175.736 26.9247C175.736 25.2486 176.049 23.7713 176.674 22.4929C177.306 21.2145 178.187 20.2166 179.316 19.4993C180.452 18.782 181.78 18.4233 183.3 18.4233C184.224 18.4233 185.118 18.576 185.985 18.8814C186.851 19.1868 187.629 19.6662 188.318 20.3196C189.007 20.973 189.55 21.8217 189.948 22.8658C190.346 23.9027 190.545 25.1634 190.545 26.6477V27.777H177.537V25.3906H187.423C187.423 24.5526 187.253 23.8104 186.912 23.1641C186.571 22.5107 186.091 21.9957 185.474 21.6193C184.863 21.2429 184.145 21.0547 183.322 21.0547C182.427 21.0547 181.645 21.2749 180.978 21.7152C180.317 22.1484 179.806 22.7166 179.444 23.4197C179.089 24.1158 178.911 24.8722 178.911 25.6889V27.5533C178.911 28.647 179.103 29.5774 179.486 30.3445C179.877 31.1115 180.42 31.6974 181.116 32.1023C181.812 32.5 182.626 32.6989 183.556 32.6989C184.16 32.6989 184.71 32.6136 185.207 32.4432C185.704 32.2656 186.134 32.0028 186.496 31.6548C186.858 31.3068 187.135 30.8771 187.327 30.3658L190.342 30.9091C190.101 31.7969 189.667 32.5746 189.042 33.2422C188.425 33.9027 187.647 34.4176 186.709 34.7869C185.779 35.1491 184.717 35.3303 183.524 35.3303Z" fill="#010D4C"/>
</svg>
