<svg width="77" height="65" viewBox="0 0 77 65" fill="none" xmlns="http://www.w3.org/2000/svg">
<mask id="mask0_202_7790" style="mask-type:luminance" maskUnits="userSpaceOnUse" x="16" y="0" width="61" height="62">
<path d="M23.7904 22.7628C23.1086 22.7628 22.4421 22.5606 21.8751 22.1818C21.3082 21.803 20.8664 21.2646 20.6054 20.6347C20.3445 20.0047 20.2762 19.3116 20.4093 18.6428C20.5423 17.9741 20.8706 17.3599 21.3527 16.8777C21.8349 16.3956 22.4491 16.0673 23.1179 15.9343C23.7866 15.8012 24.4797 15.8695 25.1097 16.1304C25.7396 16.3913 26.278 16.8332 26.6568 17.4001C27.0356 17.9671 27.2378 18.6336 27.2378 19.3154C27.2378 20.2297 26.8746 21.1066 26.2281 21.7531C25.5816 22.3996 24.7047 22.7628 23.7904 22.7628ZM16.7871 0V15.8597L19.7504 12.8171C20.2761 12.278 20.9043 11.8495 21.5982 11.557C22.292 11.2644 23.0374 11.1137 23.7904 11.1137C24.5434 11.1137 25.2888 11.2644 25.9826 11.557C26.6765 11.8495 27.3048 12.278 27.8304 12.8171L39.8087 25.1C40.8382 26.1527 41.4137 27.5674 41.4113 29.0399V59.2525C41.4089 59.9538 41.267 60.6475 40.994 61.2934H76.77V0H16.7871Z" fill="white"/>
</mask>
<g mask="url(#mask0_202_7790)">
<path d="M70.1893 24.2943L44.7846 7.94212C43.55 7.1437 42.0513 6.86194 40.611 7.15748L23.8039 10.5798C23.0661 10.731 22.3659 11.0281 21.7445 11.4538C21.1232 11.8794 20.5932 12.425 20.1857 13.0584C19.7782 13.6918 19.5014 14.4003 19.3716 15.1422C19.2419 15.8841 19.2617 16.6445 19.43 17.3786L23.2781 34.0939C23.6046 35.5303 24.4831 36.7805 25.7238 37.5746L51.1285 53.9226C52.3202 54.6873 53.7664 54.9485 55.1503 54.6488C56.5342 54.3492 57.7429 53.5133 58.5115 52.3241L71.8003 31.6732C72.5647 30.4809 72.8244 29.0339 72.5223 27.6502C72.2203 26.2665 71.3811 25.0594 70.1893 24.2943ZM29.9808 19.3652C29.6123 19.939 29.0819 20.3906 28.4566 20.6629C27.8314 20.9352 27.1394 21.0159 26.4683 20.8948C25.7972 20.7738 25.177 20.4564 24.6863 19.9828C24.1956 19.5092 23.8564 18.9008 23.7115 18.2344C23.5667 17.568 23.6227 16.8736 23.8726 16.2391C24.1225 15.6045 24.5549 15.0584 25.1152 14.6697C25.6755 14.2809 26.3386 14.0671 27.0204 14.0553C27.7023 14.0435 28.3723 14.2341 28.9458 14.6032C29.3267 14.8476 29.6557 15.1648 29.9139 15.5366C30.1721 15.9083 30.3545 16.3273 30.4507 16.7696C30.5468 17.2119 30.5548 17.6688 30.4742 18.1142C30.3936 18.5596 30.2259 18.9847 29.9808 19.3652Z" fill="url(#paint0_linear_202_7790)"/>
<g style="mix-blend-mode:multiply" opacity="0.4">
<path d="M46.4205 19.128L36.2203 35.2631C36.0114 35.5798 35.6861 35.8013 35.3149 35.8794C34.9437 35.9575 34.5566 35.8861 34.2378 35.6805C34.0782 35.5797 33.94 35.4485 33.8312 35.2943C33.7223 35.1401 33.6449 34.966 33.6035 34.7818C33.562 34.5977 33.5572 34.4072 33.5894 34.2212C33.6217 34.0352 33.6902 33.8574 33.7912 33.698L43.9957 17.5796C44.0968 17.4203 44.2282 17.2825 44.3826 17.174C44.5369 17.0656 44.7111 16.9886 44.8952 16.9476C45.0793 16.9065 45.2697 16.9021 45.4556 16.9346C45.6414 16.9671 45.8189 17.036 45.9781 17.1372C46.1386 17.2383 46.2774 17.3701 46.3865 17.5251C46.4957 17.6802 46.5731 17.8553 46.6142 18.0404C46.6554 18.2255 46.6594 18.4169 46.6262 18.6035C46.5929 18.7902 46.523 18.9685 46.4205 19.128Z" fill="#FB64F3"/>
<path d="M53.0983 23.3522L42.8938 39.4706C42.7935 39.6301 42.6627 39.7682 42.5088 39.877C42.355 39.9858 42.1812 40.0632 41.9974 40.1046C41.8136 40.1461 41.6234 40.1509 41.4378 40.1188C41.2521 40.0866 41.0747 40.0181 40.9155 39.9172C40.7559 39.8165 40.6177 39.6852 40.5089 39.531C40.4 39.3769 40.3227 39.2027 40.2812 39.0186C40.2397 38.8344 40.2349 38.6439 40.2672 38.458C40.2994 38.272 40.368 38.0942 40.469 37.9347L50.6692 21.8163C50.8735 21.4948 51.1967 21.2673 51.5683 21.1836C51.9398 21.0999 52.3294 21.1669 52.6517 21.3697C52.8113 21.4705 52.9495 21.6017 53.0584 21.7559C53.1672 21.9101 53.2446 22.0842 53.2861 22.2684C53.3275 22.4525 53.3323 22.643 53.3001 22.829C53.2679 23.015 53.1993 23.1928 53.0983 23.3522Z" fill="#FB64F3"/>
<path d="M59.7751 27.5803L49.5707 43.6988C49.3664 44.0202 49.0432 44.2477 48.6716 44.3314C48.3001 44.4151 47.9105 44.3482 47.5882 44.1453C47.2676 43.9404 47.0408 43.6172 46.9572 43.246C46.8736 42.8747 46.9398 42.4855 47.1416 42.1629L57.3461 26.0445C57.4468 25.8848 57.578 25.7466 57.7322 25.6378C57.8864 25.5289 58.0606 25.4516 58.2447 25.4101C58.4288 25.3686 58.6193 25.3639 58.8053 25.3961C58.9913 25.4283 59.1691 25.4969 59.3285 25.5979C59.65 25.8021 59.8775 26.1253 59.9612 26.4969C60.0449 26.8684 59.978 27.258 59.7751 27.5803Z" fill="#FB64F3"/>
</g>
</g>
<path d="M7.69922 59.2439V29.0312C7.69913 27.9562 8.12013 26.9239 8.872 26.1556L20.846 13.8727C21.2298 13.4793 21.6884 13.1667 22.1948 12.9533C22.7012 12.7398 23.2452 12.6299 23.7947 12.6299C24.3442 12.6299 24.8882 12.7398 25.3946 12.9533C25.901 13.1667 26.3596 13.4793 26.7433 13.8727L38.7174 26.1556C39.4681 26.9243 39.8876 27.9567 39.886 29.0312V59.2439C39.886 60.2556 39.4841 61.2258 38.7687 61.9412C38.0533 62.6566 37.083 63.0585 36.0713 63.0585H11.5348C11.0321 63.0613 10.5338 62.9646 10.0685 62.7742C9.60331 62.5837 9.18032 62.3031 8.82388 61.9486C8.46744 61.5941 8.18458 61.1727 7.99158 60.7085C7.79857 60.2443 7.69921 59.7466 7.69922 59.2439Z" stroke="#745EFF" stroke-linecap="round" stroke-linejoin="round" stroke-dasharray="8 8"/>
<path d="M39.8108 25.0908L27.8326 12.8079C27.3069 12.2688 26.6786 11.8403 25.9848 11.5477C25.2909 11.2552 24.5456 11.1045 23.7926 11.1045C23.0396 11.1045 22.2942 11.2552 21.6003 11.5477C20.9065 11.8403 20.2782 12.2688 19.7525 12.8079L7.77846 25.0908C6.74735 26.1425 6.17164 27.5578 6.1758 29.0307V59.2433C6.1769 59.9458 6.31641 60.6411 6.58636 61.2896C6.85632 61.9381 7.25142 62.5271 7.7491 63.0228C8.24677 63.5185 8.83726 63.9114 9.48681 64.1788C10.1364 64.4462 10.8323 64.583 11.5347 64.5813H36.0921C37.5079 64.5802 38.8655 64.0176 39.867 63.0169C40.8685 62.0162 41.4321 60.6591 41.4343 59.2433V29.0307C41.4311 27.5552 40.848 26.1401 39.8108 25.0908ZM23.7926 22.7619C23.1107 22.7619 22.4442 22.5597 21.8773 22.1809C21.3104 21.8021 20.8685 21.2637 20.6076 20.6338C20.3467 20.0038 20.2784 19.3107 20.4114 18.642C20.5444 17.9732 20.8728 17.359 21.3549 16.8769C21.837 16.3947 22.4513 16.0664 23.12 15.9334C23.7887 15.8004 24.4819 15.8686 25.1118 16.1295C25.7417 16.3905 26.2801 16.8323 26.659 17.3993C27.0378 17.9662 27.2399 18.6327 27.2399 19.3145C27.2399 20.2288 26.8767 21.1057 26.2302 21.7522C25.5837 22.3987 24.7069 22.7619 23.7926 22.7619Z" fill="#745EFF"/>
<g style="mix-blend-mode:soft-light">
<path d="M23.7935 23.7947C24.2905 23.7978 24.7821 23.6927 25.2344 23.4868C25.6866 23.2809 26.0887 22.9791 26.4127 22.6023C26.7367 22.2255 26.9748 21.7827 27.1107 21.3047C27.2465 20.8267 27.2767 20.3248 27.1992 19.834C27.0747 20.6474 26.6629 21.3894 26.0386 21.9254C25.4142 22.4615 24.6185 22.7562 23.7956 22.7562C22.9727 22.7562 22.177 22.4615 21.5527 21.9254C20.9283 21.3894 20.5166 20.6474 20.392 19.834C20.3101 20.3251 20.337 20.8283 20.4709 21.3079C20.6048 21.7875 20.8423 22.2319 21.1667 22.6097C21.4911 22.9874 21.8945 23.2894 22.3484 23.4941C22.8023 23.6989 23.2956 23.8015 23.7935 23.7947Z" fill="#745EFF"/>
<path d="M39.8128 25.0918L27.8345 12.8089C27.3089 12.2697 26.6806 11.8413 25.9867 11.5487C25.2929 11.2562 24.5475 11.1055 23.7945 11.1055C23.0415 11.1055 22.2961 11.2562 21.6023 11.5487C20.9084 11.8413 20.2802 12.2697 19.7545 12.8089L7.78042 25.0918C6.74931 26.1435 6.17359 27.5588 6.17776 29.0316V30.0583C6.17359 28.5855 6.74931 27.1702 7.78042 26.1185L19.7545 13.8397C20.2796 13.2996 20.9076 12.8702 21.6016 12.577C22.2955 12.2838 23.0412 12.1327 23.7945 12.1327C24.5478 12.1327 25.2935 12.2838 25.9874 12.577C26.6814 12.8702 27.3095 13.2996 27.8345 13.8397L39.8128 26.1185C40.8424 27.1712 41.4178 28.5858 41.4154 30.0583V29.0316C41.4178 27.5591 40.8424 26.1445 39.8128 25.0918Z" fill="#745EFF"/>
<path d="M23.7934 11.1059C24.5467 11.1029 25.293 11.2523 25.9872 11.5449C26.6814 11.8375 27.3094 12.2674 27.8334 12.8087L39.8116 25.0916C40.8412 26.1443 41.4166 27.559 41.4143 29.0315V59.2441C41.4121 60.6599 40.8484 62.017 39.8469 63.0177C38.8454 64.0184 37.4879 64.581 36.0721 64.5822H11.5355C10.1205 64.5799 8.76398 64.0168 7.76339 63.0162C6.76279 62.0156 6.19968 60.6592 6.19748 59.2441V29.0315C6.18773 27.5616 6.75579 26.1467 7.77927 25.0916L19.7533 12.8087C20.2779 12.2681 20.906 11.8388 21.6001 11.5462C22.2942 11.2537 23.0401 11.1039 23.7934 11.1059ZM23.7934 22.7627C24.4752 22.7627 25.1417 22.5605 25.7086 22.1817C26.2755 21.8029 26.7174 21.2645 26.9783 20.6346C27.2393 20.0047 27.3075 19.3115 27.1745 18.6428C27.0415 17.974 26.7132 17.3598 26.231 16.8777C25.7489 16.3955 25.1346 16.0672 24.4659 15.9342C23.7972 15.8012 23.104 15.8694 22.4741 16.1304C21.8442 16.3913 21.3058 16.8331 20.927 17.4001C20.5482 17.967 20.346 18.6335 20.346 19.3153C20.346 20.2296 20.7092 21.1065 21.3557 21.753C22.0022 22.3995 22.8791 22.7627 23.7934 22.7627ZM23.7934 10.6885C22.9862 10.6874 22.1871 10.8487 21.4436 11.1627C20.7001 11.4768 20.0273 11.9372 19.4653 12.5165L7.48712 24.7994C6.3812 25.9301 5.76368 27.4499 5.7676 29.0315V59.2441C5.76981 60.772 6.37861 62.2366 7.46018 63.3158C8.54175 64.395 10.0076 65.0006 11.5355 64.9995H36.0929C37.6194 64.9984 39.0831 64.3918 40.1629 63.3128C41.2426 62.2338 41.8503 60.7706 41.8525 59.2441V29.0315C41.8549 27.4494 41.2359 25.9296 40.1288 24.7994L28.1339 12.5165C27.5702 11.936 26.8953 11.475 26.1496 11.161C25.4039 10.8469 24.6025 10.6862 23.7934 10.6885ZM23.7934 22.3454C23.1941 22.3454 22.6082 22.1677 22.11 21.8347C21.6117 21.5018 21.2233 21.0285 20.994 20.4749C20.7646 19.9212 20.7046 19.312 20.8215 18.7242C20.9385 18.1364 21.227 17.5965 21.6508 17.1728C22.0746 16.749 22.6145 16.4604 23.2022 16.3435C23.79 16.2266 24.3992 16.2866 24.9529 16.5159C25.5066 16.7453 25.9798 17.1336 26.3127 17.6319C26.6457 18.1302 26.8234 18.716 26.8234 19.3153C26.8223 20.1186 26.5027 20.8887 25.9347 21.4567C25.3667 22.0247 24.5966 22.3442 23.7934 22.3454Z" fill="url(#paint1_linear_202_7790)"/>
</g>
<path d="M33.3335 40.5052H14.256C13.8753 40.5052 13.5101 40.354 13.2408 40.0847C12.9716 39.8155 12.8203 39.4503 12.8203 39.0695C12.8203 38.6887 12.9716 38.3236 13.2408 38.0543C13.5101 37.7851 13.8753 37.6338 14.256 37.6338H33.3335C33.7143 37.6338 34.0795 37.7851 34.3487 38.0543C34.618 38.3236 34.7693 38.6887 34.7693 39.0695C34.7693 39.4503 34.618 39.8155 34.3487 40.0847C34.0795 40.354 33.7143 40.5052 33.3335 40.5052Z" fill="white"/>
<path d="M33.3335 48.4066H14.256C13.8753 48.4066 13.5101 48.2553 13.2408 47.9861C12.9716 47.7168 12.8203 47.3516 12.8203 46.9709C12.8203 46.5901 12.9716 46.2249 13.2408 45.9557C13.5101 45.6864 13.8753 45.5352 14.256 45.5352H33.3335C33.7143 45.5352 34.0795 45.6864 34.3487 45.9557C34.618 46.2249 34.7693 46.5901 34.7693 46.9709C34.7693 47.3516 34.618 47.7168 34.3487 47.9861C34.0795 48.2553 33.7143 48.4066 33.3335 48.4066Z" fill="white"/>
<path d="M33.3335 56.3096H14.256C13.876 56.3096 13.5114 56.159 13.2423 55.8906C12.9732 55.6223 12.8214 55.2582 12.8203 54.8781C12.8203 54.4973 12.9716 54.1322 13.2408 53.8629C13.5101 53.5937 13.8753 53.4424 14.256 53.4424H33.3335C33.7143 53.4424 34.0795 53.5937 34.3487 53.8629C34.618 54.1322 34.7693 54.4973 34.7693 54.8781C34.7681 55.2582 34.6164 55.6223 34.3473 55.8906C34.0781 56.159 33.7136 56.3096 33.3335 56.3096Z" fill="white"/>
<g style="mix-blend-mode:overlay">
<g opacity="0.6">
<path style="mix-blend-mode:hard-light" d="M0.132015 32.8714C-0.827912 31.9115 3.55019 25.9725 9.91075 19.6119C16.2713 13.2513 22.2103 8.86907 23.1703 9.83317C24.1302 10.7973 19.7521 16.7279 13.3915 23.0885C7.03097 29.4491 1.10029 33.8313 0.132015 32.8714Z" fill="url(#paint2_radial_202_7790)"/>
<path d="M2.24447 30.7598C1.76034 30.2798 5.58335 25.6764 10.7837 20.4802C15.984 15.2841 20.5791 11.4611 21.0632 11.9411C21.5474 12.421 17.7243 17.0245 12.524 22.2206C7.32374 27.4168 2.72444 31.2398 2.24447 30.7598Z" fill="url(#paint3_radial_202_7790)"/>
</g>
<path d="M15.3398 17.6624C18.1779 20.5046 20.248 23.0422 19.9558 23.3301C19.6637 23.6181 17.1303 21.5522 14.2881 18.71C11.4458 15.8677 9.37991 13.3344 9.67207 13.0422C9.96422 12.7501 12.4976 14.8118 15.3398 17.6624Z" fill="url(#paint4_radial_202_7790)"/>
<path style="mix-blend-mode:hard-light" d="M14.999 18.0056C15.529 18.5398 15.8796 19.049 15.7794 19.1491C15.6793 19.2493 15.1659 18.9029 14.6317 18.3687C14.0975 17.8344 13.7511 17.3253 13.8512 17.2251C13.9514 17.1249 14.4564 17.4755 14.999 18.0056Z" fill="url(#paint5_radial_202_7790)"/>
<path d="M14.2292 17.5999C17.0088 14.8202 19.5255 12.8294 19.8469 13.155C20.1683 13.4805 18.1775 15.993 15.3978 18.7726C12.6182 21.5523 10.1015 23.5472 9.78018 23.2217C9.45882 22.8962 11.4454 20.3836 14.2292 17.5999Z" fill="url(#paint6_radial_202_7790)"/>
<path style="mix-blend-mode:hard-light" d="M14.6111 17.9852C15.1454 17.4551 15.6671 17.1129 15.7797 17.2256C15.8924 17.3383 15.5502 17.86 15.0202 18.3942C14.4901 18.9284 13.9642 19.2623 13.8516 19.1496C13.7389 19.0369 14.0811 18.5194 14.6111 17.9852Z" fill="url(#paint7_radial_202_7790)"/>
<g opacity="0.5">
<path d="M15.3398 17.6634C18.1779 20.5056 20.248 23.0431 19.9558 23.3311C19.6637 23.6191 17.1303 21.5532 14.2881 18.7109C11.4458 15.8687 9.37991 13.3354 9.67207 13.0432C9.96422 12.7511 12.4976 14.8128 15.3398 17.6634Z" fill="url(#paint8_radial_202_7790)"/>
<path style="mix-blend-mode:hard-light" d="M14.999 18.0056C15.529 18.5398 15.8796 19.049 15.7794 19.1491C15.6793 19.2493 15.1659 18.9029 14.6317 18.3687C14.0975 17.8344 13.7511 17.3253 13.8512 17.2251C13.9514 17.1249 14.4564 17.4755 14.999 18.0056Z" fill="url(#paint9_radial_202_7790)"/>
<path d="M14.2292 17.5999C17.0088 14.8202 19.5255 12.8294 19.8469 13.155C20.1683 13.4805 18.1775 15.993 15.3978 18.7726C12.6182 21.5523 10.1015 23.5472 9.78018 23.2217C9.45882 22.8962 11.4454 20.3836 14.2292 17.5999Z" fill="url(#paint10_radial_202_7790)"/>
<path style="mix-blend-mode:hard-light" d="M14.6111 17.9861C15.1454 17.4561 15.6671 17.1139 15.7797 17.2266C15.8924 17.3392 15.5502 17.8609 15.0202 18.3952C14.4901 18.9294 13.9642 19.2633 13.8516 19.1506C13.7389 19.0379 14.0811 18.5204 14.6111 17.9861Z" fill="url(#paint11_radial_202_7790)"/>
</g>
</g>
<defs>
<linearGradient id="paint0_linear_202_7790" x1="21.1966" y1="13.0905" x2="66.9206" y2="43.6151" gradientUnits="userSpaceOnUse">
<stop stop-color="#FB64F3"/>
<stop offset="0.2" stop-color="#D464F5"/>
<stop offset="0.45" stop-color="#AC64F8"/>
<stop offset="0.67" stop-color="#8F64FA"/>
<stop offset="0.86" stop-color="#7D64FB"/>
<stop offset="1" stop-color="#7764FB"/>
</linearGradient>
<linearGradient id="paint1_linear_202_7790" x1="23.7934" y1="64.9995" x2="23.7934" y2="10.6885" gradientUnits="userSpaceOnUse">
<stop stop-color="white" stop-opacity="0.9"/>
<stop offset="0.03" stop-color="white" stop-opacity="0.83"/>
<stop offset="0.11" stop-color="white" stop-opacity="0.68"/>
<stop offset="0.17" stop-color="white" stop-opacity="0.58"/>
<stop offset="0.23" stop-color="white" stop-opacity="0.52"/>
<stop offset="0.28" stop-color="white" stop-opacity="0.5"/>
<stop offset="0.46" stop-color="#FEFEFE" stop-opacity="0.48"/>
<stop offset="0.67" stop-color="#FAFAFA" stop-opacity="0.43"/>
<stop offset="0.89" stop-color="#F3F3F3" stop-opacity="0.35"/>
<stop offset="1" stop-color="#EFEFEF" stop-opacity="0.3"/>
</linearGradient>
<radialGradient id="paint2_radial_202_7790" cx="0" cy="0" r="1" gradientUnits="userSpaceOnUse" gradientTransform="translate(8.33521 28.6153) rotate(135) scale(16.2991 2.46184)">
<stop stop-color="white" stop-opacity="0.6"/>
<stop offset="0.15" stop-color="white" stop-opacity="0.45"/>
<stop offset="0.33" stop-color="white" stop-opacity="0.29"/>
<stop offset="0.52" stop-color="white" stop-opacity="0.16"/>
<stop offset="0.69" stop-color="white" stop-opacity="0.07"/>
<stop offset="0.86" stop-color="white" stop-opacity="0.02"/>
<stop offset="1" stop-color="white" stop-opacity="0"/>
</radialGradient>
<radialGradient id="paint3_radial_202_7790" cx="0" cy="0" r="1" gradientUnits="userSpaceOnUse" gradientTransform="translate(21.849 41.6101) rotate(135) scale(13.3252 1.23831)">
<stop stop-color="white"/>
<stop offset="0.01" stop-color="white" stop-opacity="0.96"/>
<stop offset="0.05" stop-color="white" stop-opacity="0.78"/>
<stop offset="0.09" stop-color="white" stop-opacity="0.61"/>
<stop offset="0.14" stop-color="white" stop-opacity="0.47"/>
<stop offset="0.2" stop-color="white" stop-opacity="0.34"/>
<stop offset="0.25" stop-color="white" stop-opacity="0.23"/>
<stop offset="0.32" stop-color="white" stop-opacity="0.15"/>
<stop offset="0.4" stop-color="white" stop-opacity="0.08"/>
<stop offset="0.49" stop-color="white" stop-opacity="0.03"/>
<stop offset="0.63" stop-color="white" stop-opacity="0.01"/>
<stop offset="1" stop-color="white" stop-opacity="0"/>
</radialGradient>
<radialGradient id="paint4_radial_202_7790" cx="0" cy="0" r="1" gradientUnits="userSpaceOnUse" gradientTransform="translate(36.402 -6.62601) rotate(-45) scale(0.746197 7.2656)">
<stop stop-color="white"/>
<stop offset="0.05" stop-color="white" stop-opacity="0.89"/>
<stop offset="0.15" stop-color="white" stop-opacity="0.69"/>
<stop offset="0.26" stop-color="white" stop-opacity="0.5"/>
<stop offset="0.37" stop-color="white" stop-opacity="0.35"/>
<stop offset="0.48" stop-color="white" stop-opacity="0.22"/>
<stop offset="0.6" stop-color="white" stop-opacity="0.12"/>
<stop offset="0.72" stop-color="white" stop-opacity="0.05"/>
<stop offset="0.85" stop-color="white" stop-opacity="0.01"/>
<stop offset="1" stop-color="white" stop-opacity="0"/>
</radialGradient>
<radialGradient id="paint5_radial_202_7790" cx="0" cy="0" r="1" gradientUnits="userSpaceOnUse" gradientTransform="translate(38.0243 -5.00618) rotate(-45.0001) scale(0.258513 1.36059)">
<stop stop-color="white"/>
<stop offset="0.05" stop-color="white" stop-opacity="0.89"/>
<stop offset="0.15" stop-color="white" stop-opacity="0.69"/>
<stop offset="0.26" stop-color="white" stop-opacity="0.5"/>
<stop offset="0.37" stop-color="white" stop-opacity="0.35"/>
<stop offset="0.48" stop-color="white" stop-opacity="0.22"/>
<stop offset="0.6" stop-color="white" stop-opacity="0.12"/>
<stop offset="0.72" stop-color="white" stop-opacity="0.05"/>
<stop offset="0.85" stop-color="white" stop-opacity="0.01"/>
<stop offset="1" stop-color="white" stop-opacity="0"/>
</radialGradient>
<radialGradient id="paint6_radial_202_7790" cx="0" cy="0" r="1" gradientUnits="userSpaceOnUse" gradientTransform="translate(18.5424 27.381) rotate(-135) scale(0.824744 7.10851)">
<stop stop-color="white"/>
<stop offset="0.05" stop-color="white" stop-opacity="0.89"/>
<stop offset="0.15" stop-color="white" stop-opacity="0.69"/>
<stop offset="0.26" stop-color="white" stop-opacity="0.5"/>
<stop offset="0.37" stop-color="white" stop-opacity="0.35"/>
<stop offset="0.48" stop-color="white" stop-opacity="0.22"/>
<stop offset="0.6" stop-color="white" stop-opacity="0.12"/>
<stop offset="0.72" stop-color="white" stop-opacity="0.05"/>
<stop offset="0.85" stop-color="white" stop-opacity="0.01"/>
<stop offset="1" stop-color="white" stop-opacity="0"/>
</radialGradient>
<radialGradient id="paint7_radial_202_7790" cx="0" cy="0" r="1" gradientUnits="userSpaceOnUse" gradientTransform="translate(21.2907 24.6386) rotate(-135) scale(0.285725 1.36059)">
<stop stop-color="white"/>
<stop offset="0.05" stop-color="white" stop-opacity="0.89"/>
<stop offset="0.15" stop-color="white" stop-opacity="0.69"/>
<stop offset="0.26" stop-color="white" stop-opacity="0.5"/>
<stop offset="0.37" stop-color="white" stop-opacity="0.35"/>
<stop offset="0.48" stop-color="white" stop-opacity="0.22"/>
<stop offset="0.6" stop-color="white" stop-opacity="0.12"/>
<stop offset="0.72" stop-color="white" stop-opacity="0.05"/>
<stop offset="0.85" stop-color="white" stop-opacity="0.01"/>
<stop offset="1" stop-color="white" stop-opacity="0"/>
</radialGradient>
<radialGradient id="paint8_radial_202_7790" cx="0" cy="0" r="1" gradientUnits="userSpaceOnUse" gradientTransform="translate(36.402 -6.62504) rotate(-45) scale(0.746197 7.2656)">
<stop stop-color="white"/>
<stop offset="0.05" stop-color="white" stop-opacity="0.89"/>
<stop offset="0.15" stop-color="white" stop-opacity="0.69"/>
<stop offset="0.26" stop-color="white" stop-opacity="0.5"/>
<stop offset="0.37" stop-color="white" stop-opacity="0.35"/>
<stop offset="0.48" stop-color="white" stop-opacity="0.22"/>
<stop offset="0.6" stop-color="white" stop-opacity="0.12"/>
<stop offset="0.72" stop-color="white" stop-opacity="0.05"/>
<stop offset="0.85" stop-color="white" stop-opacity="0.01"/>
<stop offset="1" stop-color="white" stop-opacity="0"/>
</radialGradient>
<radialGradient id="paint9_radial_202_7790" cx="0" cy="0" r="1" gradientUnits="userSpaceOnUse" gradientTransform="translate(38.0243 -5.00618) rotate(-45.0001) scale(0.258513 1.36059)">
<stop stop-color="white"/>
<stop offset="0.05" stop-color="white" stop-opacity="0.89"/>
<stop offset="0.15" stop-color="white" stop-opacity="0.69"/>
<stop offset="0.26" stop-color="white" stop-opacity="0.5"/>
<stop offset="0.37" stop-color="white" stop-opacity="0.35"/>
<stop offset="0.48" stop-color="white" stop-opacity="0.22"/>
<stop offset="0.6" stop-color="white" stop-opacity="0.12"/>
<stop offset="0.72" stop-color="white" stop-opacity="0.05"/>
<stop offset="0.85" stop-color="white" stop-opacity="0.01"/>
<stop offset="1" stop-color="white" stop-opacity="0"/>
</radialGradient>
<radialGradient id="paint10_radial_202_7790" cx="0" cy="0" r="1" gradientUnits="userSpaceOnUse" gradientTransform="translate(18.5424 27.381) rotate(-135) scale(0.824744 7.10851)">
<stop stop-color="white"/>
<stop offset="0.05" stop-color="white" stop-opacity="0.89"/>
<stop offset="0.15" stop-color="white" stop-opacity="0.69"/>
<stop offset="0.26" stop-color="white" stop-opacity="0.5"/>
<stop offset="0.37" stop-color="white" stop-opacity="0.35"/>
<stop offset="0.48" stop-color="white" stop-opacity="0.22"/>
<stop offset="0.6" stop-color="white" stop-opacity="0.12"/>
<stop offset="0.72" stop-color="white" stop-opacity="0.05"/>
<stop offset="0.85" stop-color="white" stop-opacity="0.01"/>
<stop offset="1" stop-color="white" stop-opacity="0"/>
</radialGradient>
<radialGradient id="paint11_radial_202_7790" cx="0" cy="0" r="1" gradientUnits="userSpaceOnUse" gradientTransform="translate(21.2907 24.6396) rotate(-135) scale(0.285725 1.36059)">
<stop stop-color="white"/>
<stop offset="0.05" stop-color="white" stop-opacity="0.89"/>
<stop offset="0.15" stop-color="white" stop-opacity="0.69"/>
<stop offset="0.26" stop-color="white" stop-opacity="0.5"/>
<stop offset="0.37" stop-color="white" stop-opacity="0.35"/>
<stop offset="0.48" stop-color="white" stop-opacity="0.22"/>
<stop offset="0.6" stop-color="white" stop-opacity="0.12"/>
<stop offset="0.72" stop-color="white" stop-opacity="0.05"/>
<stop offset="0.85" stop-color="white" stop-opacity="0.01"/>
<stop offset="1" stop-color="white" stop-opacity="0"/>
</radialGradient>
</defs>
</svg>
