<svg width="41" height="41" viewBox="0 0 41 41" fill="none" xmlns="http://www.w3.org/2000/svg">
<path d="M36.5377 21.588C36.7459 30.8921 28.5309 39.099 19.2349 38.9069C10.1791 38.9549 2.38854 31.5647 1.93211 22.5169C1.21143 12.8686 9.56254 4.06105 19.2269 4.26924C19.4511 4.26924 19.6273 4.45342 19.6273 4.66962V21.1877H36.1453C36.3615 21.1877 36.5377 21.3638 36.5377 21.588Z" fill="#745EFF"/>
<path d="M38.7249 19.4087C38.7249 19.6249 38.5487 19.801 38.3245 19.801H21.406C21.1898 19.801 21.0137 19.6249 21.0137 19.4087V2.49022C21.0137 2.26601 21.1898 2.08984 21.406 2.08984C30.9583 2.08984 38.7249 9.8564 38.7249 19.4087Z" fill="#F8BC26"/>
</svg>
