<svg width="81" height="69" viewBox="0 0 81 69" fill="none" xmlns="http://www.w3.org/2000/svg">
<path d="M56.4609 58.5477L56.6851 21.8458C56.7166 16.6816 52.5558 12.4695 47.3915 12.438L10.6896 12.2138C5.52539 12.1822 1.31338 16.3431 1.28183 21.5073L1.05763 58.2092C1.02609 63.3735 5.18695 67.5855 10.3512 67.617L47.0531 67.8412C52.2173 67.8728 56.4293 63.7119 56.4609 58.5477Z" fill="#18173A"/>
<g style="mix-blend-mode:lighten" opacity="0.53">
<path d="M56.4609 58.5477L56.6851 21.8458C56.7166 16.6816 52.5558 12.4695 47.3915 12.438L10.6896 12.2138C5.52539 12.1822 1.31338 16.3431 1.28183 21.5073L1.05763 58.2092C1.02609 63.3735 5.18695 67.5855 10.3512 67.617L47.0531 67.8412C52.2173 67.8728 56.4293 63.7119 56.4609 58.5477Z" fill="url(#paint0_linear_109_673)"/>
</g>
<g style="mix-blend-mode:overlay" opacity="0.52">
<path d="M56.4609 58.5477L56.6851 21.8458C56.7166 16.6816 52.5558 12.4695 47.3915 12.438L10.6896 12.2138C5.52539 12.1822 1.31338 16.3431 1.28183 21.5073L1.05763 58.2092C1.02609 63.3735 5.18695 67.5855 10.3512 67.617L47.0531 67.8412C52.2173 67.8728 56.4293 63.7119 56.4609 58.5477Z" stroke="url(#paint1_linear_109_673)" stroke-width="0.75" stroke-miterlimit="10"/>
</g>
<path d="M55.4934 1.03013L36.0089 20.5147C35.5096 21.005 35.1681 21.6333 35.0281 22.3189C34.8881 23.0045 34.9559 23.7163 35.2229 24.3631C35.4898 25.0099 35.9438 25.5624 36.5266 25.9496C37.1095 26.3369 37.7946 26.5414 38.4944 26.5369H45.5513C45.8795 26.5369 46.1942 26.6673 46.4262 26.8993C46.6582 27.1313 46.7886 27.446 46.7886 27.7742V56.5603C46.7886 57.4939 47.1595 58.3893 47.8197 59.0495C48.4798 59.7097 49.3752 60.0806 50.3089 60.0806H65.6381C66.1013 60.0806 66.56 59.9892 66.9878 59.8116C67.4156 59.634 67.8041 59.3737 68.1312 59.0456C68.4582 58.7176 68.7173 58.3282 68.8935 57.8999C69.0698 57.4715 69.1598 57.0126 69.1583 56.5494L69.0762 27.7413C69.0748 27.5787 69.1056 27.4173 69.1668 27.2666C69.2281 27.1159 69.3186 26.9788 69.4331 26.8632C69.5476 26.7477 69.6839 26.656 69.8341 26.5934C69.9843 26.5308 70.1454 26.4986 70.308 26.4986H77.4635C78.1633 26.5031 78.8484 26.2986 79.4313 25.9113C80.0141 25.5241 80.4681 24.9716 80.735 24.3248C81.002 23.678 81.0698 22.9662 80.9298 22.2805C80.7898 21.5949 80.4483 20.9667 79.949 20.4764L60.47 1.03013C59.8099 0.370522 58.9149 0 57.9817 0C57.0485 0 56.1535 0.370522 55.4934 1.03013Z" fill="url(#paint2_linear_109_673)"/>
<defs>
<linearGradient id="paint0_linear_109_673" x1="58.0917" y1="11.1511" x2="1.91492" y2="66.6457" gradientUnits="userSpaceOnUse">
<stop stop-color="white"/>
<stop offset="0.12" stop-color="white" stop-opacity="0.98"/>
<stop offset="0.26" stop-color="white" stop-opacity="0.92"/>
<stop offset="0.41" stop-color="white" stop-opacity="0.83"/>
<stop offset="0.57" stop-color="white" stop-opacity="0.7"/>
<stop offset="0.74" stop-color="white" stop-opacity="0.53"/>
<stop offset="0.9" stop-color="white" stop-opacity="0.33"/>
<stop offset="1" stop-color="white" stop-opacity="0.2"/>
</linearGradient>
<linearGradient id="paint1_linear_109_673" x1="0.859653" y1="40.0207" x2="56.899" y2="40.0207" gradientUnits="userSpaceOnUse">
<stop stop-color="#BBBBBB"/>
<stop offset="1" stop-color="white" stop-opacity="0.8"/>
</linearGradient>
<linearGradient id="paint2_linear_109_673" x1="34.9687" y1="30.0517" x2="80.9947" y2="30.0517" gradientUnits="userSpaceOnUse">
<stop stop-color="#F6EFF0"/>
<stop offset="0.04" stop-color="#F6E4E2"/>
<stop offset="0.4" stop-color="#F87C59"/>
<stop offset="1" stop-color="#CF5E32"/>
</linearGradient>
</defs>
</svg>
