<svg width="70" height="70" viewBox="0 0 70 70" fill="none" xmlns="http://www.w3.org/2000/svg">
<g clip-path="url(#clip0_202_10509)">
<path d="M34.5197 63.7221C50.1176 63.7221 62.7621 51.0775 62.7621 35.4797C62.7621 19.8819 50.1176 7.2373 34.5197 7.2373C18.9219 7.2373 6.27734 19.8819 6.27734 35.4797C6.27734 51.0775 18.9219 63.7221 34.5197 63.7221Z" fill="url(#paint0_linear_202_10509)"/>
<path d="M53.9019 7.59473L38.1203 23.377L33.5625 35.4444C33.4595 35.7324 33.5345 36.0158 33.7063 36.2136L58.1459 60.645C64.8503 54.3479 69.0392 45.4038 69.0392 35.4801C69.0393 23.6004 63.0378 13.8054 53.9019 7.59473Z" fill="url(#paint1_linear_202_10509)"/>
<path d="M34.52 0.959961C15.4555 0.959961 0 16.4156 0 35.48C0 54.5444 15.4555 70 34.52 70C53.5846 70 69.04 54.5445 69.04 35.48C69.04 16.4154 53.5844 0.959961 34.52 0.959961ZM34.52 61.8631C19.9493 61.8631 8.13688 50.0507 8.13688 35.48C8.13688 20.9093 19.9493 9.09684 34.52 9.09684C49.0907 9.09684 60.9032 20.9093 60.9032 35.48C60.9032 50.0507 49.0907 61.8631 34.52 61.8631Z" fill="url(#paint2_linear_202_10509)"/>
<path d="M34.5191 17.3906C24.5291 17.3906 16.4297 25.49 16.4297 35.48C16.4297 45.47 24.5291 53.5694 34.5191 53.5694C44.509 53.5694 52.6084 45.47 52.6084 35.48C52.6084 25.49 44.509 17.3906 34.5191 17.3906ZM34.5191 44.8751C29.3297 44.8751 25.1241 40.6695 25.1241 35.4801C25.1241 30.2908 29.3297 26.0852 34.5191 26.0852C39.7084 26.0852 43.914 30.2908 43.914 35.4801C43.914 40.6695 39.7084 44.8751 34.5191 44.8751Z" fill="url(#paint3_linear_202_10509)"/>
<path d="M34.5195 39.0604C36.4967 39.0604 38.0995 37.4576 38.0995 35.4804C38.0995 33.5032 36.4967 31.9004 34.5195 31.9004C32.5423 31.9004 30.9395 33.5032 30.9395 35.4804C30.9395 37.4576 32.5423 39.0604 34.5195 39.0604Z" fill="url(#paint4_linear_202_10509)"/>
<path d="M63.5469 16.7903C60.613 13.0636 57.241 9.86204 53.903 7.59473L48.4375 13.0602C55.9215 17.7177 60.9029 26.0165 60.9029 35.4797C60.9029 43.158 57.6229 50.0692 52.3876 54.8885L58.1462 60.6455C64.8511 54.3498 69.0397 45.4031 69.0397 35.4796C69.0397 28.5924 67.0229 22.1757 63.5469 16.7903Z" fill="url(#paint5_linear_202_10509)"/>
<path d="M42.3345 19.1641C40.9301 20.5685 39.5253 21.9727 38.1203 23.3766L36.9746 26.4111C40.9739 27.4886 43.9148 31.1401 43.9148 35.4805C43.9148 38.469 42.5203 41.1302 40.3467 42.8519L46.5145 49.0181C50.2531 45.7074 52.609 40.8693 52.609 35.4805C52.6093 28.2897 48.4121 22.0774 42.3345 19.1641Z" fill="url(#paint6_linear_202_10509)"/>
<path d="M34.8938 31.9199L33.5624 35.4437C33.4601 35.7318 33.5334 36.0148 33.7056 36.2126L36.1571 38.6641C37.3112 38.0691 38.0988 36.8673 38.0988 35.4796C38.0988 33.6282 36.694 32.1058 34.8938 31.9199Z" fill="url(#paint7_linear_202_10509)"/>
<path d="M38.1213 22.6948L34.5448 32.6993L34.102 35.4802C33.8815 36.097 37.3009 35.4553 37.3009 35.4553L47.3054 31.8789C49.8491 29.3351 40.665 20.151 38.1213 22.6948Z" fill="url(#paint8_linear_202_10509)"/>
<path d="M69.4805 9.70461L47.3048 31.8787C47.0534 31.4429 46.6713 31.0574 46.1818 30.7841C45.513 30.4136 44.4671 30.6165 43.7429 30.8361C43.5854 30.883 43.4412 30.801 43.3825 30.6752C43.3628 30.6351 43.3523 30.5912 43.3518 30.5465C43.3512 30.5019 43.3606 30.4576 43.3792 30.4171C43.3808 30.4171 43.3808 30.4154 43.3808 30.4154C43.4211 30.3232 43.4563 30.2293 43.4864 30.1356L43.5266 29.9998C43.5283 29.9965 43.5282 29.9947 43.5282 29.9914C43.5668 29.8457 43.5936 29.6998 43.6087 29.5506C43.6138 29.502 43.6171 29.4517 43.6205 29.403C43.6558 28.7408 43.4603 28.0868 43.0674 27.5526C42.9806 27.4341 42.8848 27.3226 42.7808 27.219C42.4962 26.9335 42.1546 26.7111 41.7783 26.5664C41.4019 26.4217 40.9994 26.358 40.5968 26.3793C40.5482 26.3826 40.4978 26.386 40.4492 26.391C40.3 26.4061 40.1525 26.4328 40.0083 26.4714C40.0051 26.4714 40.0033 26.4714 40 26.473L39.8642 26.5133C39.8156 26.5284 39.7687 26.5451 39.7218 26.5635C39.6765 26.5802 39.6312 26.5986 39.586 26.6188C39.5844 26.6188 39.5844 26.6188 39.5827 26.6205C39.5421 26.639 39.4979 26.6484 39.4533 26.6478C39.4086 26.6472 39.3647 26.6368 39.3245 26.6172C39.2586 26.5868 39.2059 26.5335 39.1763 26.4672C39.1467 26.4009 39.1422 26.3261 39.1637 26.2567C39.3833 25.5326 39.586 24.4883 39.2157 23.8196C38.9424 23.3285 38.5587 22.9463 38.1211 22.695L60.2952 0.519235C60.9891 -0.173078 62.1122 -0.173078 62.8045 0.519235L64.1136 1.82837L68.1717 5.88645L69.4808 7.19559C70.1729 7.88763 70.1729 9.01079 69.4805 9.70461Z" fill="url(#paint9_linear_202_10509)"/>
<path d="M68.1709 5.8862L43.382 30.6751C43.3624 30.635 43.3519 30.5911 43.3513 30.5464C43.3507 30.5018 43.3601 30.4575 43.3787 30.4169C43.3804 30.4169 43.3804 30.4153 43.3804 30.4153C43.4206 30.3231 43.5949 29.6979 43.6084 29.5503C43.6151 29.5001 43.6184 29.4515 43.6202 29.4028C43.6415 29.0002 43.5777 28.5976 43.433 28.2213C43.2884 27.845 43.066 27.5034 42.7804 27.2188C42.4958 26.9332 42.1542 26.7108 41.7779 26.5662C41.4016 26.4215 40.999 26.3577 40.5964 26.379C40.5478 26.3807 40.4993 26.3841 40.4489 26.3907C40.2998 26.4044 40.1523 26.4313 40.008 26.4711C40.0047 26.4711 40.0029 26.4711 39.9997 26.4728C39.9544 26.4845 39.6308 26.5985 39.5857 26.6186C39.584 26.6186 39.584 26.6186 39.5824 26.6202C39.5418 26.6388 39.4976 26.6481 39.4529 26.6475C39.4083 26.647 39.3643 26.6365 39.3242 26.6169L64.1129 1.82812L68.1709 5.8862Z" fill="url(#paint10_linear_202_10509)"/>
<path d="M36.1362 33.863C35.6688 33.395 35.1317 33.0024 34.5439 32.6992L33.5625 35.4445C33.3419 36.0613 33.9378 36.6571 34.5546 36.4365L37.2998 35.4552C36.9967 34.8674 36.6041 34.3303 36.1362 33.863Z" fill="url(#paint11_linear_202_10509)"/>
</g>
<defs>
<linearGradient id="paint0_linear_202_10509" x1="23.2223" y1="24.1822" x2="61.2665" y2="62.2264" gradientUnits="userSpaceOnUse">
<stop stop-color="white"/>
<stop offset="1" stop-color="#C7E9FF"/>
</linearGradient>
<linearGradient id="paint1_linear_202_10509" x1="57.6833" y1="37.7918" x2="48.0228" y2="25.8583" gradientUnits="userSpaceOnUse">
<stop stop-color="#7ACBFF" stop-opacity="0"/>
<stop offset="1" stop-color="#2F73A0"/>
</linearGradient>
<linearGradient id="paint2_linear_202_10509" x1="20.7115" y1="21.6715" x2="67.2117" y2="68.1716" gradientUnits="userSpaceOnUse">
<stop stop-color="#FF4181"/>
<stop offset="1" stop-color="#843561"/>
</linearGradient>
<linearGradient id="paint3_linear_202_10509" x1="27.2831" y1="28.2441" x2="51.6501" y2="52.6112" gradientUnits="userSpaceOnUse">
<stop stop-color="#FF4181"/>
<stop offset="1" stop-color="#843561"/>
</linearGradient>
<linearGradient id="paint4_linear_202_10509" x1="33.0874" y1="34.0483" x2="37.9101" y2="38.871" gradientUnits="userSpaceOnUse">
<stop stop-color="#FF4181"/>
<stop offset="1" stop-color="#843561"/>
</linearGradient>
<linearGradient id="paint5_linear_202_10509" x1="62.0982" y1="39.7236" x2="49.426" y2="27.0513" gradientUnits="userSpaceOnUse">
<stop stop-color="#843561" stop-opacity="0"/>
<stop offset="1" stop-color="#3A2F4D"/>
</linearGradient>
<linearGradient id="paint6_linear_202_10509" x1="56.4402" y1="45.3825" x2="43.768" y2="32.7103" gradientUnits="userSpaceOnUse">
<stop stop-color="#843561" stop-opacity="0"/>
<stop offset="1" stop-color="#3A2F4D"/>
</linearGradient>
<linearGradient id="paint7_linear_202_10509" x1="51.3092" y1="50.5115" x2="38.6368" y2="37.8393" gradientUnits="userSpaceOnUse">
<stop stop-color="#843561" stop-opacity="0"/>
<stop offset="1" stop-color="#3A2F4D"/>
</linearGradient>
<linearGradient id="paint8_linear_202_10509" x1="34.8689" y1="25.9377" x2="44.0531" y2="35.122" gradientUnits="userSpaceOnUse">
<stop stop-color="#FFE0EA"/>
<stop offset="1" stop-color="#FFC0D5"/>
</linearGradient>
<linearGradient id="paint9_linear_202_10509" x1="38.1211" y1="15.9394" x2="69.9998" y2="15.9394" gradientUnits="userSpaceOnUse">
<stop stop-color="#FFCE47"/>
<stop offset="1" stop-color="#FF9356"/>
</linearGradient>
<linearGradient id="paint10_linear_202_10509" x1="57.5581" y1="20.0624" x2="48.2867" y2="10.791" gradientUnits="userSpaceOnUse">
<stop stop-color="#FFCE47"/>
<stop offset="1" stop-color="#FF9356"/>
</linearGradient>
<linearGradient id="paint11_linear_202_10509" x1="34.6864" y1="34.7489" x2="37.0297" y2="37.0923" gradientUnits="userSpaceOnUse">
<stop stop-color="#2F73A0"/>
<stop offset="1" stop-color="#174461"/>
</linearGradient>
<clipPath id="clip0_202_10509">
<rect width="70" height="70" fill="white"/>
</clipPath>
</defs>
</svg>
