<svg width="70" height="70" viewBox="0 0 70 70" fill="none" xmlns="http://www.w3.org/2000/svg">
<path d="M41.9918 16.632C41.945 16.2255 41.2442 16.0995 40.9552 16.4437C40.5122 16.9716 39.9571 17.6824 39.3583 18.5668C39.0656 18.9988 38.2616 19.0175 37.936 18.5991C34.2855 13.9085 29.9147 7.50195 25.2168 7.50195C17.732 7.50195 11.0769 19.0259 6.84368 27.9754C6.26968 29.1889 3.98 29.1821 3.45321 27.9562L3.42933 27.9001C3.20465 27.3633 2.18539 27.3894 1.99227 27.9332C0.242685 32.8598 -2.76196 44.9687 5.59219 54.2555C9.68774 59.2045 16.9433 62.4972 25.2169 62.4972C31.8098 62.4972 37.7546 60.4045 41.9719 57.0514C43.8768 55.3107 50.6958 50.4239 50.6958 39.8026C50.6957 26.0882 42.6527 22.378 41.9918 16.632Z" fill="url(#paint0_linear_202_10491)"/>
<path d="M40.9552 16.4437C40.5122 16.9716 39.9571 17.6824 39.3582 18.5668C39.0656 18.9988 38.2616 19.0175 37.936 18.5991C34.2854 13.9085 29.9147 7.50195 25.2167 7.50195C17.732 7.50195 11.0767 19.0259 6.84367 27.9754C6.26967 29.1889 3.97998 29.1821 3.4532 27.9562C3.4452 27.9375 3.43728 27.9188 3.42945 27.9001C3.20476 27.3633 2.18551 27.3894 1.99239 27.9332C0.242666 32.8598 -2.76198 44.9687 5.59218 54.2555C9.68772 59.2045 16.9433 62.4972 25.2169 62.4972C31.8098 62.4972 37.7546 60.4045 41.9719 57.0514C43.8768 55.3107 50.6958 50.4239 50.6958 39.8026C50.6958 26.0882 42.6528 22.3779 41.9919 16.632C41.9451 16.2256 41.2443 16.0995 40.9552 16.4437Z" fill="url(#paint1_linear_202_10491)"/>
<path d="M46.7144 12.4076C46.7137 12.3959 46.7092 12.3847 46.7017 12.3756C46.6941 12.3666 46.6839 12.3601 46.6724 12.3573C46.661 12.3545 46.649 12.3554 46.6381 12.3599C46.6272 12.3644 46.618 12.3723 46.6119 12.3824C46.555 12.4747 46.5023 12.5696 46.4541 12.6668C46.4478 12.6799 46.438 12.691 46.4259 12.6989C46.4137 12.7068 46.3996 12.7113 46.3851 12.7117C46.3706 12.7122 46.3563 12.7086 46.3436 12.7015C46.331 12.6943 46.3206 12.6838 46.3135 12.6712C45.9527 12.0428 45.5206 11.1846 45.0563 11.1846C44.3163 11.1846 43.5902 12.6889 43.2401 13.9273C42.3575 17.0491 44.2385 18.5521 45.0563 18.5521C45.7079 18.5521 46.2957 18.2717 46.7125 17.8225C46.9008 17.5893 47.5749 16.9346 47.5749 15.5117C47.5747 13.6745 46.7796 13.1775 46.7144 12.4076Z" fill="url(#paint2_linear_202_10491)"/>
<path d="M25.3632 17.9521C17.1793 17.9521 10.5449 36.3712 10.5449 43.6158C10.5449 50.8604 17.1793 56.7334 25.3632 56.7334C33.5472 56.7334 40.1816 50.8605 40.1816 43.6158C40.1816 36.3711 33.5472 17.9521 25.3632 17.9521Z" fill="url(#paint3_linear_202_10491)"/>
<path d="M36.1264 47.2055C36.1264 52.4677 31.3075 56.7335 25.363 56.7335C19.4185 56.7335 14.5996 52.4677 14.5996 47.2055C14.5996 41.9432 19.4185 28.5645 25.363 28.5645C31.3075 28.5645 36.1264 41.9434 36.1264 47.2055Z" fill="url(#paint4_linear_202_10491)"/>
<path d="M5.22785 22.0342C4.34695 22.0342 3.63281 24.6822 3.63281 25.7239C3.63281 26.7655 4.34695 27.6097 5.22785 27.6097C6.10875 27.6097 6.82289 26.7654 6.82289 25.7239C6.82289 24.6824 6.10875 22.0342 5.22785 22.0342Z" fill="url(#paint5_linear_202_10491)"/>
<path d="M41.081 14.8682C42.0524 14.8682 42.8398 14.0807 42.8398 13.1094C42.8398 12.138 42.0524 11.3506 41.081 11.3506C40.1097 11.3506 39.3223 12.138 39.3223 13.1094C39.3223 14.0807 40.1097 14.8682 41.081 14.8682Z" fill="url(#paint6_linear_202_10491)"/>
<path d="M28.5009 37.5915L23.845 50.6154L23.6375 54.3851C23.3505 55.1882 27.4327 54.2033 27.4327 54.2033L40.4567 49.5475C43.7681 46.236 31.8121 34.28 28.5009 37.5915Z" fill="url(#paint7_linear_202_10491)"/>
<path d="M69.3239 20.6814L40.4553 49.5476C40.128 48.9804 39.6306 48.4784 38.9933 48.1228C38.1227 47.6406 36.7611 47.9045 35.8184 48.1905C35.6134 48.2515 35.4256 48.1446 35.3493 47.981C35.3237 47.9288 35.3101 47.8716 35.3093 47.8135C35.3086 47.7554 35.3207 47.6978 35.3449 47.645C35.3471 47.645 35.3471 47.6428 35.3471 47.6428C35.3995 47.5228 35.4454 47.4005 35.4846 47.2784L35.5371 47.1016C35.5393 47.0972 35.5393 47.095 35.5393 47.0908C35.5895 46.9009 35.6244 46.7111 35.644 46.5169C35.6506 46.4536 35.655 46.3882 35.6592 46.3249C35.6647 46.2195 35.6657 46.1141 35.6622 46.0086C35.6386 45.254 35.3864 44.5242 34.9392 43.9159C34.8263 43.7617 34.7016 43.6165 34.5661 43.4816C34.4313 43.3461 34.2861 43.2214 34.1318 43.1085C33.4362 42.5972 32.585 42.3428 31.7229 42.3884C31.6596 42.3928 31.5941 42.3972 31.5309 42.4036C31.3371 42.4231 31.1452 42.4581 30.957 42.5084C30.9526 42.5084 30.9504 42.5084 30.946 42.5106L30.7692 42.563C30.7066 42.5825 30.6448 42.6044 30.5838 42.6285C30.5249 42.6503 30.4659 42.6743 30.407 42.7005C30.4048 42.7005 30.4048 42.7005 30.4026 42.7027C30.3498 42.7269 30.2922 42.7391 30.2341 42.7384C30.176 42.7376 30.1188 42.7239 30.0666 42.6983C29.903 42.622 29.7961 42.4343 29.8572 42.2292C30.1431 41.2865 30.407 39.9272 29.9248 39.0566C29.5691 38.4172 29.0695 37.9197 28.5 37.5925L57.3662 8.72376C58.2696 7.82255 59.7315 7.82255 60.6327 8.72376L62.3369 10.4279L67.6196 15.7107L69.3237 17.4149C70.2249 18.316 70.2249 19.778 69.3239 20.6814Z" fill="url(#paint8_linear_202_10491)"/>
<path d="M67.6196 15.7104L35.3492 47.9808C35.3237 47.9286 35.31 47.8714 35.3092 47.8133C35.3085 47.7552 35.3206 47.6977 35.3448 47.6448C35.347 47.6448 35.347 47.6426 35.347 47.6426C35.3994 47.5227 35.6263 46.7087 35.6438 46.5167C35.652 46.453 35.6571 46.3889 35.659 46.3247C35.7046 45.4626 35.4501 44.6114 34.939 43.9157C34.8261 43.7615 34.7013 43.6163 34.5659 43.4815C34.4311 43.3459 34.2859 43.2212 34.1316 43.1083C33.436 42.5971 32.5847 42.3426 31.7227 42.3882C31.6594 42.3904 31.5961 42.3948 31.5306 42.4035C31.3366 42.4212 31.1446 42.4563 30.9568 42.5082C30.9524 42.5082 30.9502 42.5082 30.9458 42.5104C30.8869 42.5256 30.4658 42.674 30.4068 42.7002C30.4046 42.7002 30.4046 42.7002 30.4024 42.7024C30.3496 42.7266 30.292 42.7388 30.2339 42.738C30.1758 42.7373 30.1186 42.7236 30.0664 42.698L62.3368 10.4277L67.6196 15.7104Z" fill="url(#paint9_linear_202_10491)"/>
<path d="M25.9173 52.1312C25.3089 51.522 24.6096 51.011 23.8445 50.6162L22.5669 54.1901C22.2797 54.9931 23.0554 55.7686 23.8585 55.4816L27.4323 54.2041C27.0377 53.4388 26.5266 52.7396 25.9173 52.1312Z" fill="url(#paint10_linear_202_10491)"/>
<defs>
<linearGradient id="paint0_linear_202_10491" x1="29.9136" y1="40.2604" x2="45.1481" y2="51.5834" gradientUnits="userSpaceOnUse">
<stop stop-color="#FF9356" stop-opacity="0"/>
<stop offset="1" stop-color="#FF755C"/>
</linearGradient>
<linearGradient id="paint1_linear_202_10491" x1="8.65351" y1="17.3606" x2="39.029" y2="53.5728" gradientUnits="userSpaceOnUse">
<stop stop-color="#FF755C"/>
<stop offset="1" stop-color="#FF4181"/>
</linearGradient>
<linearGradient id="paint2_linear_202_10491" x1="43.0096" y1="14.8684" x2="47.5747" y2="14.8684" gradientUnits="userSpaceOnUse">
<stop stop-color="#FF755C"/>
<stop offset="1" stop-color="#FF4181"/>
</linearGradient>
<linearGradient id="paint3_linear_202_10491" x1="28.7099" y1="44.7575" x2="4.8288" y2="12.4356" gradientUnits="userSpaceOnUse">
<stop stop-color="#FF755C" stop-opacity="0"/>
<stop offset="1" stop-color="#FFCE47"/>
</linearGradient>
<linearGradient id="paint4_linear_202_10491" x1="21.2588" y1="36.4266" x2="30.5921" y2="58.3873" gradientUnits="userSpaceOnUse">
<stop stop-color="#843561" stop-opacity="0"/>
<stop offset="1" stop-color="#3A2F4D"/>
</linearGradient>
<linearGradient id="paint5_linear_202_10491" x1="3.63281" y1="24.822" x2="6.82289" y2="24.822" gradientUnits="userSpaceOnUse">
<stop stop-color="#FF755C"/>
<stop offset="1" stop-color="#FF4181"/>
</linearGradient>
<linearGradient id="paint6_linear_202_10491" x1="39.3223" y1="13.1094" x2="42.8398" y2="13.1094" gradientUnits="userSpaceOnUse">
<stop stop-color="#FF755C"/>
<stop offset="1" stop-color="#FF4181"/>
</linearGradient>
<linearGradient id="paint7_linear_202_10491" x1="24.2817" y1="41.7559" x2="36.2378" y2="53.712" gradientUnits="userSpaceOnUse">
<stop stop-color="#FFE0EA"/>
<stop offset="1" stop-color="#FFC0D5"/>
</linearGradient>
<linearGradient id="paint8_linear_202_10491" x1="28.4999" y1="28.7977" x2="69.9997" y2="28.7977" gradientUnits="userSpaceOnUse">
<stop stop-color="#FFCE47"/>
<stop offset="1" stop-color="#FF9356"/>
</linearGradient>
<linearGradient id="paint9_linear_202_10491" x1="53.8038" y1="34.165" x2="41.7343" y2="22.0955" gradientUnits="userSpaceOnUse">
<stop stop-color="#FFCE47"/>
<stop offset="1" stop-color="#FF9356"/>
</linearGradient>
<linearGradient id="paint10_linear_202_10491" x1="23.9916" y1="53.2806" x2="27.0423" y2="56.3313" gradientUnits="userSpaceOnUse">
<stop stop-color="#2F73A0"/>
<stop offset="1" stop-color="#174461"/>
</linearGradient>
</defs>
</svg>
