<svg width="70" height="70" viewBox="0 0 70 70" fill="none" xmlns="http://www.w3.org/2000/svg">
<g clip-path="url(#clip0_202_10523)">
<path d="M4.91797 37.0148L10.3813 69.9197L20.6935 63.9779V37.0146L4.91797 37.0148Z" fill="#FF9A27"/>
<path d="M0.0683594 37.0146V63.9778L10.3805 69.9197V37.0146H0.0683594Z" fill="#FFB820"/>
<path d="M10.3122 31.0732L6.21484 37.0146L10.3122 42.956L20.6243 37.0146L10.3122 31.0732Z" fill="#FFB820"/>
<path d="M0 37.0146L10.3121 42.956V31.0732L0 37.0146Z" fill="#FFD06A"/>
<path d="M54.2246 17.8242L59.688 69.9195L70.0002 63.9773V17.8242H54.2246Z" fill="#2B1D73"/>
<path d="M49.375 17.8242V63.9776L59.6871 69.9195V17.8242H49.375Z" fill="#3840A3"/>
<path d="M59.6876 11.8828L55.5898 17.8242L59.6876 23.7661L69.9997 17.8243L59.6876 11.8828Z" fill="#3A6FD8"/>
<path d="M49.375 17.8242L59.6871 23.7661V11.8828L49.375 17.8242Z" fill="#3B88F5"/>
<path d="M29.5703 5.94154L35.0336 69.9195L45.3457 63.9777V5.94141L29.5703 5.94154Z" fill="#2DB94D"/>
<path d="M24.7227 5.94141V63.9774L35.0348 69.9194V5.94141H24.7227Z" fill="#62D15B"/>
<path d="M35.0334 0L30.9355 5.94139L35.0334 11.8828L45.3456 5.94139L35.0334 0Z" fill="#62D15B"/>
<path d="M24.7227 5.94139L35.0348 11.8828V0L24.7227 5.94139Z" fill="#94E368"/>
</g>
<defs>
<clipPath id="clip0_202_10523">
<rect width="70" height="70" fill="white"/>
</clipPath>
</defs>
</svg>
