<svg width="80" height="70" viewBox="0 0 80 70" fill="none" xmlns="http://www.w3.org/2000/svg">
<mask id="mask0_109_597" style="mask-type:luminance" maskUnits="userSpaceOnUse" x="23" y="0" width="57" height="44">
<path d="M23.2754 0V19.0783C24.7398 18.3167 26.3943 17.9978 28.0369 18.1605C29.6795 18.3232 31.2392 18.9605 32.5258 19.9947C33.8123 21.0288 34.77 22.4151 35.282 23.9843C35.7941 25.5535 35.8383 27.2379 35.4093 28.8318C38.5206 30.618 41.0708 33.2381 42.7723 36.3966L48.5669 31.7115L44.3104 23.7029C44.1974 23.4902 44.1735 23.2414 44.244 23.0111C44.3144 22.7808 44.4735 22.5879 44.6862 22.4749C44.8988 22.3619 45.1477 22.338 45.378 22.4084C45.6083 22.4789 45.8012 22.6379 45.9142 22.8506L50.5186 31.5198C50.6188 31.7054 50.6504 31.9203 50.608 32.1268C50.5656 32.3334 50.4518 32.5184 50.2866 32.6495L43.6044 38.0911C44.3977 39.9113 44.9357 41.8324 45.2031 43.7999H80.001V0H23.2754Z" fill="white"/>
</mask>
<g mask="url(#mask0_109_597)">
<path d="M39.7459 40.5561C38.7817 40.5572 37.8354 40.2957 37.0085 39.7997C36.1817 39.3037 35.5054 38.592 35.0524 37.7408C34.5993 36.8897 34.3866 35.9313 34.4369 34.9684C34.4873 34.0055 34.7988 33.0745 35.3382 32.2752L49.0253 11.9361C49.5124 11.2143 50.1693 10.623 50.9383 10.2143C51.7072 9.80555 52.5647 9.5918 53.4356 9.5918C54.3064 9.5918 55.1639 9.80555 55.9329 10.2143C56.7018 10.623 57.3587 11.2143 57.8458 11.9361L71.533 32.2752C72.0723 33.0745 72.3839 34.0055 72.4342 34.9684C72.4846 35.9313 72.2718 36.8897 71.8187 37.7408C71.3657 38.592 70.6895 39.3037 69.8626 39.7997C69.0358 40.2957 68.0895 40.5572 67.1253 40.5561H39.7459Z" fill="url(#paint0_linear_109_597)"/>
<g style="mix-blend-mode:multiply">
<path d="M67.1252 38.8965H39.7458C39.0839 38.8947 38.435 38.7132 37.8681 38.3715C37.3013 38.0297 36.8378 37.5405 36.5272 36.9561C36.2166 36.3716 36.0705 35.7138 36.1044 35.0527C36.1384 34.3917 36.3511 33.7523 36.7199 33.2027L50.4121 12.8636C50.7472 12.3696 51.1982 11.9651 51.7257 11.6855C52.2531 11.4059 52.841 11.2598 53.438 11.2598C54.035 11.2598 54.6229 11.4059 55.1504 11.6855C55.6778 11.9651 56.1288 12.3696 56.4639 12.8636L70.1511 33.2027C70.5199 33.7523 70.7326 34.3917 70.7666 35.0527C70.8005 35.7138 70.6544 36.3716 70.3438 36.9561C70.0331 37.5405 69.5697 38.0297 69.0029 38.3715C68.436 38.7132 67.7871 38.8947 67.1252 38.8965Z" stroke="#FF498B" stroke-linecap="round" stroke-linejoin="round"/>
</g>
<g style="mix-blend-mode:multiply">
<path d="M53.4478 35.7706C51.5868 35.7706 50.4219 34.6358 50.4219 33.1985C50.4219 31.7612 51.5818 30.5811 53.4478 30.5811C55.3137 30.5811 56.4434 31.736 56.4434 33.1985C56.4434 34.6611 55.2885 35.7706 53.4478 35.7706ZM50.5933 17.7715H56.3022L55.7071 28.9522H51.2288L50.5933 17.7715Z" fill="#FF498B"/>
</g>
</g>
<path d="M52.9428 44.7529H45.2973C45.0903 42.4563 44.5183 40.2074 43.6028 38.0909L50.3002 32.6746C50.4654 32.5435 50.5791 32.3584 50.6216 32.1519C50.664 31.9453 50.6323 31.7304 50.5322 31.5449L45.9277 22.8757C45.8147 22.663 45.6218 22.5039 45.3915 22.4335C45.1613 22.363 44.9124 22.3869 44.6997 22.4999C44.4871 22.613 44.328 22.8058 44.2575 23.0361C44.1871 23.2664 44.211 23.5153 44.324 23.728L48.5804 31.7365L42.7858 36.4216C41.0844 33.2632 38.5341 30.6431 35.4228 28.8569C35.6156 28.1449 35.7139 27.4108 35.7153 26.6732C35.6612 24.448 34.7392 22.3321 33.1463 20.7775C31.5533 19.2228 29.4157 18.3525 27.1898 18.3525C24.964 18.3525 22.8263 19.2228 21.2334 20.7775C19.6405 22.3321 18.7185 24.448 18.6644 26.6732C18.6683 27.4106 18.7666 28.1444 18.9569 28.8569C15.8471 30.6434 13.2985 33.2635 11.5989 36.4216L5.77906 31.7365L10.0355 23.728C10.1485 23.5153 10.1724 23.2664 10.102 23.0361C10.0315 22.8058 9.87245 22.613 9.65978 22.4999C9.44711 22.3869 9.19826 22.363 8.96796 22.4335C8.73766 22.5039 8.54479 22.663 8.43177 22.8757L3.82735 31.5449C3.72762 31.7301 3.69572 31.9444 3.73715 32.1506C3.77859 32.3569 3.89076 32.5422 4.0543 32.6746L10.7567 38.0909C9.8364 40.2069 9.25765 42.4556 9.04199 44.7529H1.41167C1.17092 44.7529 0.940025 44.8486 0.769785 45.0188C0.599545 45.1891 0.503906 45.42 0.503906 45.6607C0.503906 45.9015 0.599545 46.1324 0.769785 46.3026C0.940025 46.4728 1.17092 46.5685 1.41167 46.5685H8.97643C8.97643 46.6794 8.97643 46.7853 8.97643 46.8963C8.97341 49.246 9.34279 51.5814 10.0708 53.8155L4.06438 58.6418C3.90045 58.775 3.7881 58.9612 3.74667 59.1683C3.70525 59.3755 3.73735 59.5905 3.83744 59.7765L8.44185 68.4407C8.51613 68.5904 8.6303 68.7168 8.77179 68.8058C8.91328 68.8947 9.07659 68.9429 9.24372 68.945C9.39137 68.9441 9.53664 68.9078 9.66735 68.8391C9.88019 68.7256 10.0394 68.5325 10.1103 68.3019C10.1812 68.0713 10.1579 67.8221 10.0456 67.6086L5.77906 59.5849L10.7012 55.6008C13.6363 62.4192 19.905 67.1295 27.1671 67.1295C34.4293 67.1295 40.698 62.4192 43.6281 55.6008L48.5552 59.5849L44.3089 67.5783C44.1961 67.7912 44.1721 68.04 44.242 68.2705C44.3119 68.5009 44.4701 68.6945 44.6821 68.8089C44.8144 68.8781 44.9614 68.9145 45.1107 68.9148C45.2779 68.9127 45.4412 68.8645 45.5827 68.7755C45.7242 68.6865 45.8383 68.5602 45.9126 68.4104L50.517 59.7463C50.6175 59.56 50.6494 59.3442 50.607 59.1368C50.5646 58.9294 50.4506 58.7435 50.285 58.6116L44.319 53.7853C45.0433 51.5624 45.4126 49.2392 45.4133 46.9013C45.4133 46.7904 45.4133 46.6845 45.4133 46.5735H52.9781C53.2188 46.5735 53.4497 46.4779 53.62 46.3076C53.7902 46.1374 53.8859 45.9065 53.8859 45.6657C53.8859 45.425 53.7902 45.1941 53.62 45.0239C53.4497 44.8536 53.2188 44.758 52.9781 44.758L52.9428 44.7529Z" fill="url(#paint1_linear_109_597)"/>
<path d="M27.1776 18.1562C28.2969 18.1562 29.4052 18.3766 30.4392 18.8049C31.4733 19.2333 32.4129 19.861 33.2043 20.6525C33.9957 21.4439 34.6235 22.3835 35.0518 23.4175C35.4801 24.4516 35.7006 25.5599 35.7006 26.6791C35.6992 27.4167 35.6009 28.1509 35.4081 28.8628C38.5194 30.649 41.0697 33.2691 42.7711 36.4276L48.5657 31.7425L44.3093 23.7339C44.2529 23.629 44.2178 23.514 44.2061 23.3955C44.1943 23.2771 44.2062 23.1574 44.2408 23.0435C44.2755 22.9296 44.3324 22.8237 44.4082 22.7318C44.484 22.64 44.5772 22.5641 44.6825 22.5084C44.8148 22.4391 44.9618 22.4028 45.1112 22.4025C45.2758 22.4017 45.4375 22.4458 45.5789 22.5303C45.7202 22.6147 45.8358 22.7362 45.913 22.8816L50.5174 31.5508C50.6176 31.7364 50.6493 31.9513 50.6068 32.1578C50.5644 32.3644 50.4506 32.5494 50.2854 32.6805L43.6032 38.0918C44.5239 40.2074 45.101 42.4564 45.3129 44.7538H52.9583C53.1991 44.7538 53.43 44.8495 53.6002 45.0197C53.7705 45.19 53.8661 45.4209 53.8661 45.6616C53.8661 45.9024 53.7705 46.1333 53.6002 46.3035C53.43 46.4738 53.1991 46.5694 52.9583 46.5694H45.3936C45.3936 46.6803 45.3936 46.7862 45.3936 46.8972C45.3966 49.2469 45.0272 51.5823 44.2992 53.8164L50.2653 58.6427C50.4309 58.7746 50.5448 58.9606 50.5872 59.168C50.6296 59.3754 50.5978 59.5911 50.4973 59.7774L45.8928 68.4416C45.8186 68.5913 45.7044 68.7177 45.5629 68.8067C45.4214 68.8956 45.2581 68.9438 45.091 68.9459C44.9417 68.9456 44.7946 68.9093 44.6623 68.84C44.4503 68.7256 44.2922 68.5321 44.2223 68.3016C44.1524 68.0711 44.1764 67.8223 44.2891 67.6095L48.5456 59.606L43.6184 55.6219C40.6883 62.4402 34.4196 67.1506 27.1575 67.1506C19.8953 67.1506 13.6266 62.4402 10.6915 55.6219L5.77947 59.5858L10.046 67.5792C10.1583 67.7927 10.1816 68.042 10.1107 68.2725C10.0399 68.5031 9.8806 68.6963 9.66776 68.8098C9.53705 68.8784 9.39178 68.9148 9.24413 68.9157C9.077 68.9136 8.91369 68.8654 8.7722 68.7764C8.63071 68.6874 8.51654 68.5611 8.44227 68.4114L3.83785 59.7472C3.73776 59.5612 3.70566 59.3461 3.74708 59.139C3.78851 58.9319 3.90086 58.7457 4.06479 58.6125L10.0359 53.7862C9.31157 51.5633 8.94224 49.2401 8.94154 46.9022C8.94154 46.7913 8.94154 46.6854 8.94154 46.5744H1.37678C1.13603 46.5744 0.905134 46.4788 0.734894 46.3085C0.564654 46.1383 0.469015 45.9074 0.469015 45.6667C0.469015 45.4259 0.564654 45.195 0.734894 45.0248C0.905134 44.8545 1.13603 44.7589 1.37678 44.7589H9.05249C9.26814 42.4615 9.8469 40.2129 10.7672 38.0969L4.06479 32.6755C3.90126 32.5431 3.78908 32.3578 3.74765 32.1515C3.70621 31.9453 3.73812 31.731 3.83785 31.5458L8.44227 22.8766C8.51908 22.7308 8.63454 22.609 8.77597 22.5245C8.91741 22.44 9.07938 22.3961 9.24413 22.3975C9.39178 22.3984 9.53705 22.4347 9.66776 22.5034C9.88025 22.6159 10.0394 22.8081 10.1103 23.0379C10.1812 23.2676 10.1581 23.5161 10.046 23.7289L5.77947 31.7374L11.5741 36.4225C13.2737 33.2644 15.8223 30.6443 18.9321 28.8578C18.7418 28.1453 18.6435 27.4115 18.6396 26.6741C18.6409 25.5542 18.8628 24.4455 19.2926 23.4113C19.7224 22.3772 20.3516 21.4378 21.1445 20.6468C21.9373 19.8559 22.8782 19.2288 23.9133 18.8015C24.9485 18.3741 26.0577 18.1548 27.1776 18.1562ZM27.1776 17.6518C24.7838 17.6545 22.4887 18.6063 20.7956 20.2985C19.1024 21.9907 18.1493 24.2853 18.1453 26.6791C18.1477 27.3308 18.2221 27.9803 18.3672 28.6157C15.4945 30.3414 13.1095 32.7715 11.4379 35.6761L6.43004 31.6416L10.4646 24.0012C10.5799 23.7864 10.6375 23.5453 10.6316 23.3015C10.6257 23.0577 10.5566 22.8197 10.431 22.6107C10.3054 22.4017 10.1276 22.2289 9.91515 22.1093C9.70267 21.9897 9.46274 21.9274 9.21891 21.9285C8.96304 21.9278 8.71184 21.997 8.49235 22.1285C8.27286 22.2601 8.09339 22.4489 7.97325 22.6748L3.36379 31.3441C3.20956 31.6337 3.16144 31.9682 3.22774 32.2896C3.29405 32.611 3.47062 32.8991 3.7269 33.1041L10.1267 38.2835C9.33123 40.2016 8.80839 42.2217 8.57339 44.2848H1.41209C1.03758 44.2848 0.678408 44.4336 0.41359 44.6984C0.148772 44.9632 0 45.3224 0 45.6969C0 46.0714 0.148772 46.4306 0.41359 46.6954C0.678408 46.9602 1.03758 47.109 1.41209 47.109H8.43722C8.4492 49.3321 8.78907 51.5412 9.44586 53.6651L3.7622 58.2544C3.50757 58.4607 3.3326 58.7491 3.26727 59.0702C3.20195 59.3913 3.25033 59.7251 3.40414 60.0145L8.0136 68.6786C8.13262 68.9059 8.3117 69.0961 8.53134 69.2286C8.75098 69.3611 9.00276 69.4308 9.25926 69.4301C9.48961 69.4282 9.71615 69.3711 9.91991 69.2636C10.0841 69.1772 10.2296 69.0591 10.3482 68.9164C10.4668 68.7736 10.556 68.6088 10.6108 68.4315C10.7183 68.0718 10.6803 67.6842 10.5049 67.3523L6.47039 59.7169L10.5604 56.4086C13.7628 63.2472 20.2332 67.6347 27.2029 67.6347C34.1725 67.6347 40.658 63.2472 43.8453 56.4086L47.9404 59.7169L43.9058 67.3523C43.8179 67.516 43.7633 67.6955 43.7451 67.8805C43.7269 68.0655 43.7455 68.2522 43.7999 68.4299C43.8543 68.6076 43.9434 68.7728 44.062 68.9159C44.1806 69.059 44.3263 69.1772 44.4908 69.2636C44.6944 69.3716 44.9211 69.4287 45.1515 69.4301C45.4079 69.4302 45.6594 69.3603 45.879 69.2278C46.0985 69.0954 46.2777 68.9055 46.3972 68.6786L50.9663 60.0145C51.1186 59.7244 51.1656 59.3904 51.0994 59.0695C51.0332 58.7486 50.8578 58.4606 50.6032 58.2544L44.9044 53.6399C45.5587 51.5155 45.8986 49.3067 45.913 47.0838H52.9382C53.3127 47.0838 53.6718 46.935 53.9366 46.6702C54.2015 46.4054 54.3502 46.0462 54.3502 45.6717C54.3502 45.2972 54.2015 44.938 53.9366 44.6732C53.6718 44.4084 53.3127 44.2596 52.9382 44.2596H45.7516C45.5191 42.196 44.9961 40.1756 44.1983 38.2582L50.6032 33.0789C50.857 32.8722 51.0318 32.5842 51.098 32.2635C51.1641 31.9428 51.1176 31.6092 50.9663 31.3188L46.3568 22.6496C46.2367 22.4237 46.0572 22.2348 45.8377 22.1033C45.6182 21.9718 45.367 21.9026 45.1112 21.9032C44.8071 21.9028 44.5112 22.0008 44.2675 22.1826C44.0239 22.3645 43.8457 22.6203 43.7596 22.9119C43.7054 23.089 43.6868 23.2752 43.705 23.4596C43.7232 23.644 43.7777 23.8229 43.8655 23.9861L47.9 31.6265L42.8922 35.661C41.2206 32.7564 38.8356 30.3263 35.9628 28.6006C36.1063 27.965 36.179 27.3155 36.1797 26.664C36.177 24.2706 35.2251 21.9761 33.5327 20.2837C31.8404 18.5913 29.5458 17.6394 27.1524 17.6367L27.1776 17.6518Z" fill="url(#paint2_linear_109_597)"/>
<g style="mix-blend-mode:soft-light">
<path d="M35.5353 28.9228C38.5924 30.7096 41.0981 33.3043 42.7772 36.4219L48.35 31.9133L48.5719 32.3269L42.7772 37.012C41.0758 33.8536 38.5255 31.2334 35.4142 29.4472C35.4579 29.2691 35.4983 29.0942 35.5353 28.9228ZM44.6886 23.0928C44.9015 22.9801 45.1502 22.9561 45.3807 23.026C45.6112 23.0959 45.8048 23.2541 45.9191 23.466L50.5236 32.1352C50.5472 32.1766 50.5658 32.2206 50.579 32.2664C50.62 32.1488 50.6362 32.0241 50.6267 31.9C50.6171 31.7759 50.582 31.6551 50.5236 31.5452L45.9191 22.876C45.8112 22.6756 45.632 22.5231 45.417 22.4486C45.2019 22.3741 44.9667 22.3831 44.758 22.4738C44.5493 22.5645 44.3822 22.7303 44.29 22.9384C44.1978 23.1465 44.187 23.3816 44.2599 23.5972C44.3351 23.3831 44.4857 23.2039 44.6836 23.0928H44.6886ZM27.1838 19.5223C31.8084 19.5223 35.5655 22.4171 35.6966 27.0164C35.6966 26.9004 35.6966 26.7844 35.6966 26.6634C35.6425 24.4382 34.7205 22.3224 33.1276 20.7677C31.5347 19.213 29.397 18.3428 27.1712 18.3428C24.9453 18.3428 22.8077 19.213 21.2147 20.7677C19.6218 22.3224 18.6998 24.4382 18.6457 26.6634C18.6457 26.7844 18.6457 26.9004 18.6457 27.0164C18.797 22.4171 22.5541 19.5223 27.1787 19.5223H27.1838ZM5.78055 32.3269L11.5752 37.012C13.2748 33.8539 15.8234 31.2338 18.9331 29.4472C18.8878 29.2758 18.8524 29.1043 18.8121 28.9429C15.7552 30.7284 13.2508 33.3236 11.5752 36.4421L6.00245 31.9335L5.78055 32.3269ZM3.82884 32.1352L8.43326 23.466C8.48891 23.3608 8.56484 23.2676 8.65667 23.1918C8.74851 23.116 8.85443 23.0591 8.96834 23.0244C9.08224 22.9897 9.20189 22.9779 9.32038 22.9896C9.43888 23.0014 9.55387 23.0365 9.65875 23.0928C9.86099 23.1998 10.0144 23.3803 10.0874 23.5972C10.1742 23.3794 10.1728 23.1364 10.0837 22.9196C9.99448 22.7028 9.82446 22.5292 9.60958 22.4355C9.39469 22.3418 9.15179 22.3354 8.93225 22.4176C8.71272 22.4998 8.53377 22.6642 8.43326 22.876L3.82884 31.5452C3.76607 31.6552 3.72773 31.7775 3.71642 31.9037C3.7051 32.0299 3.72109 32.157 3.76328 32.2765C3.78208 32.2262 3.80752 32.1787 3.83893 32.1352H3.82884Z" fill="white"/>
</g>
<path d="M27.1784 37.1572C21.6612 37.1572 17.1829 41.4893 17.1829 46.8351C17.1614 48.0684 17.423 49.2903 17.9476 50.4067C18.4722 51.5231 19.2457 52.5044 20.2088 53.2752V56.4827C20.2088 56.7074 20.298 56.9229 20.4569 57.0817C20.6158 57.2406 20.8313 57.3299 21.056 57.3299H22.7354C22.9606 57.3299 23.1766 57.2408 23.3363 57.0821C23.496 56.9233 23.5864 56.7078 23.5877 56.4827V55.0201C24.2006 55.2061 24.8282 55.3394 25.4637 55.4186V56.4827C25.4637 56.7074 25.553 56.9229 25.7119 57.0817C25.8708 57.2406 26.0863 57.3299 26.311 57.3299H27.9954C28.2201 57.3299 28.4356 57.2406 28.5945 57.0817C28.7534 56.9229 28.8427 56.7074 28.8427 56.4827V55.4186C29.4782 55.3394 30.1059 55.2061 30.7187 55.0201V56.4827C30.7187 56.7074 30.808 56.9229 30.9669 57.0817C31.1258 57.2406 31.3413 57.3299 31.566 57.3299H33.2504C33.3638 57.3333 33.4767 57.3139 33.5824 57.2728C33.6881 57.2317 33.7845 57.1699 33.8659 57.0908C33.9472 57.0118 34.0119 56.9173 34.056 56.8128C34.1002 56.7083 34.1229 56.5961 34.1229 56.4827V53.2802C35.0877 52.511 35.8624 51.53 36.3872 50.4132C36.9119 49.2964 37.1725 48.0738 37.1488 46.8401C37.1689 41.4893 32.6956 37.1572 27.1784 37.1572ZM24.5408 49.6441C23.3053 50.3552 21.5906 49.6945 20.708 48.1715C19.8255 46.6485 20.1129 44.8279 21.3485 44.137C22.5841 43.4461 24.2988 44.0815 25.1813 45.6096C26.0639 47.1377 25.7764 48.9179 24.5408 49.6441ZM25.9328 52.0094L27.1784 50.2947L28.419 52.0094H25.9328ZM33.6488 48.1715C32.7663 49.6845 31.0516 50.3552 29.816 49.6441C28.5804 48.933 28.303 47.1225 29.1755 45.6096C30.048 44.0966 31.7728 43.4259 33.0083 44.137C34.2439 44.8481 34.5263 46.6434 33.6488 48.1715Z" fill="white"/>
<g style="mix-blend-mode:overlay">
<path d="M20.9948 21.1805C17.9135 17.4284 15.7247 14.1201 16.108 13.8175C16.4913 13.5149 19.2953 16.2887 22.3767 20.0408C25.458 23.7929 27.6468 27.1012 27.2635 27.4038C26.8802 27.7064 24.0762 24.9528 20.9948 21.1805Z" fill="url(#paint3_radial_109_597)"/>
<path style="mix-blend-mode:hard-light" d="M21.4422 20.8281C20.8673 20.1271 20.5092 19.4715 20.6403 19.3606C20.7715 19.2496 21.3464 19.7337 21.9263 20.4347C22.5063 21.1357 22.8593 21.7914 22.7282 21.9023C22.5971 22.0133 22.0222 21.5291 21.4422 20.8281Z" fill="url(#paint4_radial_109_597)"/>
<path d="M22.3205 21.4029C18.649 24.4288 15.3861 26.5166 15.0381 26.093C14.6901 25.6694 17.3782 22.8704 21.0496 19.8597C24.721 16.8489 27.9839 14.7459 28.3319 15.1695C28.6799 15.5931 25.9919 18.3921 22.3205 21.4029Z" fill="url(#paint5_radial_109_597)"/>
<path style="mix-blend-mode:hard-light" d="M21.9162 20.8993C21.2152 21.4742 20.5445 21.8222 20.4033 21.6759C20.262 21.5297 20.7512 20.9396 21.4522 20.3647C22.1532 19.7898 22.824 19.4418 22.9652 19.5881C23.1064 19.7343 22.6071 20.3244 21.9162 20.8993Z" fill="url(#paint6_radial_109_597)"/>
<g opacity="0.5">
<path d="M20.9948 21.1805C17.9135 17.4284 15.7247 14.1201 16.108 13.8175C16.4913 13.5149 19.2953 16.2887 22.3767 20.0408C25.458 23.7929 27.6468 27.1012 27.2635 27.4038C26.8802 27.7064 24.0762 24.9528 20.9948 21.1805Z" fill="url(#paint7_radial_109_597)"/>
<path style="mix-blend-mode:hard-light" d="M21.4422 20.8281C20.8673 20.1271 20.5092 19.4715 20.6403 19.3606C20.7715 19.2496 21.3464 19.7337 21.9263 20.4347C22.5063 21.1357 22.8593 21.7914 22.7282 21.9023C22.5971 22.0133 22.0222 21.5291 21.4422 20.8281Z" fill="url(#paint8_radial_109_597)"/>
<path d="M22.3205 21.4029C18.649 24.4288 15.3861 26.5166 15.0381 26.093C14.6901 25.6694 17.3782 22.8704 21.0496 19.8597C24.721 16.8489 27.9839 14.7459 28.3319 15.1695C28.6799 15.5931 25.9919 18.3921 22.3205 21.4029Z" fill="url(#paint9_radial_109_597)"/>
<path style="mix-blend-mode:hard-light" d="M21.9162 20.8983C21.2152 21.4732 20.5445 21.8212 20.4033 21.675C20.262 21.5287 20.7512 20.9387 21.4522 20.3637C22.1532 19.7888 22.824 19.4408 22.9652 19.5871C23.1064 19.7333 22.6071 20.3234 21.9162 20.8983Z" fill="url(#paint10_radial_109_597)"/>
</g>
</g>
<defs>
<linearGradient id="paint0_linear_109_597" x1="53.4381" y1="9.59105" x2="53.4381" y2="40.5561" gradientUnits="userSpaceOnUse">
<stop stop-color="#FF8CB3"/>
<stop offset="0.22" stop-color="#FF84AE"/>
<stop offset="0.57" stop-color="#FF6DA1"/>
<stop offset="1" stop-color="#FF498B"/>
</linearGradient>
<linearGradient id="paint1_linear_109_597" x1="27.1772" y1="18.1401" x2="27.1772" y2="68.9248" gradientUnits="userSpaceOnUse">
<stop stop-color="white" stop-opacity="0.9"/>
<stop offset="0.02" stop-color="white" stop-opacity="0.84"/>
<stop offset="0.05" stop-color="white" stop-opacity="0.73"/>
<stop offset="0.08" stop-color="white" stop-opacity="0.65"/>
<stop offset="0.13" stop-color="white" stop-opacity="0.58"/>
<stop offset="0.18" stop-color="white" stop-opacity="0.53"/>
<stop offset="0.25" stop-color="white" stop-opacity="0.51"/>
<stop offset="0.46" stop-color="white" stop-opacity="0.5"/>
<stop offset="0.54" stop-color="#FDFDFD" stop-opacity="0.46"/>
<stop offset="0.69" stop-color="#F9F9F9" stop-opacity="0.35"/>
<stop offset="0.88" stop-color="#F2F2F2" stop-opacity="0.17"/>
<stop offset="0.95" stop-color="#EFEFEF" stop-opacity="0.1"/>
</linearGradient>
<linearGradient id="paint2_linear_109_597" x1="27.1776" y1="69.4301" x2="27.1776" y2="17.6367" gradientUnits="userSpaceOnUse">
<stop stop-color="white" stop-opacity="0.9"/>
<stop offset="0.03" stop-color="white" stop-opacity="0.83"/>
<stop offset="0.11" stop-color="white" stop-opacity="0.68"/>
<stop offset="0.17" stop-color="white" stop-opacity="0.58"/>
<stop offset="0.23" stop-color="white" stop-opacity="0.52"/>
<stop offset="0.28" stop-color="white" stop-opacity="0.5"/>
<stop offset="0.46" stop-color="#FEFEFE" stop-opacity="0.48"/>
<stop offset="0.67" stop-color="#FAFAFA" stop-opacity="0.43"/>
<stop offset="0.89" stop-color="#F3F3F3" stop-opacity="0.35"/>
<stop offset="1" stop-color="#EFEFEF" stop-opacity="0.3"/>
</linearGradient>
<radialGradient id="paint3_radial_109_597" cx="0" cy="0" r="1" gradientUnits="userSpaceOnUse" gradientTransform="translate(-67.4342 28.1631) rotate(141.34) scale(0.911604 8.79735)">
<stop stop-color="white"/>
<stop offset="0.05" stop-color="white" stop-opacity="0.89"/>
<stop offset="0.15" stop-color="white" stop-opacity="0.69"/>
<stop offset="0.26" stop-color="white" stop-opacity="0.5"/>
<stop offset="0.37" stop-color="white" stop-opacity="0.35"/>
<stop offset="0.48" stop-color="white" stop-opacity="0.22"/>
<stop offset="0.6" stop-color="white" stop-opacity="0.12"/>
<stop offset="0.72" stop-color="white" stop-opacity="0.05"/>
<stop offset="0.85" stop-color="white" stop-opacity="0.01"/>
<stop offset="1" stop-color="white" stop-opacity="0"/>
</radialGradient>
<radialGradient id="paint4_radial_109_597" cx="0" cy="0" r="1" gradientUnits="userSpaceOnUse" gradientTransform="translate(-58.5186 29.7191) rotate(141.34) scale(0.315816 1.63556)">
<stop stop-color="white"/>
<stop offset="0.05" stop-color="white" stop-opacity="0.89"/>
<stop offset="0.15" stop-color="white" stop-opacity="0.69"/>
<stop offset="0.26" stop-color="white" stop-opacity="0.5"/>
<stop offset="0.37" stop-color="white" stop-opacity="0.35"/>
<stop offset="0.48" stop-color="white" stop-opacity="0.22"/>
<stop offset="0.6" stop-color="white" stop-opacity="0.12"/>
<stop offset="0.72" stop-color="white" stop-opacity="0.05"/>
<stop offset="0.85" stop-color="white" stop-opacity="0.01"/>
<stop offset="1" stop-color="white" stop-opacity="0"/>
</radialGradient>
<radialGradient id="paint5_radial_109_597" cx="0" cy="0" r="1" gradientUnits="userSpaceOnUse" gradientTransform="translate(-35.0094 -23.7821) rotate(50.9061) scale(0.978335 8.59784)">
<stop stop-color="white"/>
<stop offset="0.05" stop-color="white" stop-opacity="0.89"/>
<stop offset="0.15" stop-color="white" stop-opacity="0.69"/>
<stop offset="0.26" stop-color="white" stop-opacity="0.5"/>
<stop offset="0.37" stop-color="white" stop-opacity="0.35"/>
<stop offset="0.48" stop-color="white" stop-opacity="0.22"/>
<stop offset="0.6" stop-color="white" stop-opacity="0.12"/>
<stop offset="0.72" stop-color="white" stop-opacity="0.05"/>
<stop offset="0.85" stop-color="white" stop-opacity="0.01"/>
<stop offset="1" stop-color="white" stop-opacity="0"/>
</radialGradient>
<radialGradient id="paint6_radial_109_597" cx="0" cy="0" r="1" gradientUnits="userSpaceOnUse" gradientTransform="translate(-33.8608 -26.3043) rotate(50.9062) scale(0.338935 1.63566)">
<stop stop-color="white"/>
<stop offset="0.05" stop-color="white" stop-opacity="0.89"/>
<stop offset="0.15" stop-color="white" stop-opacity="0.69"/>
<stop offset="0.26" stop-color="white" stop-opacity="0.5"/>
<stop offset="0.37" stop-color="white" stop-opacity="0.35"/>
<stop offset="0.48" stop-color="white" stop-opacity="0.22"/>
<stop offset="0.6" stop-color="white" stop-opacity="0.12"/>
<stop offset="0.72" stop-color="white" stop-opacity="0.05"/>
<stop offset="0.85" stop-color="white" stop-opacity="0.01"/>
<stop offset="1" stop-color="white" stop-opacity="0"/>
</radialGradient>
<radialGradient id="paint7_radial_109_597" cx="0" cy="0" r="1" gradientUnits="userSpaceOnUse" gradientTransform="translate(-67.4342 28.1631) rotate(141.34) scale(0.911604 8.79735)">
<stop stop-color="white"/>
<stop offset="0.05" stop-color="white" stop-opacity="0.89"/>
<stop offset="0.15" stop-color="white" stop-opacity="0.69"/>
<stop offset="0.26" stop-color="white" stop-opacity="0.5"/>
<stop offset="0.37" stop-color="white" stop-opacity="0.35"/>
<stop offset="0.48" stop-color="white" stop-opacity="0.22"/>
<stop offset="0.6" stop-color="white" stop-opacity="0.12"/>
<stop offset="0.72" stop-color="white" stop-opacity="0.05"/>
<stop offset="0.85" stop-color="white" stop-opacity="0.01"/>
<stop offset="1" stop-color="white" stop-opacity="0"/>
</radialGradient>
<radialGradient id="paint8_radial_109_597" cx="0" cy="0" r="1" gradientUnits="userSpaceOnUse" gradientTransform="translate(-58.5186 29.7191) rotate(141.34) scale(0.315816 1.63556)">
<stop stop-color="white"/>
<stop offset="0.05" stop-color="white" stop-opacity="0.89"/>
<stop offset="0.15" stop-color="white" stop-opacity="0.69"/>
<stop offset="0.26" stop-color="white" stop-opacity="0.5"/>
<stop offset="0.37" stop-color="white" stop-opacity="0.35"/>
<stop offset="0.48" stop-color="white" stop-opacity="0.22"/>
<stop offset="0.6" stop-color="white" stop-opacity="0.12"/>
<stop offset="0.72" stop-color="white" stop-opacity="0.05"/>
<stop offset="0.85" stop-color="white" stop-opacity="0.01"/>
<stop offset="1" stop-color="white" stop-opacity="0"/>
</radialGradient>
<radialGradient id="paint9_radial_109_597" cx="0" cy="0" r="1" gradientUnits="userSpaceOnUse" gradientTransform="translate(-35.0094 -23.7821) rotate(50.9061) scale(0.978335 8.59784)">
<stop stop-color="white"/>
<stop offset="0.05" stop-color="white" stop-opacity="0.89"/>
<stop offset="0.15" stop-color="white" stop-opacity="0.69"/>
<stop offset="0.26" stop-color="white" stop-opacity="0.5"/>
<stop offset="0.37" stop-color="white" stop-opacity="0.35"/>
<stop offset="0.48" stop-color="white" stop-opacity="0.22"/>
<stop offset="0.6" stop-color="white" stop-opacity="0.12"/>
<stop offset="0.72" stop-color="white" stop-opacity="0.05"/>
<stop offset="0.85" stop-color="white" stop-opacity="0.01"/>
<stop offset="1" stop-color="white" stop-opacity="0"/>
</radialGradient>
<radialGradient id="paint10_radial_109_597" cx="0" cy="0" r="1" gradientUnits="userSpaceOnUse" gradientTransform="translate(-33.8608 -26.3052) rotate(50.9062) scale(0.338935 1.63566)">
<stop stop-color="white"/>
<stop offset="0.05" stop-color="white" stop-opacity="0.89"/>
<stop offset="0.15" stop-color="white" stop-opacity="0.69"/>
<stop offset="0.26" stop-color="white" stop-opacity="0.5"/>
<stop offset="0.37" stop-color="white" stop-opacity="0.35"/>
<stop offset="0.48" stop-color="white" stop-opacity="0.22"/>
<stop offset="0.6" stop-color="white" stop-opacity="0.12"/>
<stop offset="0.72" stop-color="white" stop-opacity="0.05"/>
<stop offset="0.85" stop-color="white" stop-opacity="0.01"/>
<stop offset="1" stop-color="white" stop-opacity="0"/>
</radialGradient>
</defs>
</svg>
