<svg width="60" height="60" viewBox="0 0 60 60" fill="none" xmlns="http://www.w3.org/2000/svg">
<path d="M55.3125 5.625H4.6875C3.1342 5.625 1.875 6.8842 1.875 8.4375V42.1875C1.875 43.7408 3.1342 45 4.6875 45H55.3125C56.8658 45 58.125 43.7408 58.125 42.1875V8.4375C58.125 6.8842 56.8658 5.625 55.3125 5.625Z" fill="white"/>
<path d="M26.25 45H33.75V54.375H26.25V45Z" fill="#745EFF"/>
<path opacity="0.1" d="M55.3125 5.625H50.625C51.3709 5.625 52.0863 5.92132 52.6137 6.44876C53.1412 6.97621 53.4375 7.69158 53.4375 8.4375V42.1875C53.4375 42.9334 53.1412 43.6488 52.6137 44.1762C52.0863 44.7037 51.3709 45 50.625 45H55.3125C56.0584 45 56.7738 44.7037 57.3012 44.1762C57.8287 43.6488 58.125 42.9334 58.125 42.1875V8.4375C58.125 7.69158 57.8287 6.97621 57.3012 6.44876C56.7738 5.92132 56.0584 5.625 55.3125 5.625ZM29.0625 45H32.8125V54.375H29.0625V45Z" fill="#010D4C"/>
<path d="M55.3125 3.75H4.6875C3.4443 3.75 2.25201 4.24386 1.37294 5.12294C0.49386 6.00201 0 7.1943 0 8.4375L0 42.1875C0 43.4307 0.49386 44.623 1.37294 45.5021C2.25201 46.3811 3.4443 46.875 4.6875 46.875H24.375V54.375C24.375 54.8723 24.5725 55.3492 24.9242 55.7008C25.2758 56.0525 25.7527 56.25 26.25 56.25H33.75C34.2473 56.25 34.7242 56.0525 35.0758 55.7008C35.4275 55.3492 35.625 54.8723 35.625 54.375V46.875H55.3125C56.5557 46.875 57.748 46.3811 58.6271 45.5021C59.5061 44.623 60 43.4307 60 42.1875V8.4375C60 7.1943 59.5061 6.00201 58.6271 5.12294C57.748 4.24386 56.5557 3.75 55.3125 3.75ZM31.875 52.5H28.125V46.875H31.875V52.5ZM56.25 42.1875C56.25 42.4361 56.1512 42.6746 55.9754 42.8504C55.7996 43.0262 55.5611 43.125 55.3125 43.125H4.6875C4.43886 43.125 4.2004 43.0262 4.02459 42.8504C3.84877 42.6746 3.75 42.4361 3.75 42.1875V8.4375C3.75 8.18886 3.84877 7.9504 4.02459 7.77459C4.2004 7.59877 4.43886 7.5 4.6875 7.5H55.3125C55.5611 7.5 55.7996 7.59877 55.9754 7.77459C56.1512 7.9504 56.25 8.18886 56.25 8.4375V42.1875Z" fill="#010D4C"/>
<path d="M9.375 15C10.4105 15 11.25 14.1605 11.25 13.125C11.25 12.0895 10.4105 11.25 9.375 11.25C8.33947 11.25 7.5 12.0895 7.5 13.125C7.5 14.1605 8.33947 15 9.375 15Z" fill="#745EFF"/>
<path d="M32.278 15.0434C31.7933 14.9373 31.2862 15.0277 30.868 15.2948C30.4497 15.5619 30.1544 15.9839 30.0468 16.4684L26.2968 33.3434C26.228 33.589 26.21 33.8461 26.244 34.0989C26.2779 34.3517 26.3631 34.595 26.4943 34.8137C26.6255 35.0325 26.8 35.2221 27.0071 35.3711C27.2141 35.5201 27.4494 35.6253 27.6985 35.6803C27.9476 35.7352 28.2053 35.7387 28.4558 35.6906C28.7063 35.6425 28.9444 35.5438 29.1554 35.4005C29.3665 35.2572 29.5461 35.0724 29.6832 34.8573C29.8204 34.6422 29.9122 34.4014 29.953 34.1496L33.7031 17.2746C33.8092 16.7898 33.7187 16.2828 33.4516 15.8645C33.1845 15.4463 32.7625 15.151 32.278 15.0434ZM22.8843 19.2996C22.533 18.9504 22.0578 18.7544 21.5624 18.7544C21.0671 18.7544 20.5919 18.9504 20.2405 19.2996L15.553 23.9871C15.2038 24.3384 15.0078 24.8136 15.0078 25.309C15.0078 25.8043 15.2038 26.2796 15.553 26.6309L20.2405 31.3184C20.4086 31.5146 20.6155 31.6741 20.8481 31.7866C21.0807 31.8991 21.3341 31.9624 21.5923 31.9724C21.8505 31.9823 22.108 31.9388 22.3487 31.8446C22.5893 31.7503 22.8078 31.6073 22.9905 31.4246C23.1732 31.2419 23.3162 31.0233 23.4105 30.7827C23.5048 30.5421 23.5483 30.2846 23.5383 30.0264C23.5283 29.7682 23.4651 29.5148 23.3525 29.2822C23.24 29.0495 23.0806 28.8427 22.8843 28.6746L19.528 25.309L22.8843 21.9434C23.2335 21.5921 23.4295 21.1168 23.4295 20.6215C23.4295 20.1261 23.2335 19.6509 22.8843 19.2996ZM39.7593 19.2996C39.4006 18.9924 38.9392 18.8319 38.4673 18.8502C37.9954 18.8684 37.5478 19.064 37.2139 19.3979C36.8799 19.7319 36.6843 20.1795 36.6661 20.6514C36.6479 21.1233 36.8084 21.5847 37.1155 21.9434L40.4718 25.309L37.1155 28.6746C36.9193 28.8427 36.7599 29.0495 36.6473 29.2822C36.5348 29.5148 36.4715 29.7682 36.4616 30.0264C36.4516 30.2846 36.4951 30.5421 36.5894 30.7827C36.6836 31.0233 36.8266 31.2419 37.0093 31.4246C37.1921 31.6073 37.4106 31.7503 37.6512 31.8446C37.8918 31.9388 38.1493 31.9823 38.4075 31.9724C38.6657 31.9624 38.9191 31.8991 39.1517 31.7866C39.3844 31.6741 39.5912 31.5146 39.7593 31.3184L44.4468 26.6309C44.796 26.2796 44.992 25.8043 44.992 25.309C44.992 24.8136 44.796 24.3384 44.4468 23.9871L39.7593 19.2996Z" fill="#745EFF"/>
</svg>
