<svg width="60" height="60" viewBox="0 0 60 60" fill="none" xmlns="http://www.w3.org/2000/svg">
<path d="M56.25 45.4688H3.75C2.71447 45.4688 1.875 46.3082 1.875 47.3438V54.8438C1.875 55.8793 2.71447 56.7188 3.75 56.7188H56.25C57.2855 56.7188 58.125 55.8793 58.125 54.8438V47.3438C58.125 46.3082 57.2855 45.4688 56.25 45.4688Z" fill="white"/>
<path d="M16.875 37.9688H10.3125C9.79473 37.9688 9.375 38.3885 9.375 38.9062V48.2812C9.375 48.799 9.79473 49.2188 10.3125 49.2188H16.875C17.3928 49.2188 17.8125 48.799 17.8125 48.2812V38.9062C17.8125 38.3885 17.3928 37.9688 16.875 37.9688Z" fill="white"/>
<path d="M33.75 32.3438H26.25C25.7322 32.3438 25.3125 32.7635 25.3125 33.2812V48.2812C25.3125 48.799 25.7322 49.2188 26.25 49.2188H33.75C34.2678 49.2188 34.6875 48.799 34.6875 48.2812V33.2812C34.6875 32.7635 34.2678 32.3438 33.75 32.3438Z" fill="white"/>
<path d="M49.6875 20.1562H43.125C42.6072 20.1562 42.1875 20.576 42.1875 21.0938V48.2812C42.1875 48.799 42.6072 49.2188 43.125 49.2188H49.6875C50.2053 49.2188 50.625 48.799 50.625 48.2812V21.0938C50.625 20.576 50.2053 20.1562 49.6875 20.1562Z" fill="#745EFF"/>
<path opacity="0.1" d="M56.25 45.4688H51.5625C52.0598 45.4688 52.5367 45.6663 52.8883 46.0179C53.24 46.3696 53.4375 46.8465 53.4375 47.3438V54.8438C53.4375 55.341 53.24 55.8179 52.8883 56.1696C52.5367 56.5212 52.0598 56.7188 51.5625 56.7188H56.25C56.7473 56.7188 57.2242 56.5212 57.5758 56.1696C57.9275 55.8179 58.125 55.341 58.125 54.8438V47.3438C58.125 46.8465 57.9275 46.3696 57.5758 46.0179C57.2242 45.6663 56.7473 45.4688 56.25 45.4688ZM16.875 37.9688H12.1875C12.4361 37.9688 12.6746 38.0675 12.8504 38.2433C13.0262 38.4192 13.125 38.6576 13.125 38.9062V48.2812C13.125 48.5299 13.0262 48.7683 12.8504 48.9442C12.6746 49.12 12.4361 49.2188 12.1875 49.2188H16.875C17.1236 49.2188 17.3621 49.12 17.5379 48.9442C17.7137 48.7683 17.8125 48.5299 17.8125 48.2812V38.9062C17.8125 38.6576 17.7137 38.4192 17.5379 38.2433C17.3621 38.0675 17.1236 37.9688 16.875 37.9688ZM33.75 32.3438H29.0625C29.3111 32.3438 29.5496 32.4425 29.7254 32.6183C29.9012 32.7942 30 33.0326 30 33.2812V48.2812C30 48.5299 29.9012 48.7683 29.7254 48.9442C29.5496 49.12 29.3111 49.2188 29.0625 49.2188H33.75C33.9986 49.2188 34.2371 49.12 34.4129 48.9442C34.5887 48.7683 34.6875 48.5299 34.6875 48.2812V33.2812C34.6875 33.0326 34.5887 32.7942 34.4129 32.6183C34.2371 32.4425 33.9986 32.3438 33.75 32.3438ZM48.75 20.1562H45C45.2486 20.1562 45.4871 20.255 45.6629 20.4308C45.8387 20.6067 45.9375 20.8451 45.9375 21.0938V48.2812C45.9375 48.5299 45.8387 48.7683 45.6629 48.9442C45.4871 49.12 45.2486 49.2188 45 49.2188H48.75C48.9986 49.2188 49.2371 49.12 49.4129 48.9442C49.5887 48.7683 49.6875 48.5299 49.6875 48.2812V21.0938C49.6875 20.8451 49.5887 20.6067 49.4129 20.4308C49.2371 20.255 48.9986 20.1562 48.75 20.1562Z" fill="#010D4C"/>
<path d="M56.25 43.5938H52.5V21.0938C52.5 20.3478 52.2037 19.6325 51.6762 19.105C51.1488 18.5776 50.4334 18.2812 49.6875 18.2812H43.125C42.3791 18.2812 41.6637 18.5776 41.1363 19.105C40.6088 19.6325 40.3125 20.3478 40.3125 21.0938V43.5938H36.5625V33.2812C36.5625 32.5353 36.2662 31.82 35.7387 31.2925C35.2113 30.7651 34.4959 30.4688 33.75 30.4688H26.25C25.5041 30.4688 24.7887 30.7651 24.2613 31.2925C23.7338 31.82 23.4375 32.5353 23.4375 33.2812V43.5938H19.6875V38.9062C19.6875 38.1603 19.3912 37.445 18.8637 36.9175C18.3363 36.3901 17.6209 36.0938 16.875 36.0938H10.3125C9.56658 36.0938 8.85121 36.3901 8.32376 36.9175C7.79632 37.445 7.5 38.1603 7.5 38.9062V43.5938H3.75C2.75544 43.5938 1.80161 43.9888 1.09835 44.6921C0.395088 45.3954 0 46.3492 0 47.3438L0 54.8438C0 55.8383 0.395088 56.7921 1.09835 57.4954C1.80161 58.1987 2.75544 58.5938 3.75 58.5938H56.25C57.2446 58.5938 58.1984 58.1987 58.9016 57.4954C59.6049 56.7921 60 55.8383 60 54.8438V47.3438C60 46.3492 59.6049 45.3954 58.9016 44.6921C58.1984 43.9888 57.2446 43.5938 56.25 43.5938ZM44.0625 22.0312H48.75V47.3438H44.0625V22.0312ZM27.1875 34.2188H32.8125V47.3438H27.1875V34.2188ZM11.25 39.8438H15.9375V47.3438H11.25V39.8438ZM56.25 54.8438H3.75V47.3438H7.5V48.2812C7.5 49.0272 7.79632 49.7425 8.32376 50.27C8.85121 50.7974 9.56658 51.0938 10.3125 51.0938H16.875C17.6209 51.0938 18.3363 50.7974 18.8637 50.27C19.3912 49.7425 19.6875 49.0272 19.6875 48.2812V47.3438H23.4375V48.2812C23.4375 49.0272 23.7338 49.7425 24.2613 50.27C24.7887 50.7974 25.5041 51.0938 26.25 51.0938H33.75C34.4959 51.0938 35.2113 50.7974 35.7387 50.27C36.2662 49.7425 36.5625 49.0272 36.5625 48.2812V47.3438H40.3125V48.2812C40.3125 49.0272 40.6088 49.7425 41.1363 50.27C41.6637 50.7974 42.3791 51.0938 43.125 51.0938H49.6875C50.4334 51.0938 51.1488 50.7974 51.6762 50.27C52.2037 49.7425 52.5 49.0272 52.5 48.2812V47.3438H56.25V54.8438ZM13.125 29.5312C19.1608 28.345 24.9141 26.0157 30.075 22.6688C36.0379 18.8182 41.1232 13.7553 45 7.80937V10.7812C45 11.2785 45.1975 11.7554 45.5492 12.1071C45.9008 12.4587 46.3777 12.6562 46.875 12.6562C47.3723 12.6562 47.8492 12.4587 48.2008 12.1071C48.5525 11.7554 48.75 11.2785 48.75 10.7812V3.28125C48.75 2.78397 48.5525 2.30706 48.2008 1.95542C47.8492 1.60379 47.3723 1.40625 46.875 1.40625H39.375C38.8777 1.40625 38.4008 1.60379 38.0492 1.95542C37.6975 2.30706 37.5 2.78397 37.5 3.28125C37.5 3.77853 37.6975 4.25544 38.0492 4.60708C38.4008 4.95871 38.8777 5.15625 39.375 5.15625H42.1875C38.5721 10.9121 33.7481 15.8129 28.05 19.5187C23.3618 22.5204 18.1735 24.6574 12.7312 25.8281C12.2836 25.93 11.8889 26.1926 11.6219 26.5661C11.3549 26.9396 11.2343 27.3981 11.2828 27.8546C11.3314 28.3112 11.5457 28.734 11.8853 29.0431C12.2248 29.3521 12.6659 29.5258 13.125 29.5312Z" fill="#010D4C"/>
<path d="M5.625 30.4688C6.66053 30.4688 7.5 29.6293 7.5 28.5938C7.5 27.5582 6.66053 26.7188 5.625 26.7188C4.58947 26.7188 3.75 27.5582 3.75 28.5938C3.75 29.6293 4.58947 30.4688 5.625 30.4688Z" fill="#745EFF"/>
</svg>
