<svg width="60" height="60" viewBox="0 0 60 60" fill="none" xmlns="http://www.w3.org/2000/svg">
<path d="M46.8742 19.6807C45.5456 19.6814 44.2278 19.9195 42.983 20.3839C42.4315 16.1374 40.2865 12.2592 36.9825 9.53508C33.6785 6.81097 29.4625 5.44462 25.1887 5.71285C20.9149 5.98108 16.9028 7.86384 13.9653 10.9797C11.0278 14.0955 9.38449 18.2115 9.36832 22.4937C9.36832 22.8687 9.36832 23.2438 9.42458 23.6095C7.14025 24.0612 5.10574 25.3468 3.71707 27.216C2.32839 29.0851 1.6849 31.4042 1.91185 33.7216C2.1388 36.0391 3.21996 38.1893 4.94487 39.7535C6.66979 41.3178 8.91504 42.1842 11.2436 42.1842H46.8742C49.8584 42.1842 52.7203 40.9988 54.8304 38.8887C56.9406 36.7786 58.126 33.9166 58.126 30.9325C58.126 27.9483 56.9406 25.0864 54.8304 22.9763C52.7203 20.8662 49.8584 19.6807 46.8742 19.6807Z" fill="white"/>
<g opacity="0.1">
<path d="M37.3896 16.6869C37.7437 17.6014 38.3756 18.3818 39.1964 18.9184C40.0172 19.4549 40.9856 19.7206 41.9653 19.678H42.8561C42.1921 15.7497 40.1599 12.183 37.1191 9.60895C34.0783 7.03491 30.225 5.61953 26.241 5.61328C25.4596 5.6199 24.6796 5.67942 23.9062 5.79143C26.929 6.21837 29.7793 7.45713 32.1537 9.3758C34.5281 11.2945 36.3376 13.8212 37.3896 16.6869ZM46.8692 19.678C46.0905 19.6809 45.3142 19.7657 44.5533 19.9312C47.2682 20.517 49.6705 22.0863 51.2979 24.337C52.9253 26.5878 53.6627 29.3609 53.3682 32.1226C53.0738 34.8844 51.7683 37.4397 49.7029 39.2967C47.6376 41.1537 44.9584 42.1813 42.181 42.1815H46.8692C49.8534 42.1815 52.7153 40.9961 54.8255 38.886C56.9356 36.7759 58.121 33.9139 58.121 30.9298C58.121 27.9456 56.9356 25.0837 54.8255 22.9736C52.7153 20.8634 49.8534 19.678 46.8692 19.678Z" fill="#010D4C"/>
</g>
<path d="M36.559 23.8987C36.5607 26.6249 35.5543 29.2553 33.7333 31.284C31.9123 33.3128 29.4054 34.5964 26.6949 34.888C26.2996 34.9337 25.902 34.9556 25.5041 34.9536C22.5722 34.9536 19.7603 33.7889 17.6871 31.7157C15.6139 29.6425 14.4492 26.8307 14.4492 23.8987C14.4492 20.9668 15.6139 18.155 17.6871 16.0818C19.7603 14.0086 22.5722 12.8439 25.5041 12.8439C25.902 12.8419 26.2996 12.8638 26.6949 12.9095C29.4054 13.2011 31.9123 14.4847 33.7333 16.5135C35.5543 18.5422 36.5607 21.1726 36.559 23.8987Z" fill="#745EFF"/>
<path opacity="0.1" d="M26.6949 12.9076C25.8327 12.7964 24.9598 12.7964 24.0977 12.9076C26.7681 13.2398 29.2252 14.5362 31.0068 16.5531C32.7883 18.57 33.7716 21.1683 33.7716 23.8593C33.7716 26.5504 32.7883 29.1487 31.0068 31.1656C29.2252 33.1825 26.7681 34.4789 24.0977 34.8111C24.9598 34.9222 25.8327 34.9222 26.6949 34.8111C29.4024 34.5147 31.9052 33.2293 33.7234 31.2013C35.5415 29.1733 36.5469 26.5455 36.5469 23.8218C36.5469 21.0982 35.5415 18.4704 33.7234 16.4424C31.9052 14.4144 29.4024 13.1289 26.6949 12.8326V12.9076Z" fill="#010D4C"/>
<path d="M29.9925 25.3053C31.0282 25.3053 31.8678 24.4657 31.8678 23.43C31.8678 22.3943 31.0282 21.5547 29.9925 21.5547C28.9568 21.5547 28.1172 22.3943 28.1172 23.43C28.1172 24.4657 28.9568 25.3053 29.9925 25.3053Z" fill="white"/>
<path d="M46.8726 17.8043C46.061 17.804 45.2511 17.8793 44.4535 18.0294C43.3663 13.6035 40.7045 9.72497 36.9657 7.1188C33.2269 4.51262 28.667 3.35717 24.1383 3.8684C19.6096 4.37963 15.4221 6.52256 12.3584 9.89664C9.29469 13.2707 7.56457 17.645 7.4914 22.2019C4.99141 23.0884 2.88498 24.8296 1.54394 27.1181C0.202908 29.4067 -0.286498 32.0954 0.162115 34.7097C0.610729 37.324 1.96852 39.6958 3.99579 41.4063C6.02307 43.1168 8.58948 44.0562 11.242 44.0585H14.9926C15.4899 44.0585 15.9669 43.8609 16.3186 43.5092C16.6703 43.1575 16.8679 42.6805 16.8679 42.1832C16.8679 41.6858 16.6703 41.2088 16.3186 40.8571C15.9669 40.5055 15.4899 40.3079 14.9926 40.3079H11.242C9.37763 40.3098 7.57939 39.6173 6.19779 38.3655C4.8162 37.1137 3.95027 35.3923 3.76882 33.5368C3.58736 31.6813 4.10339 29.8247 5.2163 28.329C6.32921 26.8332 7.95923 25.8055 9.78863 25.4462C10.2439 25.3554 10.6492 25.099 10.9264 24.7267C11.2035 24.3543 11.3326 23.8923 11.2889 23.4302C11.1168 19.5832 12.4307 15.8173 14.9584 12.9122C17.4861 10.0071 21.0342 8.18526 24.8681 7.8238C28.7019 7.46234 32.528 8.58897 35.5541 10.9705C38.5803 13.3519 40.5748 16.8059 41.1248 20.6173C41.1608 20.8973 41.2595 21.1655 41.4136 21.402C41.5677 21.6385 41.7732 21.8372 42.0147 21.9832C42.2563 22.1292 42.5277 22.2188 42.8087 22.2453C43.0897 22.2718 43.3731 22.2345 43.6377 22.1363C45.0545 21.6155 46.576 21.4445 48.073 21.6377C49.5699 21.831 50.9982 22.3827 52.2362 23.2462C53.4743 24.1096 54.4856 25.2591 55.1842 26.5971C55.8829 27.9351 56.2482 29.422 56.2491 30.9314C56.2491 36.9605 50.7638 41.0111 44.9973 40.3079C44.4999 40.3079 44.023 40.5055 43.6713 40.8571C43.3196 41.2088 43.122 41.6858 43.122 42.1832C43.122 42.6805 43.3196 43.1575 43.6713 43.5092C44.023 43.8609 44.4999 44.0585 44.9973 44.0585C52.8454 44.8555 60.0559 38.9858 59.9997 30.9314C59.9997 27.4499 58.6166 24.111 56.1548 21.6492C53.693 19.1874 50.3541 17.8043 46.8726 17.8043Z" fill="#010D4C"/>
<path d="M23.2145 28.2583C22.8712 28.117 22.4937 28.0808 22.1298 28.1543C21.7659 28.2277 21.432 28.4075 21.1704 28.6709L16.4822 33.3591C16.175 33.7178 16.0144 34.1793 16.0326 34.6513C16.0509 35.1232 16.2465 35.5709 16.5805 35.9049C16.9145 36.2389 17.3622 36.4346 17.8342 36.4528C18.3061 36.471 18.7676 36.3105 19.1263 36.0033L20.6172 34.5218V54.3718C20.6172 54.8691 20.8148 55.3461 21.1665 55.6978C21.5182 56.0495 21.9951 56.2471 22.4925 56.2471C22.9899 56.2471 23.4668 56.0495 23.8185 55.6978C24.1702 55.3461 24.3678 54.8691 24.3678 54.3718V29.9929C24.3686 29.6222 24.2594 29.2595 24.0541 28.9508C23.8489 28.642 23.5567 28.401 23.2145 28.2583ZM40.861 48.3615L39.3702 49.8429V29.9929C39.3702 29.4956 39.1726 29.0186 38.8209 28.6669C38.4692 28.3152 37.9922 28.1176 37.4949 28.1176C36.9975 28.1176 36.5205 28.3152 36.1688 28.6669C35.8171 29.0186 35.6196 29.4956 35.6196 29.9929V54.3718C35.6211 54.7415 35.732 55.1026 35.9381 55.4095C36.1443 55.7165 36.4366 55.9556 36.7783 56.0969C37.12 56.2382 37.4958 56.2753 37.8585 56.2036C38.2213 56.1319 38.5547 55.9545 38.817 55.6939L43.5052 51.0056C43.8124 50.6469 43.973 50.1854 43.9547 49.7134C43.9365 49.2415 43.7408 48.7938 43.4069 48.4598C43.0729 48.1258 42.6252 47.9302 42.1532 47.9119C41.6812 47.8937 41.2198 48.0542 40.861 48.3615ZM29.9937 41.2447C29.4963 41.2447 29.0193 41.4423 28.6677 41.794C28.316 42.1457 28.1184 42.6226 28.1184 43.12V47.8082C28.1184 48.3056 28.316 48.7826 28.6677 49.1343C29.0193 49.486 29.4963 49.6835 29.9937 49.6835C30.491 49.6835 30.968 49.486 31.3197 49.1343C31.6714 48.7826 31.869 48.3056 31.869 47.8082V43.12C31.869 42.6226 31.6714 42.1457 31.3197 41.794C30.968 41.4423 30.491 41.2447 29.9937 41.2447ZM29.9937 29.0553C29.4963 29.0553 29.0193 29.2529 28.6677 29.6046C28.316 29.9562 28.1184 30.4332 28.1184 30.9306V35.6188C28.1184 36.1162 28.316 36.5932 28.6677 36.9449C29.0193 37.2965 29.4963 37.4941 29.9937 37.4941C30.491 37.4941 30.968 37.2965 31.3197 36.9449C31.6714 36.5932 31.869 36.1162 31.869 35.6188V30.9306C31.869 30.4332 31.6714 29.9562 31.3197 29.6046C30.968 29.2529 30.491 29.0553 29.9937 29.0553Z" fill="#010D4C"/>
</svg>
