<svg width="38" height="38" viewBox="0 0 38 38" fill="none" xmlns="http://www.w3.org/2000/svg">
<path d="M35.7902 0.879883H2.20885C1.23272 0.879883 0.441406 1.67119 0.441406 2.64732V4.41477C0.441406 5.3909 1.23272 6.18221 2.20885 6.18221H35.7902C36.7664 6.18221 37.5577 5.3909 37.5577 4.41477V2.64732C37.5577 1.67119 36.7664 0.879883 35.7902 0.879883Z" fill="#745EFF"/>
<path d="M34.9067 3.08984H3.09271C2.60464 3.08984 2.20898 3.4855 2.20898 3.97356C2.20898 4.46163 2.60464 4.85729 3.09271 4.85729H34.9067C35.3947 4.85729 35.7904 4.46163 35.7904 3.97356C35.7904 3.4855 35.3947 3.08984 34.9067 3.08984Z" fill="#745EFF"/>
<path d="M21.2091 34.9037C21.2112 35.1601 21.1663 35.4147 21.0766 35.6549C20.9503 36.0048 20.7378 36.3172 20.4586 36.5631C20.1794 36.809 19.8427 36.9804 19.4796 37.0614C19.1165 37.1425 18.7389 37.1305 18.3817 37.0267C18.0244 36.9228 17.6992 36.7304 17.4362 36.4674C17.1731 36.2043 16.9807 35.8791 16.8769 35.5219C16.773 35.1647 16.7611 34.787 16.8421 34.4239C16.9232 34.0608 17.0946 33.7241 17.3404 33.4449C17.5863 33.1658 17.8987 32.9532 18.2487 32.827C18.4889 32.7372 18.7435 32.6923 18.9998 32.6944C19.5858 32.6944 20.1477 32.9272 20.562 33.3415C20.9764 33.7558 21.2091 34.3178 21.2091 34.9037Z" fill="white"/>
<path d="M21.2103 34.9037C21.2124 35.1601 21.1674 35.4147 21.0777 35.6549C20.8375 35.7446 20.5829 35.7895 20.3266 35.7874C19.7406 35.7874 19.1787 35.5547 18.7643 35.1403C18.35 34.726 18.1173 34.1641 18.1173 33.5781C18.1152 33.3217 18.1601 33.0671 18.2498 32.827C18.49 32.7372 18.7446 32.6923 19.001 32.6944C19.5869 32.6944 20.1489 32.9272 20.5632 33.3415C20.9775 33.7558 21.2103 34.3178 21.2103 34.9037Z" fill="white"/>
<path d="M34.4654 3.53125V28.2754C34.464 28.7438 34.2773 29.1925 33.9462 29.5237C33.615 29.8548 33.1663 30.0415 32.6979 30.0429H5.3026C4.83427 30.0415 4.38553 29.8548 4.05437 29.5237C3.72322 29.1925 3.53655 28.7438 3.53516 28.2754V3.53125H34.4654Z" fill="white"/>
<path d="M3.53516 3.53125H34.4654V4.85683H3.53516V3.53125ZM17.6747 17.6708V9.7173C17.0803 9.71838 16.4877 9.78356 15.9072 9.91171V9.7173C13.7979 9.7173 11.7749 10.5553 10.2833 12.0468C8.79172 13.5384 7.95376 15.5614 7.95376 17.6708C7.95376 19.7802 8.79172 21.8032 10.2833 23.2948C11.7749 24.7863 13.7979 25.6243 15.9072 25.6243C16.2026 25.6245 16.4977 25.6068 16.791 25.5712C17.0842 25.6068 17.3793 25.6245 17.6747 25.6243C19.7841 25.6243 21.8071 24.7863 23.2987 23.2948C24.7902 21.8032 25.6282 19.7802 25.6282 17.6708H17.6747Z" fill="white"/>
<path d="M25.6277 17.6713C25.6277 19.7807 24.7898 21.8037 23.2982 23.2952C21.8066 24.7868 19.7836 25.6248 17.6742 25.6248C17.3789 25.625 17.0837 25.6073 16.7905 25.5717C14.9225 25.3634 13.1887 24.5002 11.8965 23.1353C10.6044 21.7704 9.83729 19.992 9.73139 18.1154C9.62549 16.2388 10.1876 14.3854 11.318 12.8838C12.4484 11.3822 14.0741 10.3294 15.9068 9.91219C16.4872 9.78404 17.0798 9.71886 17.6742 9.71777V17.6713H25.6277Z" fill="#745EFF"/>
<path d="M26.653 16.3457H19.2881C19.2117 16.3457 19.1384 16.3154 19.0844 16.2613C19.0304 16.2073 19 16.134 19 16.0576V8.69269C19 8.6534 19.0078 8.61451 19.023 8.57829C19.0383 8.54207 19.0606 8.50925 19.0886 8.48176C19.1167 8.45427 19.15 8.43266 19.1865 8.41819C19.223 8.40373 19.2621 8.3967 19.3013 8.39753C21.3052 8.4734 23.2064 9.30341 24.6244 10.7214C26.0423 12.1393 26.8723 14.0405 26.9482 16.0444C26.949 16.0836 26.942 16.1227 26.9275 16.1592C26.9131 16.1957 26.8914 16.229 26.864 16.2571C26.8365 16.2852 26.8036 16.3074 26.7674 16.3227C26.7312 16.3379 26.6923 16.3457 26.653 16.3457Z" fill="white"/>
<path d="M28.2797 15.0199H20.3262V7.06641C22.4356 7.06641 24.4586 7.90436 25.9501 9.39593C27.4417 10.8875 28.2797 12.9105 28.2797 15.0199Z" fill="white"/>
<path d="M35.7907 0.438477H2.2093C1.62336 0.438477 1.06141 0.671242 0.64709 1.08557C0.232765 1.49989 0 2.06184 0 2.64778V4.41522C0 5.00116 0.232765 5.56311 0.64709 5.97743C1.06141 6.39176 1.62336 6.62452 2.2093 6.62452H3.09302V28.2757C3.09302 28.5658 3.15017 28.8531 3.2612 29.1211C3.37222 29.3892 3.53496 29.6327 3.74011 29.8379C3.94527 30.0431 4.18882 30.2058 4.45686 30.3168C4.72491 30.4278 5.0122 30.485 5.30233 30.485H18.5581V32.2966C17.9027 32.4074 17.3128 32.7604 16.9053 33.2856C16.4978 33.8108 16.3025 34.47 16.3581 35.1324C16.4137 35.7948 16.7161 36.4122 17.2054 36.8622C17.6948 37.3121 18.3352 37.5619 19 37.5619C19.6648 37.5619 20.3052 37.3121 20.7946 36.8622C21.2839 36.4122 21.5863 35.7948 21.6419 35.1324C21.6975 34.47 21.5022 33.8108 21.0947 33.2856C20.6872 32.7604 20.0973 32.4074 19.4419 32.2966V30.485H32.6977C32.9878 30.485 33.2751 30.4278 33.5431 30.3168C33.8112 30.2058 34.0547 30.0431 34.2599 29.8379C34.465 29.6327 34.6278 29.3892 34.7388 29.1211C34.8498 28.8531 34.907 28.5658 34.907 28.2757V6.62452H35.7907C36.3766 6.62452 36.9386 6.39176 37.3529 5.97743C37.7672 5.56311 38 5.00116 38 4.41522V2.64778C38 2.06184 37.7672 1.49989 37.3529 1.08557C36.9386 0.671242 36.3766 0.438477 35.7907 0.438477ZM20.7674 34.9036C20.7674 35.2532 20.6638 35.5949 20.4696 35.8855C20.2754 36.1762 19.9993 36.4027 19.6764 36.5365C19.3534 36.6703 18.998 36.7053 18.6552 36.6371C18.3123 36.5689 17.9974 36.4005 17.7502 36.1534C17.503 35.9062 17.3347 35.5913 17.2665 35.2484C17.1983 34.9056 17.2333 34.5502 17.3671 34.2272C17.5009 33.9043 17.7274 33.6282 18.0181 33.434C18.3087 33.2398 18.6504 33.1362 19 33.1362C19.4683 33.1376 19.9171 33.3242 20.2482 33.6554C20.5794 33.9865 20.766 34.4353 20.7674 34.9036ZM34.0233 28.2757C34.0233 28.6273 33.8836 28.9644 33.635 29.213C33.3864 29.4616 33.0492 29.6013 32.6977 29.6013H5.30233C4.95076 29.6013 4.61359 29.4616 4.365 29.213C4.1164 28.9644 3.97674 28.6273 3.97674 28.2757V3.97336H34.0233V28.2757ZM37.1163 4.41522C37.1163 4.76679 36.9766 5.10395 36.728 5.35255C36.4794 5.60114 36.1423 5.7408 35.7907 5.7408H34.907V3.97336H35.7907C35.9079 3.97336 36.0203 3.92681 36.1031 3.84394C36.186 3.76108 36.2326 3.64869 36.2326 3.5315C36.2326 3.41431 36.186 3.30192 36.1031 3.21906C36.0203 3.13619 35.9079 3.08964 35.7907 3.08964H2.2093C2.09211 3.08964 1.97972 3.13619 1.89686 3.21906C1.81399 3.30192 1.76744 3.41431 1.76744 3.5315C1.76744 3.64869 1.81399 3.76108 1.89686 3.84394C1.97972 3.92681 2.09211 3.97336 2.2093 3.97336H3.09302V5.7408H2.2093C1.85774 5.7408 1.52057 5.60114 1.27197 5.35255C1.02338 5.10395 0.883721 4.76679 0.883721 4.41522V2.64778C0.883721 2.29621 1.02338 1.95905 1.27197 1.71045C1.52057 1.46186 1.85774 1.3222 2.2093 1.3222H35.7907C36.1423 1.3222 36.4794 1.46186 36.728 1.71045C36.9766 1.95905 37.1163 2.29621 37.1163 2.64778V4.41522Z" fill="#745EFF"/>
<path d="M25.6281 17.2289H18.1165V9.71725C18.1165 9.60006 18.07 9.48767 17.9871 9.40481C17.9042 9.32194 17.7918 9.27539 17.6747 9.27539C16.0142 9.27539 14.3911 9.76777 13.0104 10.6903C11.6298 11.6128 10.5538 12.9239 9.91836 14.458C9.28294 15.992 9.11668 17.6801 9.44061 19.3086C9.76455 20.9371 10.5641 22.433 11.7382 23.6071C12.9124 24.7813 14.4083 25.5808 16.0368 25.9048C17.6653 26.2287 19.3534 26.0625 20.8874 25.427C22.4215 24.7916 23.7326 23.7156 24.6551 22.3349C25.5776 20.9543 26.07 19.3312 26.07 17.6707C26.07 17.5536 26.0234 17.4412 25.9406 17.3583C25.8577 17.2754 25.7453 17.2289 25.6281 17.2289ZM17.6747 25.1824C15.7055 25.2056 13.806 24.4546 12.3852 23.0911C10.9643 21.7276 10.1357 19.8606 10.0778 17.8922C10.0198 15.9238 10.7372 14.0114 12.0754 12.5667C13.4137 11.122 15.2657 10.2606 17.2328 10.1679V17.6707C17.2328 17.7879 17.2793 17.9003 17.3622 17.9832C17.4451 18.066 17.5575 18.1126 17.6747 18.1126H25.1774C25.0624 20.0249 24.222 21.8212 22.8277 23.135C21.4335 24.4488 19.5904 25.1811 17.6747 25.1824Z" fill="#745EFF"/>
<path d="M20.3247 6.625C20.2075 6.625 20.0951 6.67155 20.0122 6.75442C19.9294 6.83728 19.8828 6.94967 19.8828 7.06686V15.0203C19.8828 15.1375 19.9294 15.2499 20.0122 15.3328C20.0951 15.4157 20.2075 15.4622 20.3247 15.4622H28.2782C28.3954 15.4622 28.5077 15.4157 28.5906 15.3328C28.6735 15.2499 28.72 15.1375 28.72 15.0203C28.7179 12.7944 27.8327 10.6602 26.2588 9.08627C24.6848 7.51229 22.5506 6.62711 20.3247 6.625ZM20.7665 14.5785V7.51756C22.6029 7.62864 24.335 8.40822 25.6359 9.7091C26.9368 11.01 27.7164 12.7421 27.8275 14.5785H20.7665Z" fill="#745EFF"/>
</svg>
