<svg width="40" height="40" viewBox="0 0 40 40" fill="none" xmlns="http://www.w3.org/2000/svg">
<path d="M13.8053 35.6859H10.403C10.1063 35.6824 9.81771 35.5883 9.57603 35.4161C9.33436 35.2439 9.15112 35.002 9.05091 34.7227L6.19653 26.8488L5.07422 23.7559H11.5606L12.6829 26.8488L15.1573 33.6711C15.2417 33.8932 15.2716 34.1323 15.2446 34.3684C15.2175 34.6044 15.1343 34.8306 15.0019 35.0279C14.8695 35.2252 14.6918 35.3879 14.4836 35.5024C14.2754 35.6169 14.0428 35.6798 13.8053 35.6859Z" fill="white"/>
<path d="M13.804 35.6857H10.4018C10.105 35.6822 9.81649 35.5881 9.57482 35.4159C9.33314 35.2437 9.1499 35.0018 9.04969 34.7225L6.19531 26.8486H12.6817L15.1561 33.6709C15.2405 33.893 15.2704 34.1321 15.2434 34.3682C15.2163 34.6042 15.1331 34.8304 15.0007 35.0277C14.8683 35.225 14.6906 35.3877 14.4824 35.5022C14.2742 35.6167 14.0416 35.6796 13.804 35.6857Z" fill="white"/>
<path d="M38.5581 14.3442V21.679C38.5657 22.0207 38.4737 22.3573 38.2932 22.6476C38.1127 22.9379 37.8516 23.1694 37.5418 23.3138L34.5195 24.6394V11.3838L36.7907 12.3824L37.5418 12.7094C37.8516 12.8538 38.1127 13.0852 38.2932 13.3756C38.4737 13.6659 38.5657 14.0025 38.5581 14.3442Z" fill="#745EFF"/>
<path d="M38.5584 14.3437V21.5459H38.037C37.8733 21.5461 37.7112 21.5141 37.5599 21.4515C37.4087 21.389 37.2712 21.2972 37.1555 21.1815C37.0397 21.0657 36.9479 20.9283 36.8854 20.777C36.8229 20.6257 36.7908 20.4636 36.791 20.2999V12.3818L37.5422 12.7088C37.852 12.8532 38.1131 13.0847 38.2936 13.375C38.474 13.6653 38.5661 14.0019 38.5584 14.3437Z" fill="#745EFF"/>
<path d="M15.1566 10.5V25.523H3.20882C2.7405 25.5216 2.29177 25.335 1.96062 25.0038C1.62946 24.6727 1.4428 24.2239 1.44141 23.7556V12.2674C1.4428 11.7991 1.62946 11.3504 1.96062 11.0192C2.29177 10.6881 2.7405 10.5014 3.20882 10.5H15.1566Z" fill="white"/>
<path d="M12.5054 10.5V25.523H3.20882C2.7405 25.5216 2.29177 25.335 1.96062 25.0038C1.62946 24.6727 1.4428 24.2239 1.44141 23.7556V12.2674C1.4428 11.7991 1.62946 11.3504 1.96062 11.0192C2.29177 10.6881 2.7405 10.5014 3.20882 10.5H12.5054Z" fill="white"/>
<path d="M9.79871 13.1514H4.78455C4.05246 13.1514 3.45898 13.7448 3.45898 14.4769C3.45898 15.209 4.05246 15.8025 4.78455 15.8025H9.79871C10.5308 15.8025 11.1243 15.209 11.1243 14.4769C11.1243 13.7448 10.5308 13.1514 9.79871 13.1514Z" fill="white"/>
<path d="M9.79871 18.4531H4.78455C4.05246 18.4531 3.45898 19.0466 3.45898 19.7787C3.45898 20.5108 4.05246 21.1042 4.78455 21.1042H9.79871C10.5308 21.1042 11.1243 20.5108 11.1243 19.7787C11.1243 19.0466 10.5308 18.4531 9.79871 18.4531Z" fill="white"/>
<path d="M32.106 5.19727V30.8248L29.7199 30.2416L15.2095 26.7156C14.8384 26.6077 14.5133 26.3803 14.2847 26.0687C14.0562 25.7571 13.937 25.3787 13.9458 24.9923V11.0297C13.937 10.6434 14.0562 10.265 14.2847 9.95335C14.5133 9.64172 14.8384 9.41432 15.2095 9.30651L29.7199 5.78051L32.106 5.19727Z" fill="#745EFF"/>
<path d="M29.7199 5.78125V30.2423L15.2095 26.7163C14.8384 26.6085 14.5133 26.3811 14.2847 26.0695C14.0562 25.7578 13.937 25.3794 13.9458 24.9931V11.0305C13.937 10.6441 14.0562 10.2657 14.2847 9.95409C14.5133 9.64245 14.8384 9.41506 15.2095 9.30725L29.7199 5.78125Z" fill="#745EFF"/>
<path d="M35.331 6.33098C35.331 5.21674 34.4279 4.31348 33.3139 4.31348C32.1999 4.31348 31.2969 5.21674 31.2969 6.33098V29.6909C31.2969 30.8052 32.1999 31.7084 33.3139 31.7084C34.4279 31.7084 35.331 30.8052 35.331 29.6909V6.33098Z" fill="white"/>
<path d="M9.79915 12.709H4.78499C4.31625 12.709 3.8667 12.8952 3.53524 13.2266C3.20379 13.5581 3.01758 14.0077 3.01758 14.4764C3.01758 14.9451 3.20379 15.3947 3.53524 15.7262C3.8667 16.0576 4.31625 16.2438 4.78499 16.2438H9.79915C10.2679 16.2438 10.7175 16.0576 11.0489 15.7262C11.3804 15.3947 11.5666 14.9451 11.5666 14.4764C11.5666 14.0077 11.3804 13.5581 11.0489 13.2266C10.7175 12.8952 10.2679 12.709 9.79915 12.709ZM9.79915 15.3601H4.78499C4.55062 15.3601 4.32585 15.267 4.16012 15.1013C3.99439 14.9355 3.90129 14.7108 3.90129 14.4764C3.90129 14.242 3.99439 14.0173 4.16012 13.8515C4.32585 13.6858 4.55062 13.5927 4.78499 13.5927H9.79915C10.0335 13.5927 10.2583 13.6858 10.424 13.8515C10.5898 14.0173 10.6829 14.242 10.6829 14.4764C10.6829 14.7108 10.5898 14.9355 10.424 15.1013C10.2583 15.267 10.0335 15.3601 9.79915 15.3601ZM9.79915 18.0112H4.78499C4.31625 18.0112 3.8667 18.1974 3.53524 18.5289C3.20379 18.8604 3.01758 19.3099 3.01758 19.7786C3.01758 20.2474 3.20379 20.6969 3.53524 21.0284C3.8667 21.3599 4.31625 21.5461 4.78499 21.5461H9.79915C10.2679 21.5461 10.7175 21.3599 11.0489 21.0284C11.3804 20.6969 11.5666 20.2474 11.5666 19.7786C11.5666 19.3099 11.3804 18.8604 11.0489 18.5289C10.7175 18.1974 10.2679 18.0112 9.79915 18.0112ZM9.79915 20.6624H4.78499C4.55062 20.6624 4.32585 20.5693 4.16012 20.4035C3.99439 20.2378 3.90129 20.013 3.90129 19.7786C3.90129 19.5443 3.99439 19.3195 4.16012 19.1538C4.32585 18.988 4.55062 18.8949 4.78499 18.8949H9.79915C10.0335 18.8949 10.2583 18.988 10.424 19.1538C10.5898 19.3195 10.6829 19.5443 10.6829 19.7786C10.6829 20.013 10.5898 20.2378 10.424 20.4035C10.2583 20.5693 10.0335 20.6624 9.79915 20.6624Z" fill="#745EFF"/>
<path d="M37.719 12.3044L35.7748 11.449V6.32878C35.7715 5.67822 35.5117 5.05524 35.0517 4.59522C34.5916 4.1352 33.9686 3.87533 33.3181 3.87207C32.922 3.87142 32.5318 3.96772 32.1815 4.15256C31.8312 4.33741 31.5315 4.60519 31.3085 4.93252L15.1022 8.87828C14.8011 8.9605 14.5222 9.10915 14.2861 9.31331C14.05 9.51747 13.8626 9.77194 13.7378 10.058H3.20927C2.62334 10.058 2.0614 10.2908 1.64708 10.7051C1.23276 11.1194 1 11.6814 1 12.2673V23.7555C1 24.3414 1.23276 24.9034 1.64708 25.3177C2.0614 25.732 2.62334 25.9648 3.20927 25.9648H5.40882L8.63612 34.8761C8.76865 35.2396 9.00879 35.554 9.32454 35.7776C9.6403 36.0011 10.0167 36.1232 10.4035 36.1274H13.8058C14.113 36.1179 14.4136 36.0358 14.6829 35.8876C14.9522 35.7395 15.1826 35.5296 15.3551 35.2752C15.5275 35.0208 15.6372 34.7291 15.6752 34.4241C15.7131 34.119 15.6782 33.8094 15.5732 33.5205L12.8337 25.9648H13.7369C13.8621 26.2511 14.0499 26.5057 14.2864 26.7099C14.523 26.9141 14.8024 27.0626 15.104 27.1445L31.3112 31.085C31.5333 31.4127 31.8322 31.6812 32.1818 31.867C32.5315 32.0527 32.9213 32.1501 33.3172 32.1507C33.9687 32.15 34.5933 31.8909 35.0539 31.4301C35.5145 30.9693 35.7734 30.3446 35.7739 29.6931V24.5738L37.7181 23.7202C38.108 23.5426 38.4372 23.2546 38.665 22.8917C38.8928 22.5288 39.0091 22.1071 38.9994 21.6788V14.344C39.009 13.916 38.8928 13.4947 38.6652 13.1321C38.4376 12.7696 38.1086 12.4818 37.719 12.3044ZM14.7425 33.8209C14.8012 33.9764 14.8222 34.1436 14.8038 34.3087C14.7854 34.4739 14.7282 34.6323 14.6368 34.7711C14.5454 34.9099 14.4225 35.025 14.2781 35.1072C14.1336 35.1893 13.9718 35.2361 13.8058 35.2437H10.4027C10.1968 35.24 9.99696 35.1738 9.82964 35.0539C9.66233 34.9339 9.53547 34.7659 9.46592 34.5721L6.34909 25.9648H11.8961L14.7425 33.8209ZM12.2063 25.0811H3.20927C2.85771 25.0811 2.52055 24.9414 2.27196 24.6928C2.02336 24.4442 1.88371 24.1071 1.88371 23.7555V12.2673C1.88371 11.9157 2.02336 11.5786 2.27196 11.33C2.52055 11.0814 2.85771 10.9417 3.20927 10.9417H13.5062V25.0811H12.2063ZM15.3161 26.2864C15.0431 26.1989 14.8055 26.0258 14.6384 25.7929C14.4713 25.5599 14.3836 25.2794 14.3882 24.9927V11.0301C14.3837 10.7434 14.4714 10.4628 14.6385 10.2297C14.8055 9.99658 15.0431 9.82333 15.3161 9.73548L30.8808 5.94879C30.8234 6.93501 30.8234 29.0834 30.8808 30.074L15.3161 26.2864ZM34.8902 29.6931C34.9158 31.7451 31.7133 31.7257 31.7354 29.6931V6.32878C31.6974 4.33956 34.922 4.28653 34.8902 6.32878V29.6931ZM38.1157 21.6788C38.1224 21.9346 38.0548 22.1869 37.9212 22.4052C37.7876 22.6235 37.5937 22.7984 37.3628 22.9089L35.7721 23.6079V12.414L37.3628 13.1148C37.5935 13.2252 37.7874 13.4 37.921 13.6181C38.0546 13.8362 38.1222 14.0883 38.1157 14.344V21.6788Z" fill="#745EFF"/>
</svg>
