<svg width="80" height="80" viewBox="0 0 80 80" fill="none" xmlns="http://www.w3.org/2000/svg">
<path d="M64.6012 47.5883L62.1012 46.2008C63.3509 42.1619 63.3509 37.8397 62.1012 33.8008L64.6012 32.4133C64.9743 32.2186 65.304 31.9503 65.5704 31.6246C65.8369 31.2988 66.0345 30.9225 66.1513 30.5182C66.2681 30.1139 66.3018 29.6902 66.2502 29.2725C66.1986 28.8549 66.0629 28.452 65.8512 28.0883L63.6512 24.4134C63.1952 23.6772 62.4719 23.1463 61.6329 22.9319C60.7939 22.7175 59.9045 22.8363 59.1512 23.2634L56.6512 24.6383C53.5978 21.5525 49.7386 19.3868 45.5138 18.3884V15.6759C45.5057 15.2496 45.4134 14.8292 45.2424 14.4387C45.0714 14.0481 44.8249 13.6952 44.5171 13.4002C44.2093 13.1052 43.8463 12.8739 43.4489 12.7196C43.0515 12.5653 42.6275 12.4909 42.2013 12.5009H37.8013C36.9448 12.4875 36.1178 12.8141 35.5016 13.4092C34.8855 14.0043 34.5302 14.8194 34.5138 15.6759V18.4509C30.289 19.4493 26.4298 21.615 23.3763 24.7009L20.8763 23.3259C20.1231 22.8988 19.2337 22.78 18.3947 22.9944C17.5557 23.2088 16.8324 23.7397 16.3764 24.4759L14.1764 28.1508C13.9647 28.5145 13.8289 28.9174 13.7774 29.335C13.7258 29.7527 13.7594 30.1764 13.8763 30.5807C13.9931 30.985 14.1907 31.3613 14.4572 31.6871C14.7236 32.0128 15.0533 32.2811 15.4264 32.4758L17.9264 33.8633C16.6767 37.9022 16.6767 42.2244 17.9264 46.2633L15.4264 47.6508C15.0533 47.8455 14.7236 48.1138 14.4572 48.4395C14.1907 48.7653 13.9931 49.1417 13.8763 49.5459C13.7594 49.9502 13.7258 50.374 13.7774 50.7916C13.8289 51.2092 13.9647 51.6121 14.1764 51.9758L16.3764 55.6508C16.8324 56.3869 17.5557 56.9178 18.3947 57.1322C19.2337 57.3466 20.1231 57.2278 20.8763 56.8008L23.3763 55.4258C26.4298 58.5117 30.289 60.6773 34.5138 61.6758V64.4507C34.5621 65.2852 34.9312 66.0686 35.544 66.6371C36.1567 67.2056 36.9656 67.515 37.8013 67.5007H42.2013C43.0578 67.5141 43.8848 67.1875 44.5009 66.5924C45.1171 65.9973 45.4723 65.1822 45.4888 64.3257V61.5508C49.7136 60.5523 53.5728 58.3867 56.6262 55.3008L59.1262 56.6758C59.8795 57.1028 60.7689 57.2216 61.6079 57.0072C62.4468 56.7928 63.1702 56.2619 63.6262 55.5258L65.8262 51.8508C66.0288 51.4912 66.1579 51.095 66.2059 50.685C66.254 50.2751 66.22 49.8598 66.106 49.4631C65.992 49.0664 65.8003 48.6964 65.5419 48.3745C65.2836 48.0527 64.9638 47.7854 64.6012 47.5883Z" fill="white"/>
<path d="M40 51.2499C46.2132 51.2499 51.2499 46.2132 51.2499 40C51.2499 33.7868 46.2132 28.75 40 28.75C33.7868 28.75 28.75 33.7868 28.75 40C28.75 46.2132 33.7868 51.2499 40 51.2499Z" fill="#F8BC26"/>
<path opacity="0.1" d="M39.2382 15.6754V16.5629C39.2412 17.0879 39.4095 17.5987 39.7191 18.0228C40.0287 18.4468 40.464 18.7626 40.9632 18.9254C43.9616 19.8794 46.7375 21.4267 49.1257 23.4754C49.5118 23.8042 49.9888 24.0078 50.4934 24.0591C50.998 24.1105 51.5062 24.0072 51.9507 23.7629L52.8632 23.2629C53.3885 22.9662 53.9851 22.8192 54.5882 22.8379C51.9127 20.7268 48.8062 19.229 45.4882 18.4504V15.6754C45.4718 14.8189 45.1166 14.0038 44.5004 13.4087C43.8842 12.8136 43.0572 12.487 42.2007 12.5004H37.8007C37.4868 12.5054 37.1752 12.556 36.8757 12.6504C37.5457 12.8277 38.1393 13.2193 38.5658 13.7655C38.9924 14.3117 39.2285 14.9824 39.2382 15.6754ZM17.1258 24.6379C17.7693 23.9987 18.4496 23.3977 19.1633 22.8379C18.6336 22.8461 18.1137 22.9823 17.6479 23.2348C17.1822 23.4872 16.7843 23.8485 16.4883 24.2879L17.1258 24.6379ZM52.8632 56.7378L51.9507 56.2378C51.5062 55.9935 50.998 55.8902 50.4934 55.9415C49.9888 55.9929 49.5118 56.1965 49.1257 56.5253C46.7375 58.5739 43.9616 60.1213 40.9632 61.0753C40.464 61.238 40.0287 61.5538 39.7191 61.9779C39.4095 62.4019 39.2412 62.9127 39.2382 63.4378V64.3253C39.2285 65.0182 38.9924 65.689 38.5658 66.2352C38.1393 66.7813 37.5457 67.173 36.8757 67.3503C37.1752 67.4447 37.4868 67.4952 37.8007 67.5002H42.2007C43.0572 67.5136 43.8842 67.187 44.5004 66.5919C45.1166 65.9968 45.4718 65.1817 45.4882 64.3253V61.5503C48.8062 60.7717 51.9127 59.2739 54.5882 57.1628C53.9851 57.1815 53.3885 57.0345 52.8632 56.7378ZM17.1258 55.3628L16.4883 55.7128C16.7843 56.1521 17.1822 56.5134 17.6479 56.7659C18.1137 57.0183 18.6336 57.1545 19.1633 57.1628C18.4496 56.603 17.7693 56.0019 17.1258 55.3628ZM64.6007 47.5878L62.1007 46.2003C63.3504 42.1614 63.3504 37.8392 62.1007 33.8003L64.6007 32.4128C64.9737 32.2181 65.3034 31.9498 65.5699 31.6241C65.8363 31.2984 66.0339 30.922 66.1507 30.5177C66.2676 30.1134 66.3012 29.6897 66.2496 29.272C66.1981 28.8544 66.0623 28.4516 65.8507 28.0879L63.6507 24.4129C63.1946 23.6767 62.4713 23.1458 61.6323 22.9314C60.7934 22.717 59.904 22.8358 59.1507 23.2629L57.3007 24.2879L57.4007 24.4129L59.6007 28.0879C59.8123 28.4516 59.9481 28.8544 59.9997 29.272C60.0512 29.6897 60.0176 30.1134 59.9007 30.5177C59.7839 30.922 59.5863 31.2984 59.3199 31.6241C59.0534 31.9498 58.7237 32.2181 58.3507 32.4128L57.5507 32.8628C57.0806 33.1196 56.7053 33.5205 56.4803 34.0066C56.2552 34.4927 56.1923 35.0383 56.3007 35.5628C56.9341 38.4873 56.9341 41.5134 56.3007 44.4378C56.1923 44.9624 56.2552 45.5079 56.4803 45.994C56.7053 46.4801 57.0806 46.8811 57.5507 47.1378L58.3507 47.5878C58.7237 47.7825 59.0534 48.0508 59.3199 48.3766C59.5863 48.7023 59.7839 49.0787 59.9007 49.4829C60.0176 49.8872 60.0512 50.311 59.9997 50.7286C59.9481 51.1462 59.8123 51.5491 59.6007 51.9128L57.4007 55.5878L57.3007 55.7128L59.1507 56.7378C59.904 57.1648 60.7934 57.2836 61.6323 57.0692C62.4713 56.8548 63.1946 56.3239 63.6507 55.5878L65.8507 51.9128C66.0623 51.5491 66.1981 51.1462 66.2496 50.7286C66.3012 50.311 66.2676 49.8872 66.1507 49.4829C66.0339 49.0787 65.8363 48.7023 65.5699 48.3766C65.3034 48.0508 64.9737 47.7825 64.6007 47.5878ZM40.0007 28.7504C38.943 28.7517 37.8908 28.9032 36.8757 29.2004C39.2125 29.8819 41.2652 31.303 42.7257 33.2503C44.1862 35.1977 44.9757 37.5662 44.9757 40.0003C44.9757 42.4345 44.1862 44.803 42.7257 46.7503C41.2652 48.6976 39.2125 50.1187 36.8757 50.8003C38.4241 51.2519 40.0514 51.3653 41.6474 51.1328C43.2434 50.9002 44.7708 50.3273 46.1259 49.4527C47.4811 48.5781 48.6323 47.4224 49.5016 46.0639C50.3709 44.7054 50.938 43.1758 51.1643 41.5789C51.3906 39.982 51.2709 38.3551 50.8133 36.8085C50.3557 35.262 49.571 33.8319 48.5122 32.6152C47.4534 31.3985 46.1454 30.4237 44.6769 29.7569C43.2083 29.09 41.6136 28.7468 40.0007 28.7504Z" fill="#010D4C"/>
<path d="M42.2012 69.9998H37.8012C36.975 69.9989 36.1584 69.8227 35.4054 69.4827C34.6524 69.1427 33.9801 68.6467 33.433 68.0276C32.886 67.4085 32.4766 66.6803 32.2319 65.8911C31.9872 65.102 31.9128 64.2699 32.0137 63.4499C28.7018 62.4111 25.6355 60.71 23.0012 58.4499C22.3357 58.954 21.5731 59.315 20.7613 59.5101C19.9496 59.7051 19.1062 59.73 18.2843 59.5833C17.4624 59.4365 16.6798 59.1212 15.9857 58.6573C15.2916 58.1933 14.7011 57.5907 14.2512 56.8874L12.0512 53.1999C11.6483 52.4788 11.4048 51.6797 11.3371 50.8566C11.2693 50.0334 11.3789 49.2052 11.6586 48.428C11.9382 47.6508 12.3812 46.9426 12.9579 46.3512C13.5345 45.7598 14.2313 45.299 15.0012 44.9999C14.2739 41.7063 14.2739 38.2936 15.0012 34.9999C14.2255 34.7007 13.5234 34.2374 12.9432 33.6418C12.363 33.0462 11.9182 32.3324 11.6393 31.549C11.3604 30.7657 11.2539 29.9314 11.3271 29.1031C11.4004 28.2749 11.6517 27.4722 12.0637 26.75L14.2512 23.0875C15.9887 20.175 20.2262 19.6375 23.0012 21.525C25.6387 19.2694 28.704 17.5688 32.0137 16.525C31.9187 15.7073 31.9974 14.8787 32.2445 14.0934C32.4917 13.3082 32.9018 12.584 33.4481 11.9681C33.9944 11.3522 34.6645 10.8586 35.4146 10.5194C36.1647 10.1803 36.978 10.0033 37.8012 10H42.2012C43.0268 10.0029 43.8424 10.1805 44.5944 10.5211C45.3465 10.8618 46.0179 11.3577 46.5646 11.9764C47.1112 12.5951 47.5207 13.3225 47.7662 14.1108C48.0116 14.899 48.0874 15.7303 47.9886 16.55C51.2984 17.5938 54.3636 19.2944 57.0011 21.55C57.6666 21.0458 58.4292 20.6849 59.241 20.4898C60.0528 20.2947 60.8961 20.2698 61.718 20.4166C62.5399 20.5633 63.3225 20.8786 64.0166 21.3426C64.7107 21.8065 65.3012 22.4091 65.7511 23.1125L67.9386 26.775C68.3462 27.4962 68.5939 28.2967 68.6648 29.1221C68.7357 29.9476 68.6282 30.7786 68.3496 31.5588C68.0709 32.339 67.6277 33.0501 67.0499 33.6438C66.4722 34.2376 65.7734 34.7001 65.0011 34.9999C65.7284 38.2936 65.7284 41.7063 65.0011 44.9999C65.7769 45.2992 66.4789 45.7624 67.0591 46.358C67.6394 46.9536 68.0842 47.6675 68.3631 48.4508C68.642 49.2341 68.7485 50.0685 68.6752 50.8967C68.6019 51.725 68.3507 52.5277 67.9386 53.2499L65.7511 56.9124C65.3012 57.6157 64.7107 58.2183 64.0166 58.6823C63.3225 59.1462 62.5399 59.4615 61.718 59.6083C60.8961 59.755 60.0528 59.7301 59.241 59.5351C58.4292 59.34 57.6666 58.979 57.0011 58.4749C54.3668 60.735 51.3006 62.4361 47.9886 63.4749C47.9886 63.4749 48.1761 69.9998 42.2012 69.9998ZM23.3762 52.8624C23.7061 52.8621 24.0328 52.9272 24.3374 53.0537C24.6421 53.1803 24.9186 53.3659 25.1512 53.5999C27.8989 56.3424 31.3653 58.2533 35.1512 59.1124C35.7105 59.2443 36.2073 59.565 36.5579 60.0203C36.9085 60.4757 37.0915 61.0379 37.0762 61.6124V64.3874C37.0921 64.5809 37.1838 64.7603 37.3312 64.8867C37.4787 65.0131 37.67 65.0762 37.8637 65.0624H42.2637C42.4574 65.0762 42.6487 65.0131 42.7961 64.8867C42.9436 64.7603 43.0352 64.5809 43.0512 64.3874V61.5499C43.0358 60.9754 43.2188 60.4132 43.5694 59.9578C43.9201 59.5025 44.4168 59.1818 44.9762 59.0499C48.7621 58.1908 52.2284 56.2799 54.9761 53.5374C55.3598 53.1508 55.8593 52.9 56.3985 52.8233C56.9378 52.7466 57.4873 52.8481 57.9636 53.1124L60.4636 54.4999C60.6504 54.603 60.8688 54.6333 61.0766 54.5848C61.2843 54.5363 61.4668 54.4125 61.5886 54.2374L63.7886 50.5749C63.8333 50.5006 63.8617 50.4177 63.872 50.3316C63.8822 50.2455 63.8741 50.1582 63.8481 50.0755C63.8221 49.9928 63.7788 49.9165 63.7212 49.8518C63.6635 49.787 63.5928 49.7353 63.5136 49.6999L61.0136 48.3249C60.5144 48.0468 60.1255 47.6061 59.9117 47.0762C59.6979 46.5462 59.6721 45.9591 59.8386 45.4124C60.9389 41.8453 60.9389 38.0295 59.8386 34.4624C59.6721 33.9158 59.6979 33.3286 59.9117 32.7987C60.1255 32.2687 60.5144 31.828 61.0136 31.5499L63.5136 30.1749C63.5928 30.1396 63.6635 30.0878 63.7212 30.0231C63.7788 29.9583 63.8221 29.8821 63.8481 29.7994C63.8741 29.7166 63.8822 29.6294 63.872 29.5433C63.8617 29.4572 63.8333 29.3742 63.7886 29.3L61.5886 25.6375C61.4668 25.4623 61.2843 25.3385 61.0766 25.29C60.8688 25.2416 60.6504 25.2718 60.4636 25.375L57.9636 26.7625C57.4886 27.0283 56.9399 27.1319 56.4007 27.0574C55.8615 26.983 55.3613 26.7346 54.9761 26.35C52.2325 23.5996 48.7649 21.6838 44.9762 20.825C44.4168 20.693 43.9201 20.3724 43.5694 19.917C43.2188 19.4617 43.0358 18.8995 43.0512 18.325V15.675C43.0352 15.4815 42.9436 15.302 42.7961 15.1757C42.6487 15.0493 42.4574 14.9862 42.2637 15H37.8012C37.6075 14.9862 37.4162 15.0493 37.2687 15.1757C37.1213 15.302 37.0296 15.4815 37.0137 15.675V18.45C37.029 19.0245 36.846 19.5867 36.4954 20.042C36.1448 20.4974 35.648 20.818 35.0887 20.95C31.3222 21.8197 27.8777 23.7348 25.1512 26.475C24.766 26.8596 24.2659 27.108 23.7267 27.1824C23.1875 27.2569 22.6387 27.1533 22.1637 26.8875L19.6637 25.5C19.4769 25.3968 19.2586 25.3666 19.0508 25.415C18.843 25.4635 18.6606 25.5873 18.5387 25.7625L16.3387 29.425C16.294 29.4992 16.2656 29.5822 16.2554 29.6683C16.2451 29.7544 16.2532 29.8416 16.2792 29.9244C16.3052 30.0071 16.3485 30.0833 16.4062 30.1481C16.4638 30.2128 16.5346 30.2646 16.6137 30.2999L19.1137 31.6749C19.613 31.953 20.0018 32.3937 20.2156 32.9237C20.4294 33.4536 20.4552 34.0408 20.2887 34.5874C19.1884 38.1545 19.1884 41.9703 20.2887 45.5374C20.4552 46.0841 20.4294 46.6712 20.2156 47.2012C20.0018 47.7311 19.613 48.1718 19.1137 48.4499L16.6137 49.8249C16.5346 49.8603 16.4638 49.912 16.4062 49.9768C16.3485 50.0415 16.3052 50.1178 16.2792 50.2005C16.2532 50.2832 16.2451 50.3705 16.2554 50.4566C16.2656 50.5427 16.294 50.6256 16.3387 50.6999L18.5387 54.3624C18.6606 54.5375 18.843 54.6613 19.0508 54.7098C19.2586 54.7583 19.4769 54.728 19.6637 54.6249C20.4762 54.1874 22.5012 52.7624 23.3762 52.8624Z" fill="#010D4C"/>
<path d="M40 53.7499C37.2805 53.7499 34.6221 52.9434 32.3609 51.4326C30.0998 49.9217 28.3374 47.7743 27.2967 45.2618C26.256 42.7493 25.9837 39.9846 26.5142 37.3174C27.0448 34.6502 28.3543 32.2002 30.2773 30.2772C32.2003 28.3542 34.6503 27.0447 37.3175 26.5141C39.9847 25.9836 42.7494 26.2559 45.2619 27.2966C47.7744 28.3373 49.9218 30.0997 51.4327 32.3608C52.9435 34.622 53.75 37.2804 53.75 39.9999C53.75 43.6466 52.3013 47.144 49.7227 49.7226C47.1441 52.3012 43.6467 53.7499 40 53.7499ZM40 31.2499C38.2694 31.2499 36.5777 31.7631 35.1388 32.7246C33.6998 33.686 32.5783 35.0526 31.9161 36.6514C31.2538 38.2503 31.0805 40.0096 31.4182 41.7069C31.7558 43.4043 32.5891 44.9634 33.8128 46.1871C35.0365 47.4108 36.5956 48.2441 38.293 48.5818C39.9903 48.9194 41.7496 48.7461 43.3485 48.0838C44.9473 47.4216 46.3139 46.3001 47.2753 44.8611C48.2368 43.4222 48.75 41.7305 48.75 39.9999C48.75 37.6793 47.8281 35.4537 46.1872 33.8127C44.5462 32.1718 42.3206 31.2499 40 31.2499ZM71.2499 76.2498H61.0874C60.2824 76.2436 59.5007 75.9785 58.858 75.4937C58.2152 75.0089 57.7456 74.3301 57.5185 73.5577C57.2914 72.7853 57.3189 71.9603 57.597 71.2048C57.875 70.4492 58.3888 69.8032 59.0625 69.3623C63.9559 66.1844 67.9773 61.8336 70.7607 56.7055C73.5442 51.5773 75.0014 45.8347 74.9999 39.9999C74.9999 39.3369 75.2633 38.701 75.7321 38.2321C76.201 37.7633 76.8369 37.4999 77.4999 37.4999C78.1629 37.4999 78.7988 37.7633 79.2677 38.2321C79.7365 38.701 79.9999 39.3369 79.9999 39.9999C80.0136 46.002 78.6718 51.9296 76.0745 57.3406C73.4772 62.7517 69.6915 67.5063 64.9999 71.2498H71.2499C71.913 71.2498 72.5488 71.5132 73.0177 71.982C73.4865 72.4509 73.7499 73.0868 73.7499 73.7498C73.7499 74.4128 73.4865 75.0487 73.0177 75.5176C72.5488 75.9864 71.913 76.2498 71.2499 76.2498ZM2.5001 42.4999C1.83706 42.4999 1.20117 42.2365 0.732335 41.7677C0.263495 41.2988 0.000103999 40.6629 0.000103999 39.9999C-0.0136053 33.9978 1.32824 28.0702 3.92553 22.6592C6.52281 17.2481 10.3085 12.4935 15.0001 8.74999H8.75008C8.08704 8.74999 7.45116 8.4866 6.98232 8.01776C6.51348 7.54892 6.25009 6.91303 6.25009 6.24999C6.25009 5.58695 6.51348 4.95107 6.98232 4.48223C7.45116 4.01339 8.08704 3.75 8.75008 3.75H18.9126C19.7212 3.75209 20.5075 4.01552 21.1542 4.50101C21.8009 4.9865 22.2734 5.66804 22.5011 6.44397C22.7288 7.21991 22.6996 8.04867 22.4179 8.80665C22.1361 9.56463 21.6168 10.2112 20.9376 10.65C16.0395 13.82 12.0143 18.1675 9.23009 23.2948C6.44591 28.422 4.99158 34.1655 5.00009 39.9999C5.00009 40.6629 4.7367 41.2988 4.26786 41.7677C3.79902 42.2365 3.16314 42.4999 2.5001 42.4999Z" fill="#010D4C"/>
<path d="M75 30C75 29.337 75.2634 28.7011 75.7322 28.2322C76.2011 27.7634 76.837 27.5 77.5 27.5C78.163 27.5 78.7989 27.7634 79.2678 28.2322C79.7366 28.7011 80 29.337 80 30C80 30.663 79.7366 31.2989 79.2678 31.7678C78.7989 32.2366 78.163 32.5 77.5 32.5C76.837 32.5 76.2011 32.2366 75.7322 31.7678C75.2634 31.2989 75 30.663 75 30Z" fill="#745EFF"/>
</svg>
