<svg width="80" height="80" viewBox="0 0 80 80" fill="none" xmlns="http://www.w3.org/2000/svg">
<path d="M63.75 11.875H6.25C4.17893 11.875 2.5 13.5539 2.5 15.625V59.375C2.5 61.4461 4.17893 63.125 6.25 63.125H63.75C65.8211 63.125 67.5 61.4461 67.5 59.375V15.625C67.5 13.5539 65.8211 11.875 63.75 11.875Z" fill="white"/>
<path opacity="0.1" d="M63.75 11.875H57.5C58.4946 11.875 59.4484 12.2701 60.1516 12.9733C60.8549 13.6766 61.25 14.6304 61.25 15.625V59.375C61.25 60.3696 60.8549 61.3234 60.1516 62.0266C59.4484 62.7299 58.4946 63.125 57.5 63.125H63.75C64.7446 63.125 65.6984 62.7299 66.4016 62.0266C67.1049 61.3234 67.5 60.3696 67.5 59.375V15.625C67.5 14.6304 67.1049 13.6766 66.4016 12.9733C65.6984 12.2701 64.7446 11.875 63.75 11.875Z" fill="#010D4C"/>
<path d="M30 63.125H41.25V74.375C41.25 74.7065 41.1183 75.0245 40.8839 75.2589C40.6495 75.4933 40.3315 75.625 40 75.625H31.25C30.9185 75.625 30.6005 75.4933 30.3661 75.2589C30.1317 75.0245 30 74.7065 30 74.375V63.125Z" fill="white"/>
<path d="M73.75 4.375H48.75C47.7554 4.375 46.8016 4.77009 46.0984 5.47335C45.3951 6.17661 45 7.13044 45 8.125V21.875L36.25 28.125L45 34.375V48.125C45 49.1196 45.3951 50.0734 46.0984 50.7766C46.8016 51.4799 47.7554 51.875 48.75 51.875H73.75C74.7446 51.875 75.6984 51.4799 76.4016 50.7766C77.1049 50.0734 77.5 49.1196 77.5 48.125V8.125C77.5 7.13044 77.1049 6.17661 76.4016 5.47335C75.6984 4.77009 74.7446 4.375 73.75 4.375Z" fill="#F8BC26"/>
<path opacity="0.1" d="M35 63.125V74.375C35 74.7065 34.8683 75.0245 34.6339 75.2589C34.3995 75.4933 34.0815 75.625 33.75 75.625H40C40.3315 75.625 40.6495 75.4933 40.8839 75.2589C41.1183 75.0245 41.25 74.7065 41.25 74.375V63.125H35ZM72.5 4.375H67.5C68.4946 4.375 69.4484 4.77009 70.1516 5.47335C70.8549 6.17661 71.25 7.13044 71.25 8.125V48.125C71.25 49.1196 70.8549 50.0734 70.1516 50.7766C69.4484 51.4799 68.4946 51.875 67.5 51.875H72.5C73.4946 51.875 74.4484 51.4799 75.1516 50.7766C75.8549 50.0734 76.25 49.1196 76.25 48.125V8.125C76.25 7.13044 75.8549 6.17661 75.1516 5.47335C74.4484 4.77009 73.4946 4.375 72.5 4.375Z" fill="#010D4C"/>
<path d="M60 20.625H67.5C68.163 20.625 68.7989 20.3616 69.2678 19.8928C69.7366 19.4239 70 18.788 70 18.125C70 17.462 69.7366 16.8261 69.2678 16.3572C68.7989 15.8884 68.163 15.625 67.5 15.625H63.75V14.375C63.75 13.712 63.4866 13.0761 63.0178 12.6072C62.5489 12.1384 61.913 11.875 61.25 11.875C60.587 11.875 59.9511 12.1384 59.4822 12.6072C59.0134 13.0761 58.75 13.712 58.75 14.375V15.7375C56.9051 16.0605 55.2478 17.0622 54.1041 18.5454C52.9603 20.0287 52.413 21.8862 52.5697 23.7526C52.7264 25.6191 53.5758 27.3593 54.9509 28.6311C56.3259 29.9029 58.127 30.6142 60 30.625H62.5C63.163 30.625 63.7989 30.8884 64.2678 31.3572C64.7366 31.8261 65 32.462 65 33.125C65 33.788 64.7366 34.4239 64.2678 34.8928C63.7989 35.3616 63.163 35.625 62.5 35.625H55C54.337 35.625 53.7011 35.8884 53.2322 36.3572C52.7634 36.8261 52.5 37.462 52.5 38.125C52.5 38.788 52.7634 39.4239 53.2322 39.8928C53.7011 40.3616 54.337 40.625 55 40.625H58.75V41.875C58.75 42.538 59.0134 43.1739 59.4822 43.6428C59.9511 44.1116 60.587 44.375 61.25 44.375C61.913 44.375 62.5489 44.1116 63.0178 43.6428C63.4866 43.1739 63.75 42.538 63.75 41.875V40.5125C65.5949 40.1895 67.2522 39.1878 68.3959 37.7046C69.5397 36.2213 70.087 34.3638 69.9303 32.4974C69.7736 30.6309 68.9242 28.8907 67.5491 27.6189C66.1741 26.3471 64.373 25.6358 62.5 25.625H60C59.337 25.625 58.7011 25.3616 58.2322 24.8928C57.7634 24.4239 57.5 23.788 57.5 23.125C57.5 22.462 57.7634 21.8261 58.2322 21.3572C58.7011 20.8884 59.337 20.625 60 20.625Z" fill="white"/>
<path d="M73.75 1.875H48.75C47.0924 1.875 45.5027 2.53348 44.3306 3.70558C43.1585 4.87769 42.5 6.4674 42.5 8.125V9.375H6.25C4.5924 9.375 3.00269 10.0335 1.83058 11.2056C0.65848 12.3777 0 13.9674 0 15.625L0 59.375C0 61.0326 0.65848 62.6223 1.83058 63.7944C3.00269 64.9665 4.5924 65.625 6.25 65.625H27.5V74.375C27.5 75.3696 27.8951 76.3234 28.5983 77.0266C29.3016 77.7299 30.2554 78.125 31.25 78.125H40C40.9946 78.125 41.9484 77.7299 42.6516 77.0266C43.3549 76.3234 43.75 75.3696 43.75 74.375V65.625H63.75C65.4076 65.625 66.9973 64.9665 68.1694 63.7944C69.3415 62.6223 70 61.0326 70 59.375V54.375H73.75C74.5708 54.375 75.3835 54.2133 76.1418 53.8992C76.9001 53.5852 77.5891 53.1248 78.1694 52.5444C78.7498 51.9641 79.2102 51.2751 79.5242 50.5168C79.8383 49.7585 80 48.9458 80 48.125V8.125C80 6.4674 79.3415 4.87769 78.1694 3.70558C76.9973 2.53348 75.4076 1.875 73.75 1.875ZM38.75 73.125H32.5V65.625H38.75V73.125ZM65 59.375C65 59.7065 64.8683 60.0245 64.6339 60.2589C64.3995 60.4933 64.0815 60.625 63.75 60.625H6.25C5.91848 60.625 5.60054 60.4933 5.36612 60.2589C5.1317 60.0245 5 59.7065 5 59.375V15.625C5 15.2935 5.1317 14.9755 5.36612 14.7411C5.60054 14.5067 5.91848 14.375 6.25 14.375H42.5V20.625L34.8 26.125C34.4749 26.3561 34.2099 26.6617 34.027 27.0161C33.8441 27.3706 33.7487 27.7636 33.7487 28.1625C33.7487 28.5614 33.8441 28.9544 34.027 29.3089C34.2099 29.6633 34.4749 29.9689 34.8 30.2L42.5 35.6625V48.1625C42.5 48.9833 42.6617 49.796 42.9758 50.5543C43.2898 51.3126 43.7502 52.0015 44.3306 52.5819C44.9109 53.1623 45.5999 53.6227 46.3582 53.9367C47.1165 54.2508 47.9292 54.4125 48.75 54.4125H65V59.375ZM75 48.125C75 48.4565 74.8683 48.7745 74.6339 49.0089C74.3995 49.2433 74.0815 49.375 73.75 49.375H48.75C48.4185 49.375 48.1005 49.2433 47.8661 49.0089C47.6317 48.7745 47.5 48.4565 47.5 48.125V34.375C47.5002 33.9763 47.4049 33.5833 47.2223 33.2288C47.0396 32.8744 46.7748 32.5688 46.45 32.3375L40.55 28.125L46.45 23.9125C46.7748 23.6812 47.0396 23.3756 47.2223 23.0212C47.4049 22.6667 47.5002 22.2737 47.5 21.875V8.125C47.5 7.79348 47.6317 7.47554 47.8661 7.24112C48.1005 7.0067 48.4185 6.875 48.75 6.875H73.75C74.0815 6.875 74.3995 7.0067 74.6339 7.24112C74.8683 7.47554 75 7.79348 75 8.125V48.125Z" fill="#010D4C"/>
<path d="M35 55.625C36.3807 55.625 37.5 54.5057 37.5 53.125C37.5 51.7443 36.3807 50.625 35 50.625C33.6193 50.625 32.5 51.7443 32.5 53.125C32.5 54.5057 33.6193 55.625 35 55.625Z" fill="#745EFF"/>
</svg>
