<svg width="80" height="80" viewBox="0 0 80 80" fill="none" xmlns="http://www.w3.org/2000/svg">
<g clip-path="url(#clip0_305_238)">
<path d="M75 62.5H5C3.61929 62.5 2.5 63.6193 2.5 65V75C2.5 76.3807 3.61929 77.5 5 77.5H75C76.3807 77.5 77.5 76.3807 77.5 75V65C77.5 63.6193 76.3807 62.5 75 62.5Z" fill="white"/>
<path d="M22.5 23.75H13.75C13.0596 23.75 12.5 24.3096 12.5 25V66.25C12.5 66.9404 13.0596 67.5 13.75 67.5H22.5C23.1904 67.5 23.75 66.9404 23.75 66.25V25C23.75 24.3096 23.1904 23.75 22.5 23.75Z" fill="white"/>
<path d="M45 45H35C34.3096 45 33.75 45.5596 33.75 46.25V66.25C33.75 66.9404 34.3096 67.5 35 67.5H45C45.6904 67.5 46.25 66.9404 46.25 66.25V46.25C46.25 45.5596 45.6904 45 45 45Z" fill="#F8BC26"/>
<path d="M66.25 35H57.5C56.8096 35 56.25 35.5596 56.25 36.25V66.25C56.25 66.9404 56.8096 67.5 57.5 67.5H66.25C66.9404 67.5 67.5 66.9404 67.5 66.25V36.25C67.5 35.5596 66.9404 35 66.25 35Z" fill="white"/>
<path opacity="0.1" d="M75 62.5H68.75C69.413 62.5 70.0489 62.7634 70.5178 63.2322C70.9866 63.7011 71.25 64.337 71.25 65V75C71.25 75.663 70.9866 76.2989 70.5178 76.7678C70.0489 77.2366 69.413 77.5 68.75 77.5H75C75.663 77.5 76.2989 77.2366 76.7678 76.7678C77.2366 76.2989 77.5 75.663 77.5 75V65C77.5 64.337 77.2366 63.7011 76.7678 63.2322C76.2989 62.7634 75.663 62.5 75 62.5ZM22.5 23.75H16.25C16.5815 23.75 16.8995 23.8817 17.1339 24.1161C17.3683 24.3505 17.5 24.6685 17.5 25V66.25C17.5 66.5815 17.3683 66.8995 17.1339 67.1339C16.8995 67.3683 16.5815 67.5 16.25 67.5H22.5C22.8315 67.5 23.1495 67.3683 23.3839 67.1339C23.6183 66.8995 23.75 66.5815 23.75 66.25V25C23.75 24.6685 23.6183 24.3505 23.3839 24.1161C23.1495 23.8817 22.8315 23.75 22.5 23.75ZM66.25 35H60C60.3315 35 60.6495 35.1317 60.8839 35.3661C61.1183 35.6005 61.25 35.9185 61.25 36.25V66.25C61.25 66.5815 61.1183 66.8995 60.8839 67.1339C60.6495 67.3683 60.3315 67.5 60 67.5H66.25C66.5815 67.5 66.8995 67.3683 67.1339 67.1339C67.3683 66.8995 67.5 66.5815 67.5 66.25V36.25C67.5 35.9185 67.3683 35.6005 67.1339 35.3661C66.8995 35.1317 66.5815 35 66.25 35ZM46.875 45H38.75C39.0815 45 39.3995 45.1317 39.6339 45.3661C39.8683 45.6005 40 45.9185 40 46.25V66.25C40 66.5815 39.8683 66.8995 39.6339 67.1339C39.3995 67.3683 39.0815 67.5 38.75 67.5H46.875C47.2065 67.5 47.5245 67.3683 47.7589 67.1339C47.9933 66.8995 48.125 66.5815 48.125 66.25V46.25C48.125 45.9185 47.9933 45.6005 47.7589 45.3661C47.5245 45.1317 47.2065 45 46.875 45Z" fill="#010D4C"/>
<path d="M75 60H70V36.25C70 35.2554 69.6049 34.3016 68.9016 33.5983C68.1984 32.8951 67.2446 32.5 66.25 32.5H57.5C56.5054 32.5 55.5516 32.8951 54.8484 33.5983C54.1451 34.3016 53.75 35.2554 53.75 36.25V60H48.75V46.25C48.75 45.2554 48.3549 44.3016 47.6516 43.5984C46.9484 42.8951 45.9946 42.5 45 42.5H35C34.0054 42.5 33.0516 42.8951 32.3484 43.5984C31.6451 44.3016 31.25 45.2554 31.25 46.25V60H26.25V25C26.25 24.0054 25.8549 23.0516 25.1517 22.3483C24.4484 21.6451 23.4946 21.25 22.5 21.25H13.75C12.7554 21.25 11.8016 21.6451 11.0983 22.3483C10.3951 23.0516 10 24.0054 10 25V60H5C3.67392 60 2.40215 60.5268 1.46447 61.4645C0.526784 62.4021 0 63.6739 0 65L0 75C0 76.3261 0.526784 77.5979 1.46447 78.5355C2.40215 79.4732 3.67392 80 5 80H75C76.3261 80 77.5979 79.4732 78.5355 78.5355C79.4732 77.5979 80 76.3261 80 75V65C80 63.6739 79.4732 62.4021 78.5355 61.4645C77.5979 60.5268 76.3261 60 75 60ZM58.75 37.5H65V65H58.75V37.5ZM36.25 47.5H43.75V65H36.25V47.5ZM15 26.25H21.25V65H15V26.25ZM75 75H5V65H10V66.25C10 67.2446 10.3951 68.1984 11.0983 68.9016C11.8016 69.6049 12.7554 70 13.75 70H22.5C23.4946 70 24.4484 69.6049 25.1517 68.9016C25.8549 68.1984 26.25 67.2446 26.25 66.25V65H31.25V66.25C31.25 67.2446 31.6451 68.1984 32.3484 68.9016C33.0516 69.6049 34.0054 70 35 70H45C45.9946 70 46.9484 69.6049 47.6516 68.9016C48.3549 68.1984 48.75 67.2446 48.75 66.25V65H53.75V66.25C53.75 67.2446 54.1451 68.1984 54.8484 68.9016C55.5516 69.6049 56.5054 70 57.5 70H66.25C67.2446 70 68.1984 69.6049 68.9016 68.9016C69.6049 68.1984 70 67.2446 70 66.25V65H75V75Z" fill="#010D4C"/>
<path d="M65 30V28.6375C66.8449 28.3145 68.5022 27.3128 69.6459 25.8296C70.7897 24.3463 71.337 22.4888 71.1803 20.6224C71.0236 18.7559 70.1742 17.0157 68.7991 15.7439C67.4241 14.4721 65.623 13.7608 63.75 13.75H61.25C60.587 13.75 59.9511 13.4866 59.4822 13.0178C59.0134 12.5489 58.75 11.913 58.75 11.25C58.75 10.587 59.0134 9.95107 59.4822 9.48223C59.9511 9.01339 60.587 8.75 61.25 8.75H68.75C69.413 8.75 70.0489 8.48661 70.5178 8.01777C70.9866 7.54893 71.25 6.91304 71.25 6.25C71.25 5.58696 70.9866 4.95107 70.5178 4.48223C70.0489 4.01339 69.413 3.75 68.75 3.75H65V2.5C65 1.83696 64.7366 1.20107 64.2678 0.732233C63.7989 0.263392 63.163 0 62.5 0C61.837 0 61.2011 0.263392 60.7322 0.732233C60.2634 1.20107 60 1.83696 60 2.5V3.8625C58.1551 4.18551 56.4978 5.18716 55.3541 6.67042C54.2103 8.15368 53.663 10.0112 53.8197 11.8776C53.9764 13.7441 54.8258 15.4843 56.2009 16.7561C57.5759 18.0279 59.377 18.7392 61.25 18.75H63.75C64.413 18.75 65.0489 19.0134 65.5178 19.4822C65.9866 19.9511 66.25 20.587 66.25 21.25C66.25 21.913 65.9866 22.5489 65.5178 23.0178C65.0489 23.4866 64.413 23.75 63.75 23.75H56.25C55.587 23.75 54.9511 24.0134 54.4822 24.4822C54.0134 24.9511 53.75 25.587 53.75 26.25C53.75 26.913 54.0134 27.5489 54.4822 28.0178C54.9511 28.4866 55.587 28.75 56.25 28.75H60V30C60 30.663 60.2634 31.2989 60.7322 31.7678C61.2011 32.2366 61.837 32.5 62.5 32.5C63.163 32.5 63.7989 32.2366 64.2678 31.7678C64.7366 31.2989 65 30.663 65 30Z" fill="#010D4C"/>
<path d="M40 37.5C41.3807 37.5 42.5 36.3807 42.5 35C42.5 33.6193 41.3807 32.5 40 32.5C38.6193 32.5 37.5 33.6193 37.5 35C37.5 36.3807 38.6193 37.5 40 37.5Z" fill="#F8BC26"/>
</g>
<defs>
<clipPath id="clip0_305_238">
<rect width="80" height="80" fill="white"/>
</clipPath>
</defs>
</svg>
