<svg width="80" height="80" viewBox="0 0 80 80" fill="none" xmlns="http://www.w3.org/2000/svg">
<g clip-path="url(#clip0_305_255)">
<path d="M40.0159 60.1138C55.9007 60.1138 68.7778 47.2366 68.7778 31.3518C68.7778 15.467 55.9007 2.58984 40.0159 2.58984C24.1311 2.58984 11.2539 15.467 11.2539 31.3518C11.2539 47.2366 24.1311 60.1138 40.0159 60.1138Z" fill="#F8BC26"/>
<path d="M40.0156 50.1093C50.3753 50.1093 58.7734 41.7112 58.7734 31.3515C58.7734 20.9919 50.3753 12.5938 40.0156 12.5938C29.656 12.5938 21.2578 20.9919 21.2578 31.3515C21.2578 41.7112 29.656 50.1093 40.0156 50.1093Z" fill="white"/>
<path opacity="0.1" d="M40.0169 12.5938C38.9692 12.6025 37.9238 12.6945 36.8906 12.8689C41.2457 13.6231 45.1945 15.8909 48.0407 19.2723C50.8869 22.6538 52.4476 26.9317 52.4476 31.3515C52.4476 35.7714 50.8869 40.0493 48.0407 43.4307C45.1945 46.8122 41.2457 49.08 36.8906 49.8342C37.9238 50.0086 38.9692 50.1006 40.0169 50.1093C44.9918 50.1093 49.7629 48.1331 53.2807 44.6153C56.7985 41.0975 58.7747 36.3264 58.7747 31.3515C58.7747 26.3767 56.7985 21.6055 53.2807 18.0878C49.7629 14.57 44.9918 12.5938 40.0169 12.5938Z" fill="#010D4C"/>
<path opacity="0.1" d="M38.7667 2.58984C37.9288 2.58984 37.091 2.58984 36.2656 2.70239C43.4256 3.33766 50.0882 6.63092 54.9411 11.9335C59.7941 17.2361 62.4856 24.1637 62.4856 31.3518C62.4856 38.5399 59.7941 45.4675 54.9411 50.7701C50.0882 56.0727 43.4256 59.3659 36.2656 60.0012C37.091 60.0637 37.9288 60.1138 38.7667 60.1138C46.3948 60.1138 53.7105 57.0835 59.1044 51.6896C64.4983 46.2957 67.5286 38.9799 67.5286 31.3518C67.5286 23.7237 64.4983 16.4079 59.1044 11.014C53.7105 5.62011 46.3948 2.58984 38.7667 2.58984Z" fill="#010D4C"/>
<path d="M7.50312 41.3552H15.0062C15.6696 41.3552 16.3057 41.0917 16.7747 40.6227C17.2438 40.1536 17.5073 39.5175 17.5073 38.8542C17.5073 38.1908 17.2438 37.5547 16.7747 37.0857C16.3057 36.6166 15.6696 36.3531 15.0062 36.3531H11.2547V35.1026C11.2547 34.4393 10.9912 33.8031 10.5221 33.3341C10.0531 32.8651 9.41695 32.6016 8.75364 32.6016C8.09032 32.6016 7.45417 32.8651 6.98514 33.3341C6.5161 33.8031 6.2526 34.4393 6.2526 35.1026V36.4657C4.40689 36.7888 2.7489 37.7909 1.60472 39.2748C0.460539 40.7586 -0.0870105 42.6169 0.069766 44.4841C0.226543 46.3513 1.0763 48.0923 2.4519 49.3646C3.82749 50.6369 5.62937 51.3485 7.50312 51.3594H10.0042C10.6675 51.3594 11.3036 51.6229 11.7727 52.0919C12.2417 52.5609 12.5052 53.1971 12.5052 53.8604C12.5052 54.5237 12.2417 55.1599 11.7727 55.6289C11.3036 56.0979 10.6675 56.3614 10.0042 56.3614H2.50104C1.83772 56.3614 1.20157 56.6249 0.732537 57.094C0.263502 57.563 0 58.1992 0 58.8625C0 59.5258 0.263502 60.1619 0.732537 60.631C1.20157 61.1 1.83772 61.3635 2.50104 61.3635H6.2526V62.614C6.2526 63.2774 6.5161 63.9135 6.98514 64.3825C7.45417 64.8516 8.09032 65.1151 8.75364 65.1151C9.41695 65.1151 10.0531 64.8516 10.5221 64.3825C10.9912 63.9135 11.2547 63.2774 11.2547 62.614V61.251C13.1004 60.9278 14.7584 59.9258 15.9026 58.4419C17.0467 56.958 17.5943 55.0997 17.4375 53.2325C17.2807 51.3653 16.431 49.6243 15.0554 48.352C13.6798 47.0797 11.8779 46.3681 10.0042 46.3573H7.50312C6.8398 46.3573 6.20365 46.0938 5.73462 45.6247C5.26558 45.1557 5.00208 44.5196 5.00208 43.8562C5.00208 43.1929 5.26558 42.5568 5.73462 42.0877C6.20365 41.6187 6.8398 41.3552 7.50312 41.3552Z" fill="#010D4C"/>
<path d="M78.1439 7.66799L75.0301 6.89267V2.59088C75.0301 1.92757 74.7666 1.29142 74.2976 0.822381C73.8286 0.353345 73.1924 0.0898438 72.5291 0.0898438C71.8658 0.0898438 71.2296 0.353345 70.7606 0.822381C70.2916 1.29142 70.0281 1.92757 70.0281 2.59088V7.59296L64.2006 11.5696C60.4563 6.99868 55.4933 3.58244 49.8868 1.71685C44.2802 -0.148734 38.2598 -0.387283 32.5233 1.02886C26.7867 2.445 21.569 5.45784 17.4747 9.71819C13.3805 13.9785 10.5774 19.3119 9.39036 25.1002C9.32468 25.4221 9.32303 25.7538 9.38552 26.0763C9.448 26.3988 9.5734 26.7058 9.75455 26.9799C9.9357 27.2539 10.1691 27.4896 10.4413 27.6735C10.7135 27.8573 11.0193 27.9858 11.3412 28.0515C11.9912 28.1841 12.6674 28.0531 13.2208 27.6873C13.4949 27.5061 13.7305 27.2728 13.9144 27.0005C14.0983 26.7283 14.2267 26.4225 14.2924 26.1007C15.291 21.284 17.6223 16.8447 21.0208 13.2884C24.4192 9.73206 28.7482 7.20176 33.5146 5.98573C38.281 4.76969 43.2931 4.91682 47.9799 6.41035C52.6668 7.90388 56.8399 10.6838 60.0239 14.4333L55.8847 17.297C53.0409 14.1051 49.3008 11.8447 45.1527 10.8109C41.0046 9.77715 36.6412 10.018 32.6321 11.502C28.6229 12.986 25.1544 15.6443 22.6791 19.1297C20.2038 22.6152 18.8369 26.766 18.7568 31.0402C18.7568 31.7035 19.0203 32.3397 19.4893 32.8087C19.9583 33.2777 20.5945 33.5412 21.2578 33.5412C21.9211 33.5412 22.5573 33.2777 23.0263 32.8087C23.4953 32.3397 23.7588 31.7035 23.7588 31.0402C23.8129 27.8167 24.8242 24.682 26.6642 22.0347C28.5043 19.3874 31.0899 17.3469 34.0924 16.1727C37.0949 14.9985 40.3788 14.7436 43.5266 15.4403C46.6744 16.1371 49.5439 17.754 51.7705 20.0857L38.59 29.302C38.0835 29.6946 37.7471 30.2666 37.6501 30.9001C37.5531 31.5335 37.7029 32.18 38.0687 32.7062C38.4344 33.2324 38.9882 33.5981 39.6157 33.7279C40.2433 33.8577 40.8967 33.7416 41.4412 33.4037L54.6342 24.2749C56.414 27.9661 56.7341 32.1934 55.5305 36.1106C54.3268 40.0278 51.6882 43.3459 48.1427 45.4008C44.5972 47.4557 40.4064 48.0958 36.4092 47.1929C32.4119 46.2901 28.9031 43.9109 26.585 40.5317C26.1762 40.0941 25.624 39.8178 25.0287 39.7529C24.4335 39.688 23.8347 39.8388 23.3412 40.1779C22.8477 40.517 22.4922 41.0219 22.3394 41.6008C22.1865 42.1797 22.2465 42.7943 22.5083 43.3328C25.6167 47.717 30.2702 50.7612 35.5325 51.8529C40.7948 52.9445 46.2753 52.0026 50.8711 49.2165C55.4669 46.4305 58.8369 42.0072 60.3031 36.8368C61.7692 31.6663 61.2227 26.1324 58.7734 21.3487L62.9001 18.485C65.7319 23.5548 66.8035 29.4202 65.9471 35.1638C65.0908 40.9074 62.3548 46.2052 58.1673 50.2284C53.9797 54.2516 48.5767 56.7734 42.8034 57.3992C37.0302 58.025 31.2123 56.7196 26.2599 53.6871C25.6961 53.3356 25.0157 53.2224 24.3684 53.3725C23.7211 53.5226 23.16 53.9236 22.8084 54.4875C22.4569 55.0513 22.3437 55.7317 22.4938 56.3789C22.6439 57.0262 23.045 57.5873 23.6088 57.9389L25.0094 58.7392L20.0948 76.9718C19.9858 77.5913 20.1142 78.2291 20.4545 78.7582C20.7947 79.2872 21.3219 79.6686 21.9308 79.8264C22.5397 79.9841 23.1857 79.9066 23.74 79.6094C24.2944 79.3121 24.7163 78.8168 24.9218 78.2223L29.5737 60.715C36.328 63.116 43.7032 63.116 50.4574 60.715L55.1094 78.2223C55.3148 78.8168 55.7368 79.3121 56.2911 79.6094C56.8455 79.9066 57.4915 79.9841 58.1004 79.8264C58.7093 79.6686 59.2364 79.2872 59.5767 78.7582C59.917 78.2291 60.0454 77.5913 59.9364 76.9718L55.0218 58.7392C58.6687 56.732 61.878 54.0167 64.4615 50.7526C67.045 47.4885 68.9505 43.7413 70.0664 39.7309C71.1823 35.7205 71.486 31.5276 70.9598 27.3982C70.4335 23.2689 69.0879 19.2862 67.0018 15.6838L72.9668 11.5446L76.8684 12.52C77.5118 12.6858 78.1948 12.5893 78.767 12.2516C79.3392 11.9139 79.7538 11.3627 79.9197 10.7193C80.0855 10.0758 79.9889 9.3929 79.6512 8.82068C79.3135 8.24846 78.7623 7.83382 78.1189 7.66799H78.1439Z" fill="#010D4C"/>
<path d="M8.75104 75.1193C10.1323 75.1193 11.2521 73.9995 11.2521 72.6182C11.2521 71.2369 10.1323 70.1172 8.75104 70.1172C7.36975 70.1172 6.25 71.2369 6.25 72.6182C6.25 73.9995 7.36975 75.1193 8.75104 75.1193Z" fill="#745EFF"/>
</g>
<defs>
<clipPath id="clip0_305_255">
<rect width="80" height="80" fill="white"/>
</clipPath>
</defs>
</svg>
